<?xml version="1.0" standalone="no"?>
<!DOCTYPE svg PUBLIC "-//W3C//DTD SVG 1.1//EN" "http://www.w3.org/Graphics/SVG/1.1/DTD/svg11.dtd" >
<svg>
<metadata>
Created by FontForge 20090914 at Fri Nov 13 02:31:10 2020
 By www-data
Typeface &#194;&#169; (your company). 2011. All Rights Reserved
</metadata>
<defs>
<font id="Snowflake" horiz-adv-x="1058" >
  <font-face 
    font-family="Snowflake"
    font-weight="400"
    font-stretch="normal"
    units-per-em="2048"
    panose-1="2 0 5 0 0 0 0 0 0 0"
    ascent="1638"
    descent="-410"
    x-height="1426"
    cap-height="1433"
    bbox="-0.000976562 -357.999 1802 1912"
    underline-thickness="150"
    underline-position="-142"
    unicode-range="U+0020-U+0454"
  />
<missing-glyph horiz-adv-x="1024" 
d="M100 0v1434h824v-1434h-824zM150 50h724v1334h-724v-1334zM325 1148c20.667 18.667 40.002 32.998 58.002 42.998c35.333 20 72.666 30 111.999 30c61.333 0 110.666 -15.833 147.999 -47.5s56 -74.167 56 -127.5c0 -32.667 -7.66699 -65.5 -23 -98.5
s-44.333 -76.167 -87 -129.5c-42 -53.333 -75 -97.333 -99 -132s-36 -67.667 -36 -99c0 -25.333 8 -69.666 24 -132.999h-32c-23.333 64.667 -35 114 -35 148c0 50.667 27.167 123.334 81.5 218.001s81.5 167 81.5 217c0 38 -11 68 -33 90s-52.333 33 -91 33
c-25.333 0 -48.333 -5.66699 -69 -17c-17.333 -10 -36 -23.333 -56 -40v45zM389.002 333.998l57 57.999c7.33301 6.66699 14 10 20 10c6.66699 0 14 -3.66699 22 -11l56 -60c6 -7.33301 9 -14 9 -20c0 -7.33301 -3.33301 -14.666 -10 -21.999l-56 -62
c-9.33301 -9.33301 -16.333 -14 -21 -14c-7.33301 0 -14 3.33301 -20 10l-61 71c-4.66699 6 -7 12 -7 18c0 6.66699 3.66699 14 11 22z" />
    <glyph glyph-name=".notdef" horiz-adv-x="1024" 
d="M100 0v1434h824v-1434h-824zM150 50h724v1334h-724v-1334zM325 1148c20.667 18.667 40.002 32.998 58.002 42.998c35.333 20 72.666 30 111.999 30c61.333 0 110.666 -15.833 147.999 -47.5s56 -74.167 56 -127.5c0 -32.667 -7.66699 -65.5 -23 -98.5
s-44.333 -76.167 -87 -129.5c-42 -53.333 -75 -97.333 -99 -132s-36 -67.667 -36 -99c0 -25.333 8 -69.666 24 -132.999h-32c-23.333 64.667 -35 114 -35 148c0 50.667 27.167 123.334 81.5 218.001s81.5 167 81.5 217c0 38 -11 68 -33 90s-52.333 33 -91 33
c-25.333 0 -48.333 -5.66699 -69 -17c-17.333 -10 -36 -23.333 -56 -40v45zM389.002 333.998l57 57.999c7.33301 6.66699 14 10 20 10c6.66699 0 14 -3.66699 22 -11l56 -60c6 -7.33301 9 -14 9 -20c0 -7.33301 -3.33301 -14.666 -10 -21.999l-56 -62
c-9.33301 -9.33301 -16.333 -14 -21 -14c-7.33301 0 -14 3.33301 -20 10l-61 71c-4.66699 6 -7 12 -7 18c0 6.66699 3.66699 14 11 22z" />
    <glyph glyph-name="space" unicode=" " horiz-adv-x="508" 
 />
    <glyph glyph-name="space" unicode="&#xa0;" horiz-adv-x="508" 
 />
    <glyph glyph-name="exclam" unicode="!" horiz-adv-x="510" 
d="M223 1433l86.999 -14l44 14l28 -29h15l43 29l15 -14v-15l-15 -14v-15l29 -29l-14 -43h-44v58l-57 -29l43 -58v-44l-15 -14v-14h29v43l29 -29l-14 -87l14 -58l-43 -43l14 -44h-43v-14c0 -19.333 14.333 -29 43 -29l15 -15v-43c0 -50 -14.667 -93.333 -44 -130l29 -44
l-43 -58l29 -29v-28l-29 -29l14 -73v-29l-57 15l-145 -29c-24 0 -48.333 140 -73 420l15 14v15c-29.333 148 -48.666 321.667 -57.999 521l14 14h145zM280.999 1216v-14h29v14h-29zM353.999 1202v-29h14v29h-14zM353.999 912v-14h28v14h-28zM295.999 637v-15h29v15h-29z
M222.999 405l43.999 -0.000976562c78.667 0 131.667 -33.667 159 -101v-29l-29 -87l29 -29l-44 -43l15 -15v-14l-58 -87h-14l-29 29l43 43h-29c-36.667 -28.667 -80 -43 -130 -43h-29c-33.333 0 -57.666 53 -72.999 159v58c24.667 60.667 58.667 99.334 102 116.001z" />
    <glyph glyph-name="dollar" unicode="$" horiz-adv-x="447" 
d="M195 1395h58.999c28.667 0 48 -62.667 58 -188l14 14h29c38.667 -16 58 -50 58 -102v-72c0 -29.333 -19.333 -44 -58 -44l-72 15l-15 -44c64 0 122 -58.333 174 -175c-21.333 -106.667 -69.666 -193.667 -144.999 -261c0 -68 -9.66699 -102 -29 -102h-87
c0 68 -29 126.333 -87 175l-15 58l15 14v15l-15 58l15 14h14l29 -29c48.667 0 73 9.66699 73 29l-87 88c-48.667 53.333 -73 101.666 -73 144.999c0 100.667 53.333 178.334 160 233.001v14c-29.333 0 -44 9.66699 -44 29v29l15 15v14l-29 29zM180.999 974l-15 -15v-14h44z
" />
    <glyph glyph-name="quotesingle" unicode="'" horiz-adv-x="500" 
d="M450 1361l15.001 -15v-43l-29 -44l14 -14c-16 0 -30.333 -33.667 -43 -101h-15l15 -15v-29l-29 -29l-58 15l-14 -15v-14l57 -15v-72l-57 -72l14 -73l-29 -29l-14 15l-44 -15l-14 15h-15l-130 -29l-29 29c67.333 356.667 110.666 535 129.999 535h174zM378.001 1259v-29
h29zM363.001 1187v-29h15v29h-15zM190.001 1013h43v29h-14zM233.001 999v-15h29v15h-29zM190.001 970c0 -16.667 24 -31.333 72 -44l-14 44h-58z" />
    <glyph glyph-name="comma" unicode="," horiz-adv-x="557" 
d="M170 377h250.998l27 -28l-55 -97l14 -14v-28l-28 -28l14 -14v-13l-42 -42l-28 28h-14l-14 -42c24.667 0 43.334 -32.333 56.001 -97c-37.333 0 -56 -42 -56 -126l-13 -14h-70l-14 14h-14l-28 -28h-83l-14 14h-14c64.667 343.333 106.334 515 125.001 515zM350.998 294
v-28h28v28h-28zM336.998 224v-56h14l14 56h-28zM155.998 43c0.666992 -24.667 33.333 -52.333 98 -83v14l-14 41l28 28c-28 0 -42 18.667 -42 56z" />
    <glyph glyph-name="hyphen" unicode="-" horiz-adv-x="670" 
d="M169 794h42l41 -13l70 13h181l41 -41c0 -18.667 -13.667 -28 -41 -28l28 -42v-42l-14 -13v-14l27 -28l-41 -14l28 -42v-42l-14 -13v-14l-98 14h-41c0 36.667 -14 55 -42 55h-14v-55l-28 27l14 14h-42c-18.667 0 -28 -13.667 -28 -41h-97v69l28 42l-28 28v153zM419 516
v-14h28l14 42h-14z" />
    <glyph glyph-name="hyphen" unicode="&#xad;" horiz-adv-x="670" 
d="M169 794h42l41 -13l70 13h181l41 -41c0 -18.667 -13.667 -28 -41 -28l28 -42v-42l-14 -13v-14l27 -28l-41 -14l28 -42v-42l-14 -13v-14l-98 14h-41c0 36.667 -14 55 -42 55h-14v-55l-28 27l14 14h-42c-18.667 0 -28 -13.667 -28 -41h-97v69l28 42l-28 28v153zM419 516
v-14h28l14 42h-14z" />
    <glyph glyph-name="period" unicode="." horiz-adv-x="557" 
d="M268 391h111c39.333 0 81.333 -74.333 126 -223l-28 -27l14 -14v-14c-9.33301 -37.333 -28 -56 -56 -56l-42 14v-14l14 -42l-14 -13h-41l14 13v42h-28c-18.667 0 -28 -23 -28 -69h-14c-86 0 -141.667 64.667 -167 194c0 82 46.333 151.667 139 209zM254 266v-14h42v14
h-42z" />
    <glyph glyph-name="slash" unicode="/" horiz-adv-x="1206" 
d="M916 1417h249.999l-12 -82l-197 -289l-6 -41l-40 -83l-69 -83l-6 -41l-20 -41l-102 -124l12 83h-14l-74 -124c24.667 0 -3.66602 -96.333 -84.999 -289c-37.333 0 -116.333 -124 -237 -372l-34 -41h-70l6 41h-14l-68 -83h-83l6 42h-14c562 1018 852.333 1527 871 1527z
M975.999 1170l-41 -83h28l41 83h-28zM860.999 963l-80 -165h13l95 165h-28zM417.999 427c-35.333 -74 -43 -156.667 -23 -248l20 41l46 124l69 83c-28 0 -15.333 55 38 165z" />
    <glyph glyph-name="zero" unicode="0" horiz-adv-x="1161" 
d="M582 1441l74 0.00195312c40 -20.667 60 -45.334 60 -74.001h44c0 29.333 10 44 30 44l30 -44l-15 -15l15 -15l15 15h29v-60l-15 -59c39.333 -90.667 79 -145 119 -163h30v44h15l30 -30c-5.33301 -39.333 -20.333 -59 -45 -59v-74l-30 -45l15 -15h45v75h15l44 -45l-44 -45
v-14c39.333 0 69 -20 89 -60l-60 -104l15 -15l-15 -74v-89h15c0 30 10 45 30 45l15 -15v-15l-15 -15l-45 -15v-15l15 -15v-14l-15 -15v-15l15 -45l-44 -29l-30 29h-15v-29h-15l-44 14l-15 -59h-89v-30c49.333 -6.66699 74 -21.334 74 -44.001v-15l-15 15h-15l-44 -45l14 -59
l-14 -15h-15l-60 15l-14 -45l-60 45l-30 -30v-104h-14l-30 30c0 23.333 -20 53 -60 89h-29v-15l29 -45v-44h-59v30h30l-30 29l-45 -15l15 15v30h-15l-59 -45c-20 0 -30 15 -30 45h-15l-14 -15h-15l-15 15c0 20 -24.667 39.667 -74 59l-30 60v15l15 15v14
c-89.333 75.333 -134 199.333 -134 372v59c0 182.667 24.667 281.667 74 297l-29 30c0 76 44.333 130.333 133 163l45 60l-30 30v29c90 89.333 194 134 312 134zM716 1322l-15 -59l15 -15v-15l-15 -45l15 -14h15c0 29.333 14.667 44 44 44v30l-44 15l15 15v44h-30zM642 1307
v-15h29v15h-29zM448 1278l-14 -75l14 -15h15l45 30c-14.667 40 -29.667 60 -45 60h-15zM612 1248v-30c29.333 0 44 -19.667 44 -59h15l15 44l-15 15v15l15 45h-15zM953 1233l30 -45h-15l-44 15l-15 -15v30zM478 1040l-43.999 -45l-45 30h-15l30 -45l-30 -44l15 -15l-15 -15
v-44l60 -15v15l-15 59h59v-74l-44 -45l-45 15v-15c4 -49.333 19 -74 45 -74v-59h-45c0 68.667 -24.667 103 -74 103v-14l89 -193l15 14h15l14 -14v-30c17.333 0 32.333 -24.667 45 -74l-15 -45h89l60 -15c23.333 0 67.666 44.667 132.999 134l15 -15l-15 119l15 44l-29 30
v89l-15 89l15 45l-60 74l-89 30l-74 -15zM849.001 951.002v-15l45 -45c0 30 15 45 45 45l-30 30zM270.001 891.002v-29h15v29h-15zM1028 832.002c0 -14.667 19.667 -29.667 59 -45v45h-59zM211.001 654.002l15 -15v-15l-15 -74h29v29c30 0 45 10 45 30v60h-45l-14 -15h-15z
M1087 654.002h15l30 -30l-15 -15h-15l-15 15v30zM924.001 609.002v-30h29l30 30v15h-15zM359.001 550.002l15 -45h15v60l-15 -15h-15zM983.001 505.002v-30h30zM434.001 461.002h29v29zM686.001 371.002v-29l30 29h-30zM582.001 312.002l30 -30v30h-30zM701.001 312.002v-30
h15l30 30h-45zM686.001 267.002v-44l30 30l-15 14h-15zM1013 282.002l30 -29l-75 -60v45zM746.001 208.002v-30h14v30h-14zM746.001 74.002h29v-44h-29v44z" />
    <glyph glyph-name="one" unicode="1" horiz-adv-x="643" 
d="M150 1425l258 -15l15 15h16l15 -15h15l60 15l31 -45v-31h-31l-15 15h-15l-30 -30c0 30.667 -10 46 -30 46l-16 -16v-15l31 -91l-61 -45l46 -31l-16 -15v-15c0 -30 20.333 -45 61 -45l15 -16v-15l-45 -15l30 -30l-15 -46h-15l-46 31l-15 -46l30 -30l61 -15l15 -15v-16
l-45 -15l30 -60l-15 -46h45l15 15l16 -15l-16 -45h16l30 -31l-30 -60h-16l-15 60h-15l-45 -45v-15c29.333 0 54.333 -20.333 75 -61h-45l15 -15v-15c0 -20.667 -25.333 -31 -76 -31v-15c30.667 0 46 -10 46 -30l-30 -46l15 -15h60l-15 76v15l30 31h16v-61l-16 -106l-15 15
h-15l-45 -15l-31 30c-6 -70.667 -26 -106 -60 -106v-30c34 0 54 -40.667 60 -122h106l16 -121l-16 -15h-15l-15 76h-15c-25.333 0 -40.333 -20.333 -45 -61l-16 -15h-15l-15 15l-45 -15l-76 30l-31 -30h-15l-45 45v31l30 258l-30 30v121l-15 91l15 61l-15 15l15 76v121
l15 15l-15 15v15l30 46c0 20 -35.333 60.333 -106 121v334c0 20 15 30 45 30zM484 1334c18.667 0 44 -30.333 76 -91l-15 -15h-16c-20 0 -35 35.333 -45 106zM211 1213l61 -15l15 15v30h-46zM514 1182l31 -30v-30l-31 30v30zM499 1046h46v-76l-31 -30l-15 15v15l15 15v16z
M529 864h16v-30h-16v30zM257 591v-15h45v15h-45zM378 76v-15h30v15h-30z" />
    <glyph glyph-name="two" unicode="2" horiz-adv-x="944" 
d="M402 1439l105.997 0.000976562c146.667 0 257.667 -111 333 -333l-15 -15l-15 15h-31v-15c0 -30.667 15.333 -46 46 -46l15 -15v-76l-91 -15l-15 15v-15l30 -60h31v30h30c0 -70.667 -10 -106 -30 -106l-46 15v-15l-30 -46l30 -30l30 30v-30l-30 -45l15 -46h-60v-15
l15 -15v-15c-43.333 0 -78.666 -60.667 -105.999 -182h242c20.667 0 31 -15 31 -45l-31 -152l15 -45l-15 -16v-15l15 -60v-15l-30 -31h-30l30 46l-45 30c0 -30 -25.333 -45 -76 -45c0 -40.667 -10 -61 -30 -61c-13.333 50.667 -28.666 76 -45.999 76l-91 -46h-15v31l30 45
v15c-35.333 0 -70.666 -20 -105.999 -60l-15 15h-15l15 15v30h-45l-15 -76h-31l16 76l-46 -30l-15 15h-15v-45c-20.667 0 -31 15 -31 45h-30l15 -76l-45 -15l-15 15h-15l-46 -15l-15 15v182l61 121l-16 46c129.333 133.333 225.333 289.666 288 468.999
c0 54 -20 119.667 -60 197h-46l-76 15c0 -20 -25 -30 -75 -30c0 -30 -10.333 -45 -31 -45h-15l15 60l-15 46l15 15v15l-30 91l46 15l45 -15l30 45c-70.667 10 -106 25.333 -106 46v45c40.667 60.667 126.667 91 258 91zM340.997 1242v-15l76 -30h15l-15 15v30l30 30h15v-15
l-15 -76l15 -15h16c0 30.667 15 46 45 46v30c-30 0 -45 20.333 -45 61l-106 -61h-31zM673.997 1272v-30h16v30h-16zM779.997 1000v-15h31v15h-31zM658.997 666.001v-45h31v15zM431.997 636.001c0 -30 -15 -45 -45 -45v-15c30 0 45 -10.333 45 -31l-15 -15v-15l15 -15l15 15
h46v-30h15c0 50 15 75 45 75l-60 76l-46 -15zM598.997 560.001v-30h30zM567.997 500.001v-30h16v30h-16zM810.997 242.001l-15 -15v-15l15 -15h15l15 15v15l-15 15h-15z" />
    <glyph glyph-name="three" unicode="3" horiz-adv-x="891" 
d="M408 1439h75.999c232 -44 348 -145 348 -303l-61 -15v-30h15l16 15h15l15 -15v-16l-136 -75h-16c-36.667 30 -72 45 -106 45h-15v-15c32 0 72.333 -30.333 121 -91c0 -60.667 -20 -91 -60 -91v-15h15c30 0 45 15.333 45 46h16c17.333 0 32.333 -25.333 45 -76h30l-15 -15
v-15l-15 15h-45l-46 -46l106 -60v-16l-15 -15v-15c60.667 -20.667 91 -40.667 91 -60l-30 -31h-16v31h-30l-45 -46h30l45 15v-45h-30v-15c24 -60.667 44.333 -91 61 -91v60h15l30 -30l-106 -106l-30 30l-30 -30v-15l15 -15v-15l-61 -46v-15c40.667 0 61 -15 61 -45
c-20.667 -60.667 -41 -91 -61 -91h-15l30 45v61h-45l-106 -76l-46 15l-30 -30h-15l-45 30h-122c-90.667 0 -136 35.333 -136 106l15 15v16l-15 196l15 16h15c51.333 -70.667 137.333 -106 258 -106c0 -30.667 10 -46 30 -46v15l-15 15v16l61 166
c-55.333 0 -111 40.333 -167 121c-75.333 0 -120.666 25.333 -135.999 76c10 90.667 25 136 45 136h197c0 30 25.333 75.667 76 137l-152 45v30h15l76 -15l15 15v16l-121 60h-15c0 -64 -55.667 -109.333 -167 -136l-15 15v15l46 46l-46 30l15 15l-15 106v91
c0 40 91 75.333 273 106zM437.999 1318c0 -40.667 -15.001 -60.999 -45.001 -60.999v-15c72.667 -70.667 153.334 -106 242.001 -106l30 30l15 -15h16c0 25.333 20 40.666 60 45.999v45l-76 15l-30 -30h-45l-91 45l15 16v30h-15v-30h-30zM210.998 1257v-15l30 -30h15l31 30
v15h-76zM725.998 1151v-15h30v15h-30zM725.998 1121v-15h30v15h-30zM467.998 1075v-15h31v15h-31zM785.998 1000l31 -46l-15 -15h-16l-30 30zM695.998 651.001v-30h30v30h-30zM452.998 621.001l-15 -15v-15l15 -15h15l16 15v15l-16 15h-15zM301.998 621.001l15 -15v-15
l-15 -15h-15l-16 15v15l16 15h15zM573.998 606.001v-15h31v15h-31zM679.998 591.001v-31l31 31h-31zM498.998 576.001v-31h15v31h-15zM785.998 500.001l31 -30v-16l-31 31v15zM725.998 364.001h30v30zM467.998 364.001v-46l31 30l-15 16h-16zM164.998 288.001v-15l61 -31h30
v31l-45 15l15 15v30h-15zM361.998 288.001v-15h46v15h-46zM483.998 288.001l-16 -61l16 -15h30v15l-15 46l15 15h-30zM407.998 227.001h30v31zM149.998 212.001v-15h31v15h-31zM740.998 182.001h30v-15h-30v15zM164.998 121.001c6.66699 -30 47.333 -45 122 -45v-31h-61
c-52.667 0 -83 15.333 -91 46zM604.997 91.001l15 -15v-15l-106 -16v31z" />
    <glyph glyph-name="four" unicode="4" horiz-adv-x="1014" 
d="M405 1439l273 -0.00195312c40 -25.333 60 -60.666 60 -105.999h46v30l-31 46l16 15l15 -15h30l15 15h15l16 -15v-31h-61v-15h30l-30 -45l15 -15v-15h-15l-30 30l-46 -15l15 -61l-15 -61c34 0 54.333 -30 61 -90c40 -5.33301 60 -20.666 60 -45.999l-15 -15h-15l-15 15
h-15l-31 -76l46 -30l30 30l15 -15v-45h-15l-15 15h-15v-61c30 0 45 -10 45 -30v-15h-15l-45 45l-46 -15v-45h31v-30l-16 -16c12.667 -44.667 43 -80 91 -106l46 15l45 -15l15 15l31 -121h-15l15 -15v-15l-31 -121l16 -46h-16l-60 16l-30 -46l15 -106l-31 -30l16 -46h-16
l-91 31h-15v-16c0 -20 15.333 -30 46 -30v-15l-15 -15v-15h121v-15l-30 -31l-76 15l-31 -30l-30 30h-15l-76 -15l-30 31l-45 -46h-16l-30 30v334c-36.667 0 -62 20 -76 60l-15 -15l-75 15h-16l-45 -45l-76 15h-15v-30l-15 15h-15c-20.667 0 -31 -15.333 -31 -46l-15 -15h-15
l-15 15l15 46l-15 242zM784 1242h30l46 -45l-16 -16l-15 16h-15l-15 -16h-15l-15 16zM814 1151h30v-15h-30v15zM435 968.998l16 -15h15v46zM466 923.998v-30l15 -15v-16c-20 0 -40.333 -65.667 -61 -197l15 -15h61v197l15 15l-15 61h-30zM738 923.998v-15h31v15h-31z
M375 772.998v-16h30v16h-30zM844 787.998h31v-15l-46 -46h-30v30c30 0 45 10.333 45 31zM360 726.998v-15h30v15h-30zM769 438.998l30 -30h30v30h-60zM890 438.998v-15h30v15h-30zM784 363.998l-31 -61l31 -30l15 15h15l-15 15v30l15 15v16h-30zM723 257.998v-31h30z
M769 226.998v-30h60v15z" />
    <glyph glyph-name="five" unicode="5" horiz-adv-x="1014" 
d="M210 1424l605.998 -0.000976562l31 -30v-31l-31 -45l15 -46h-45l-45 31l-16 -137h61v15l-15 16v15l45 30l31 -151l-46 -16v-30h46v-30c-111.333 10 -167 25 -167 45l30 31v30l-91 -15l16 -15v-16l-61 -45h-30v45l-31 -30v-15h31v-15l-15 -15l15 -106h45
c68.667 -10.667 104 -26 106 -46l15 15h15c88.667 -78 144.334 -138.333 167.001 -181l-30 -31h-76v-30c86 0 136.667 -25.333 152 -76l-31 -45l31 -30h-61v-16h30l-15 -75l15 -15h-60l45 -61v-15h-30v30l-15 -15h-31l-15 15l-76 -30v-15c0 -24 35.333 -39.333 106 -46
l-30 -91l-15 15h-15l15 16v30l-61 15c0 -60.667 -65.333 -106 -196 -136l15 -15v-31h-31c0 22.667 -45.333 48 -136 76l-45 -45l-46 45c0 -30 -10 -45 -30 -45h-46c-20 0 -30 15 -30 45l-15 333l15 15h15c20.667 -42 71.334 -77.333 152.001 -106h15
c111.333 16.667 167 72.334 167 167.001c0 47.333 -50.667 87.666 -152 120.999c-79.333 -23.333 -140 -53.666 -182 -90.999l-15 15v834zM270.998 1303c0 -40.667 -20.333 -61 -61 -61v-30l122 -61c0 40.667 25 61 75 61c0 17.333 -25 32.333 -75 45v46l-16 -15h-15l-15 15
h-15zM285.998 1242h46v-30h-46v30zM497.998 1121v-15h31v15h-31zM755.998 1091v-31h30v31h-30zM467.998 1030v-30h15v30h-15zM830.998 559.999l-15 -45h15l31 30v15h-31zM346.998 211.999v-30l30 30h-30zM664.998 90.999h30v-30h-30v30z" />
    <glyph glyph-name="six" unicode="6" horiz-adv-x="1014" 
d="M392 1426h59.999l60 -15l45 15l60 -90v-15c-16.667 -40 -36.667 -60 -60 -60v-45c40 0 60 -10 60 -30v-30l-75 -60l15 -45l-15 -15l-15 15h-30v-15c0 -54 20 -89 60 -105h15c0 40 40 60 120 60c82.667 0 148 -50 196 -150h45l-105 -90v-30l105 -31v46
c-30 0 -45 10 -45 30l15 15h15l45 -60v-31c0 -20 -25 -30 -75 -30c0 -20 15 -30 45 -30l45 15v-15l-30 -45l15 -15l-75 15h-15v-15c0 -20 15 -30 45 -30l15 -15v-75l-15 15h-15l-15 -15v-15h45v-15c-40 -44.667 -60 -79.667 -60 -105l15 -45l-15 -15h-15l-15 15
c-31.333 -90 -76.666 -135 -135.999 -135c-8 -60 -38 -90 -90 -90l-15 15v-15l15 -45h-30c-2.66699 28.667 -57.667 68.667 -165 120h-30v-15l30 -45v-15h-15l-45 30l15 15v15l-15 15v15l15 45h-15l-90 -60l-45 15v30l15 -15h30v15l-30 45l30 30l-15 15h-15l-30 -30h-15
c0 22.667 -30 67.667 -90 135l-30 225c70 386.667 175 667 315 841zM616.999 1426h45l60 -60l-45 -30h-15l-45 60h-30zM646.999 1321h15v-30h-15v30zM391.999 1261v-30l30 30h-30zM496.999 1201v-15h30v15h-30zM556.999 1186v-15h30v15h-30zM481.999 1096v-30h30v30h-30z
M436.999 976l30 -30l15 15v15h-45zM361.999 886l15 -15h60v15l-30 30h-15zM812.999 856v-30h45l-30 30h-15zM391.999 540l60 -60l-15 -15v-30c0 -32 50 -52 150 -60l75 165c-40.667 80 -70.667 120 -90 120h-75zM196.999 585h30v30zM361.999 495v-30h15v30h-15zM947.999 390
h45v-15l-30 -30l-15 15v30zM676.999 315v-30h45l-30 30h-15zM556.999 300v-15h30v15h-30zM932.999 315h15v-30h-45zM902.999 195v-15l-30 -30v15zM586.999 135l30 -30h15l-30 30h-15zM827.999 150h45l-30 -30h-15v30zM526.999 105v-30h30zM751.999 75h30v-15h-30v15z" />
    <glyph glyph-name="seven" unicode="7" horiz-adv-x="888" 
d="M139 1426h645l30 -30v-60h-30l-15 15h-15c0 -60 -20 -90 -60 -90v-30c26.667 0 61.667 -25 105 -75l-90 -15l15 -90l-15 -15v-15l15 -90h-15l-15 15h-15l-15 -15l15 -75l-30 -30l-15 15v15l-45 -15l15 -15l-15 -75l15 -46l-45 -45l15 -45h-15l-15 15h-15l-15 -15v-45h45
v-60h-15l-45 15l15 -45c-14.667 -40 -29.667 -60 -45 -60l-15 15l-15 -75l15 -15h15v45h30l15 -120c-30 0 -45 -25 -45 -75l-60 -45l15 -45l15 15h30l-15 -75h-30l-45 75l15 45l-90 -45c16.667 -50 41.667 -75 75 -75v-30h-15l-60 45h-15l-60 -45h-15l-15 15h-15l15 15v15
l-15 45h-15c0 -60 -15 -90 -45 -90h-15v15c90 344 150 529 180 555h30l30 -30c-30 0 -45 -10 -45 -30l30 -30l15 60h15l45 -30h15l45 75l-45 15l-60 -15l-45 15v45h30v15l-30 46v30l75 135l-15 15l45 45l-30 30l15 45l-15 45l-15 -15h-15l-195 105l-30 -30h-30v15
c40 60 60 105 60 135s-15 45 -45 45l-15 15v60zM274 1336l30 -30c-50 -12.667 -75 -27.667 -75 -45c22.667 0 42.667 -35 60 -105h15l45 45l15 -45h30v30l-30 45v15h75v30h-60l15 75v15h-30v-45h-45v45h-15zM574 1261v-30l30 30h-30zM634 1171v-15l30 -30h15l-15 45h-30z
M124 1066h30v-15h-30v15zM664 961h30v30zM544 721v-31h15v31h-15zM394 705v-60l30 30zM529 450h15l30 -30l-30 -30l-15 15v45zM349 345l-15 15h-15c0 -30 -15 -45 -45 -45v-45h15l30 30l15 -15h15l15 15h15l30 -30l30 30c-30 0 -45 25 -45 75zM304 225h30v30z" />
    <glyph glyph-name="eight" unicode="8" horiz-adv-x="953" 
d="M419 1426l75 -0.000976562c130 0 235.333 -50 316 -150l-15 -60l15 -15h15l45 15v-15c0 -20 -30 -30 -90 -30l15 -45l-15 -45l15 15h45v-15c-22.667 -22.667 -37.667 -77.667 -45 -165h30v30h30v-30c0 -20 -15 -30 -45 -30l15 -15v-60h-45l-76 -15v-15l45 -45l16 15h15
c50 -43.333 85 -88.666 105 -135.999l-30 -45v-15h45v30h30v-15l-45 -90l15 -60l-15 -60l-30 30l-75 -30v-15h15l60 15h15l-45 -75v-30h45v-15l-60 -30l-15 45h-30v-15l15 -15v-15c-40.667 -10 -61 -30 -61 -60h-15l-15 15l-15 -15h-15l-15 15h-15v-15l15 -60
c-30 0 -45 -10 -45 -30l30 -30v-15h-15c-104 80 -174 120 -210 120l-60 -75l-120 135v15h45c0 30 -20 45 -60 45v60h-30c0 -26 -25 -46 -75 -60l-60 105c0 162.667 60 293 180 391v15l-30 30l-15 -15l-30 45v30l45 60l-15 15h-15l-30 -30h-15l-45 45v105
c0 110 15 165 45 165h30c20 0 30 -15 30 -45h45l15 45l-15 45l-75 -15v15c74.667 110 164.667 165 270 165zM374 1216c20 0 30 -15 30 -45h30l45 120c-48 0 -83 -25 -105 -75zM644 1201h45l30 30v15h-30zM404 990.999l-75 15c10 -44 35 -69 75 -75l30 -75h45
c36 0 76 20 120 60c-10 110 -40 165 -90 165c-70 0 -105 -20 -105 -60v-30zM179 855.999h15l30 30h-15zM254 795.999v-30h30l30 30h-60zM434 659.999v-30h15v30h-15zM479 629.999l30 -45l-15 -15h-15v15l-15 -15h-15l-30 30c-60 -20 -90 -40 -90 -60l15 -105h30v30h30
l45 -120h45c60 0 90 30 90 90c0 109.333 -30 174.333 -90 195h-15zM209 614.999v-15h30v15h-30zM704 614.999v-30l30 -30l15 15v15l-30 30h-15zM179 584.999c0 -22.667 25 -37.667 75 -45l30 45h-15l-15 -15h-15zM359 404.999v-30h30v30h-30zM404 329.999v-30h15v30h-15z
M930 314.999h15v-15l-30 -30h-15v15zM644 269.999v-30h45v30h-45zM134 239.999l15 -15v-15l-15 -15h-15l-15 15v15l15 15h15zM194 239.999h30v-30h-30v30zM870 224.999l30 -30h-30v30zM825 179.999v-15l15 15h30v-45h-45l-30 30l15 15h15zM554 119.999l30 -30h15v30h-45z
M449 89.999h15v-30h-15v30z" />
    <glyph glyph-name="nine" unicode="9" horiz-adv-x="1014" 
d="M575 1441c110 0 165 -35 165 -105l15 15h45v-15l-30 -90l61 -15v45h45v-30l-30 -45l15 -75h15l15 15h15c0 -20 15 -30 45 -30l15 -15v-30c0 -30 -20 -45 -60 -45v-15l60 -135h-60v-15c0 -20 15 -30 45 -30l15 -15v-30l-15 -15v-15h45v-30l-45 -76l15 -45l-15 -15h-60
c-20 0 -30 20 -30 60h-15l-15 -15h-15l30 -90l-61 -15v-30c40.667 0 61 -10 61 -30v-15c0 -20 -15.333 -30 -46 -30l16 -15v-30h-16l-45 15l-45 -90l15 -45l-30 -30c30 0 45 -10 45 -30l-30 -30l-60 15l-30 -120h-45l-165 -30h-30l-15 15h-15
c64.667 150 129.667 225 195 225l30 30l45 -45h15l30 30l-135 75c0 33.333 15 68.333 45 105v15l-75 -15c0 43.333 -20 73.333 -60 90v15h-15l-45 -30l-60 15v-15l30 -45l-45 -30l-75 105l30 30c-20 0 -30 15 -30 45h-45l-45 -30h-15l-30 211c20 0 30 15 30 45l-15 165
c6 90 16 135 30 135l45 -15v45c0 124 115 204 345 240h45zM440 1096v-30c40 0 60 -10 60 -30l-60 -120v-45l30 -45l-30 -30v-30l15 15h15l60 -30c80 0 120 55 120 165c0 77.333 -60 137.333 -180 180h-30zM785 946v-75l31 -30h15v15l-15 45h15l-15 45h-31zM335 931v-30h30z
M846 916v-30h15v30h-15zM891 736l30 -31v31h-30zM215 615l15 -45h-15l-30 30l15 15h15zM395 480h60v-30h-30zM891 480l30 -30h-30v30zM545 255v-30c30 0 45 -15 45 -45h15v45zM800 270l16 -15v-15l-16 -15h-15l-15 15v15l15 15h15zM125 225h30v-30h-30v30zM695 135h30
c-12 -80 -32 -120 -60 -120l-15 15v15c30 26 45 56 45 90z" />
    <glyph glyph-name="colon" unicode=":" horiz-adv-x="557" 
d="M296 1017h56c84 0 135 -74.333 153 -223l-14 -13h-14l14 -14v-42c-34 -74 -103.667 -111 -209 -111c-102 33.333 -153 98 -153 194c28 139.333 83.667 209 167 209zM268 892v-14h28v14h-28zM324 683v-28h42l-28 28h-14zM268 391h111c39.333 0 81.333 -74.333 126 -223
l-28 -27l14 -14v-14c-9.33301 -37.333 -28 -56 -56 -56l-42 14v-14l14 -42l-14 -13h-41l14 13v42h-28c-18.667 0 -28 -23 -28 -69h-14c-86 0 -141.667 64.667 -167 194c0 82 46.333 151.667 139 209zM254 266v-14h42v14h-42z" />
    <glyph glyph-name="semicolon" unicode=";" horiz-adv-x="557" 
d="M309 1031c70.667 0 121.667 -65 153 -195h-14l14 -14v-14c0 -120 -74 -184.667 -222 -194c-92.667 36 -139 87 -139 153v83c0 102 69.333 162.333 208 181zM226 892v-14h28v14h-28zM295 683v-28h28v28h-28zM170 377h250.998l27 -28l-55 -97l14 -14v-28l-28 -28l14 -14
v-13l-42 -42l-28 28h-14l-14 -42c24.667 0 43.334 -32.333 56.001 -97c-37.333 0 -56 -42 -56 -126l-13 -14h-70l-14 14h-14l-28 -28h-83l-14 14h-14c64.667 343.333 106.334 515 125.001 515zM350.998 294v-28h28v28h-28zM336.998 224v-56h14l14 56h-28zM155.998 43
c0.666992 -24.667 33.333 -52.333 98 -83v14l-14 41l28 28c-28 0 -42 18.667 -42 56z" />
    <glyph glyph-name="semicolon" unicode="&#x37e;" horiz-adv-x="557" 
d="M309 1031c70.667 0 121.667 -65 153 -195h-14l14 -14v-14c0 -120 -74 -184.667 -222 -194c-92.667 36 -139 87 -139 153v83c0 102 69.333 162.333 208 181zM226 892v-14h28v14h-28zM295 683v-28h28v28h-28zM170 377h250.998l27 -28l-55 -97l14 -14v-28l-28 -28l14 -14
v-13l-42 -42l-28 28h-14l-14 -42c24.667 0 43.334 -32.333 56.001 -97c-37.333 0 -56 -42 -56 -126l-13 -14h-70l-14 14h-14l-28 -28h-83l-14 14h-14c64.667 343.333 106.334 515 125.001 515zM350.998 294v-28h28v28h-28zM336.998 224v-56h14l14 56h-28zM155.998 43
c0.666992 -24.667 33.333 -52.333 98 -83v14l-14 41l28 28c-28 0 -42 18.667 -42 56z" />
    <glyph glyph-name="question" unicode="?" horiz-adv-x="822" 
d="M408 1425c97.333 0 194.333 -58.333 291 -175l29 -29v-14c0 -20 -19.333 -30 -58 -30v-58h29c0 29.333 9.66699 44 29 44l15 -15v-14l-30 -29c39.333 -5.33301 59 -20 59 -44v-43c0 -20 -29.333 -30 -88 -30v-29c48.667 -2.66699 73 -17 73 -43v-15l-44 -43l15 -44
c-29.333 0 -44 -19.333 -44 -58c-17.333 0 -75.333 -58.333 -174 -175h-15l15 -14v-15c0 -50 -24.333 -88.667 -73 -116c0 29.333 -9.66699 44 -29 44v-44h-116v15l14 72h-14c-19.333 0 -29 -14.333 -29 -43l-15 -15h-14l-29 73l14 14h29c58.667 0 88 -29 88 -87h29l29 29
v15c-38.667 0 -58 34 -58 102l-44 -30h-44l-29 30v14c136 183.333 204 309.333 204 378c0 40.667 -24.333 74.667 -73 102c0 37.333 -24.333 76 -73 116l-58 -73l15 -14l14 14h29l29 -29c0 -14.667 -19.333 -29 -58 -43l-29 29l-29 -29l-58 43v189
c45.333 78 137.333 117 276 117zM248 1323v-44h29l-14 44h-15zM321 1308v-29h15v29h-15zM277 1265v-15h29v15h-29zM205 1250v-14l14 -15v-14l44 14v15zM626 1236v-44h29v44h-29zM684 1090v-14h29v14h-29zM190 1047v-15l-29 -29l-14 15v14l14 15h29zM481 640v-29h14v29h-14z
M437 611v-15h29v15h-29zM365 581l29 -58h43v15l-43 43h-29zM394 392l58.001 -0.000976562c39.333 -26.667 73.333 -84.667 102 -174v-44c0 -77.333 -29.333 -116 -88 -116c-26.667 -38.667 -60.334 -58 -101.001 -58h-15c-19.333 0 -29 24.333 -29 73l-15 14h-29v-43h-14
c-48.667 24.667 -73 63.334 -73 116.001v58c0 19.333 19.333 29 58 29v15l-29 43l15 15h14l44 -15l-15 15v29c6 28.667 45 43 117 43zM306.001 304.999h30v29zM466.001 246.999v-42.999l58 -15c-6.66699 29.333 -26 48.666 -58 57.999zM248.001 204v-15h29l15 44h-15z
M306.001 218l30 -29v29h-30zM379.001 87l29 -29c0 19.333 14.667 29 44 29v15h-15z" />
    <glyph glyph-name="A" unicode="A" 
d="M377 1448l15 -15l106 15h151l45 -30h75v-15l-15 -15v-15h30v-31l-45 -15l15 -15v-45l-15 -15l15 -75h30l46 30l15 -46l-15 -15v-15l30 -151h-30v61l-61 -30l-45 15v-15l91 -76v-15l-16 -45h46v45l30 -30v-60l-45 30l-31 -45c0 -30.667 35.333 -46 106 -46l15 -75h-15
c-30 0 -45 -10 -45 -30l15 -46l-15 -90v-30h15l15 15l15 -15h30l-30 60l15 15v15l-30 76h15c30 0 50 -80.667 60 -242l-15 -15l30 -30l-15 -15v-15l15 -15l-30 -30v-15c0 -20.667 15.333 -31 46 -31l15 -15v-15l-31 -30h31v-30c-30.667 0 -46 -10 -46 -30l61 -15l-15 -61
l15 -45h-151l-60 15l-121 -30c-30 26.667 -55.333 102 -76 226l-15 15h-15l-15 -15h-15l-45 15l-91 -15v30h-15l-30 -30v-15l15 15h30c0 -60 -20 -90 -60 -90v-15l30 -46v-30c0 -20 -65.333 -35 -196 -45l-60 30l-121 -15l-15 15v30c50 332 90.333 498 121 498l-15 45l15 15
v16l-15 15v15c64 392 104 588 120 588l-15 15v15c0 110.667 55.333 166 166 166zM287 1312v-75h45v15l-30 60h-15zM558 1267v-30h30v30h-30zM769 1101v-15h30v15h-30zM468 950l30 -135l-61 -151l31 -76h105l-45 317v91h-15zM724 799l30 -30v30h-30zM784 588h31v30zM860 422
h15l30 31v15zM347 332v-15h60v15h-60zM528 332l-30 -45v-15c40 14.667 60 29.667 60 45l-15 15h-15zM920 166h15l30 30h-15zM317 121v-30l30 30h-30zM965 106v-31h31v31h-31zM875 91l-15 -46h15l30 30v16h-30z" />
    <glyph glyph-name="B" unicode="B" horiz-adv-x="1039" 
d="M159 1433h60l15 -15l15 15h226c103.333 0 224 -35.333 362 -106l-15 -15v-30h30v-15l-15 -15l31 -60l45 15v-15l15 -61l-15 -45h15l30 -30v-76l-15 -75h-30l-15 15h-15v-45c30 0 45 -10 45 -30c-34 0 -64.333 -25.333 -91 -76v-15c90.667 -94.667 136 -180 136 -256
l-15 -15l30 -30v-16l-30 -45v-15c30 0 45 -10 45 -30c-20 0 -30 -20 -30 -60l-15 -15h-15l-30 30c0 -30.667 -20.333 -46 -61 -46v-30l61 -15c-10 -70 -25 -105 -45 -105l-46 45c-30 0 -45 -15 -45 -45h-30l-15 15h-15v-30c-30.667 0 -46 -20.333 -46 -61l-105 -15l-30 30
v15l60 15l45 -15v15l15 46l-166 -76l-15 15h-45c0 -25.333 -25 -40.333 -75 -45l-15 15h-15l-91 -15l-15 15l-30 -30h-106l-30 30v106l15 60l-15 60l15 16l-15 75v136l15 196l-15 45l15 241v257c0 20 40.333 35 121 45v-30h-30l30 -30l75 30v30c-30 0 -45 20 -45 60l-91 -60
h-30l-30 30v91c10 30 40.333 45 91 45zM626 1267l30 -30l15 15v15h-45zM506 1131c0 -30 -20.332 -44.999 -60.999 -44.999l-15 -45l15 -15v-15l-30 -31l-30 31l-30 -31c43.333 0 78.333 -30 105 -90c55.333 0 105.666 25 150.999 75
c-18.667 71.333 -53.667 126.666 -105 165.999zM355.001 1071v-30h30zM852.001 996.001v-31h16v31h-16zM883.001 996.001v-31h30v31h-30zM430.001 664.001l15 -76v-15l-30 -120l15 -76h60c70.667 0 106 35.333 106 106v60l-121 91v45zM204.001 649.001v-15l45 -46h60v15
c-30 0 -45 15.333 -45 46h-60zM128.001 603.001v-15c40.667 0 61 -15 61 -45h45v15l-45 45h-61zM913.001 573.001v-30h15v30h-15zM355.001 422.001v-30h45v30h-45zM913.001 422.001v-45l30 30v15h-30zM309.001 392.001l31 -30v30h-31zM898.001 332.001v-15h15l30 30v15h-15z
M822.001 272.001h29.999l16 60c-15.333 0 -30.666 -20 -45.999 -60zM943 256.001h15v-30h-45zM219 75.001l60 -0.000976562v46c-40 -15.333 -60 -30.666 -60 -45.999z" />
    <glyph glyph-name="C" unicode="C" horiz-adv-x="864" 
d="M455 1425h147.001c118 -28 177 -57.333 177 -88l-15 -132l15 -44h-30l-14 14h-15l-15 -59h-15l-14 15h-15c0 -19.333 -14.667 -29 -44 -29l15 -15v-15l-15 -14h-15l-14 44h-59c0 -49.333 -14.667 -74 -44 -74l-59 15c0 -19.333 14.667 -29 44 -29v-15l-29 -29
c-24.667 0 -39.334 19.333 -44.001 58h-44c0 -29.333 -10 -44 -30 -44l-14 15l-30 -44h15l88 15l29 -30c0 -107.333 -24.333 -161 -73 -161v-15c29.333 -36 44 -70.333 44 -103v-15l-44 -58h15l14 14h15c0 -93.333 63.667 -161.666 191 -204.999c55.333 0 119 39 191 117h15
l14 -59l-29 -88l15 -14v-15l-30 -44l30 -44c-10 -49.333 -29.667 -74 -59 -74v-14c0 -20 14.667 -30 44 -30v-44h-88v30l-74 -30l15 -73l-15 -15h-14l-15 15l15 14v30l-74 14h-15v-44h-14c-59.333 49.333 -103.333 74 -132 74c0 -22.667 -24.667 -37.334 -74 -44.001
c-103.333 100.667 -167 179 -191 235v15l15 14v15c-68.667 0 -103 117.333 -103 352c0 306.667 93 532 279 676c67.333 39.333 126 59 176 59zM544.001 1175v-44h29v44h-29zM617.001 1175v-29l29 29h-29zM749.001 1116l30 -29v-103h-15c-68.667 34 -103 58.667 -103 74v29
l74 -15h14v44zM309.001 926v-30l58 -29v59h-58zM309.001 705v-29h29zM544.001 44l14 -15v-14l-14 -15h-15l-15 15v14l15 15h15z" />
    <glyph glyph-name="D" unicode="D" horiz-adv-x="1111" 
d="M99 1433h446.999c164 0 246 -46.333 246 -139h-15c16.667 -58 57.667 -129.667 123 -215l77 15c30.667 0 51.334 -41 62.001 -123l-62 -31l31 -31l46 16v-16l-15 -62l46 -46l-62 -61l-46 15c41.333 -51.333 72.333 -77 93 -77v-15l-47 -47l-15 16l15 15v31h-15l-46 -15
l-16 15l-15 -15v-16l31 -31l-47 -154l16 -46l-46 -92l-16 15h-46l15 -15v-31c-51.333 0 -77 -10.333 -77 -31l47 -46l-16 -16v-15l31 -31v-15c-30.667 0 -46 -10.333 -46 -31l15 -16l-138 -77l-16 77h-31c0 -61.333 -10.333 -92 -31 -92l-15 15l-15 -15l-16 62h-15l-16 -16
h-15l-46 46l-16 -15l-15 15c-30.667 -26 -46 -51.667 -46 -77h-31c0 31.333 -10.333 47 -31 47c-32 0 -68 -20.667 -108 -62l-15 15h-16l-61 -15l-31 31v1371zM344.999 1217l-15 -15v-16h46zM884.999 1217l30 -31l-15 -15h-15l-31 31l15 15h16zM391.999 1156v-16h30v16h-30z
M437.999 909l15.001 -92.001l-15 -16v-15l15 -62v-46l-92 31l-16 -77l31 -31l-15 -15h15l-15 -16v-108h46c0 51.333 10.333 77 31 77l15 -15v-16l-15 -61l15 -16v-15l-15 -46h15c154 20 231 127.667 231 323v31l-30 185l30 31v15l-92 62c0 34.667 -25.667 60.334 -77 77.001
c-46.667 0 -72.334 -61.667 -77.001 -185zM361 1063v-15l31 -31h15v31zM915 1032l-92 -76.999l15 -92l108 62v15l-77 -15c0 15.333 20.667 30.666 62 45.999l15 15v16l16 -16h46v31zM315 955v-15h30v15h-30zM376 955l31 -30v30h-31zM315 832h30v31zM376 832v-62l31 31z
M176 647l-31 -61l46 -31c0 30.667 10.333 46 31 46v-46h15l31 31zM438 663l15 -16v-46l-31 -31h-15v62zM1023 539h31v-15h-31v15zM977 478h16v-31h-16v31zM376 416v-46h16l30 31v15h-46zM977 370h16v-46l-78 -77h-46l-31 30c44 0 90.333 31 139 93zM114 293v-46h46v15
l-30 31h-16zM607 277v-15h31v15h-31zM623 247l31 -31l30 31h-61zM869 200h31v-31h-31v31zM669 139v-16l31 -31h15v47h-46zM530 77h31v31z" />
    <glyph glyph-name="E" unicode="E" horiz-adv-x="781" 
d="M83 1433l610.001 -0.000976562l46 -46v-30l-30 -46l15 -46l-31 -30l31 -46l-76 -15l76 -92v-15h-31l-45 31h-16c0 -30.667 -10 -46 -30 -46l-46 46l-15 -16h-15l-46 16c-28.667 -51.333 -69.334 -77 -122.001 -77l30 -30l46 15v-76c0 -20.667 51 -36 153 -46v-15l106 30
l16 -15v-107l-31 -121l-76 45l-15 -15v-15l15 -61l-76 15l-31 -30h-15v45h-15l-61 -15l-46 15l-31 -45h16l15 15h15l15 -15v-16c-20 0 -35 -35.333 -45 -106c40.667 0 61 -15.333 61 -46l30 -92l92 31h30l46 -46c0 -20 -15.333 -30 -46 -30v-16l76 -30h16v15h-31v31h15
l46 -16l-15 16v30l30 31l31 -31l-15 -15v-15l15 -61c0 -20.667 -15.333 -31 -46 -31v-46h31v-45h-16l-15 15h-15c0 -20.667 -30.667 -36 -92 -46v-15c40.667 -5.33301 61 -20.666 61 -45.999l-15 -15l-15 15h-46l-15 -15h-15l-16 15v15l46 16l-30 30l-61 -46h-16l-61 46
l-30 -30l-31 30l-15 -15l-15 15h-15l-46 -30l-46 15l-30 -31h-16v31h-15v-31l15 -15h-61l-30 31v1357zM663.001 1311v-30h15v30h-15zM556.001 1250v-30h15v30h-15zM373.001 1143l-15 -61v-15h15l31 61l-16 15h-15zM99.001 1052v-15l45 -46v30l-30 31h-15zM175.001 1006v-30
h30l16 61h-16zM144.001 959.999l31 -30h15v30h-46zM343.001 944.999v-30h15v30h-15zM373.001 944.999v-30h15v30h-15zM129.001 898.999v-15l76 -30v45h-76zM99.001 868.999v-31l30 31h-30zM678.001 609.999l31 -31v-30h-61v30zM480.001 563.999h30v-15h-30v15z
M327.001 380.999l61 -46v77h-30zM129.001 289.999l31 -31h61v31h-92zM343.001 289.999v-16h30v16h-30zM419.001 289.999v-16h30v16h-30z" />
    <glyph glyph-name="F" unicode="F" horiz-adv-x="789" 
d="M92 1441h628.001l31 -31l-15 -153l15 -77l-61 -46c40.667 -4.66699 61 -20 61 -46v-15l-31 -31h-15l-46 46l-123 -15l-46 15v-30h-30l-62 46l-92 -92l62 -31v-46h-31v-15l31 -31l15 46l92 -31h215c22.667 0 43 -35.667 61 -107l-31 -61l16 -77v-30l-31 -46l31 -31
l-31 -31h-31c-16.667 0 -37 36 -61 108h-15l-77 -16v-30l31 -46l-16 -16h-15c-20.667 0 -31 20.667 -31 62h-30l15 76h-46l-46 -46l15 -61c-30.667 -10 -46 -40.667 -46 -92c51.333 0 77 -46 77 -138l-15 -15h-16l16 -16v-15l-31 -31h-46l31 31l-16 15v31h46v15l-30 46
l15 16v15c-30.667 0 -46 15.333 -46 46l-31 -31l31 -30l-61 -108v-15c0 -20.667 20.333 -31 61 -31v-15l-31 -31c0 -30.667 25.667 -46 77 -46v-30c-40.667 0 -66.334 -25.667 -77.001 -77h16l107 46v-46l-46 -46l-46 31l-31 -31l-46 31l-15 -16l-15 16v15l15 15l-15 16h-16
l-107 -77h-15l-31 31v1379zM352.001 1349c0 -40.667 -20.334 -61 -61.001 -61v-31c30.667 0 56.334 -25.667 77.001 -77l46 16l15 -16l61 92c-40.667 0 -61 10.333 -61 31l15 46l-15 -15h-46l-15 15h-16zM92 1288l30 -31h31v31h-61zM567 1272v-30h31v30h-31zM644 1272
l-16 -46h16l30 31v15h-30zM368 1012h46l-31 -31h-15v31zM659 598h31l15 92c-30.667 -10 -46 -40.667 -46 -92zM138 613v-30h46l-31 30h-15zM306 583l16 -16h46v46h-31zM567 567h15v-30h-15v30zM414 230l15 -15v-16h-46z" />
    <glyph glyph-name="G" unicode="G" horiz-adv-x="1039" 
d="M648 -64c-51.333 0 -76.999 10.001 -76.999 30.001l16 16h15l15 -16h16l15 78h-15l-46 -31l-16 46c-34 -10 -54.667 -30.667 -62 -62l16 -46l-16 15h-15l-16 -15c0 41.333 -30.667 62 -92 62l-31 31l-15 -16h-31l-16 16l-15 -16h-31l15 16v15l-30 31h-16l-15 -16h-16
l-15 16v15l15 47h-15l-93 92l16 16v31c-54.667 0 -85.667 138.667 -93 416c0 123.333 25.667 185 77 185v31h-31v31h47l-16 16v77c6.66699 61.333 22 92 46 92l16 -15h15c52 174.667 129.333 262 232 262c0 18.667 61.667 29 185 31h46c20.667 0 31 20.667 31 62h31
c0 -51.333 31 -77 93 -77c82 -30 123 -55.667 123 -77v-62l-31 -31l-46 31h-46l-16 -62l31 -31l16 16h15l15 -16l16 16l15 -16l-15 -15v-16l31 -46l-16 -15v-16l16 -92l-16 -16h-15l-16 16v15l16 16l-16 46l16 46h-16l-15 -15h-15l-47 15v-31h31v-46l-92 62l15 15h-31v-11
l-46 11l-77 -15l-31 31h-16v-47c31.333 0 47 -10.333 47 -31c-31.333 0 -47 -15.333 -47 -46l-15 -15h-16l-46 31v-62h-15l-47 31h-92l77 -62l31 -31v-31h-16l-92 62v-46c51.333 -70 77 -126.667 77 -170l46 -16l-31 -46l16 -15v-16l-31 -31l-15 16
c0 -20.667 -15.667 -31 -47 -31v-31l16 15h46l31 -30l-16 -16h-15l-15 16l-16 -16v-15l16 -16h15l15 16l16 -16v-15l-16 -46h16l139 -62h31c61.333 51.333 92 123.333 92 216h-77v-62h-15l-31 31l15 15l-46 47v77l15 185h31l108 -15l31 15h293l31 -31v-15l-15 -62l15 -46
l-31 -62l31 -31c-26.667 -61.333 -52.334 -92 -77.001 -92v-16h16l46 16v-16c0 -52.667 -31 -114.334 -93 -185.001l31 -31v-15h-15l-47 15l-15 -15v-16c41.333 0 62 -10.333 62 -31v-61h-16c-20.667 0 -31 20.333 -31 61l-46 16l-31 -47l16 -15h-16l16 -15l-16 -78v-46h-31
l-15 16l-62 -31l16 -16l-13 -61h-34zM478.001 1232v-31l139 -62l16 78l-16 77zM293.001 1278v-15h31v15h-31zM417.001 1078v-16l31 -31h15zM139.001 923.001v-31h46l-31 31h-15zM123.001 862.001l31 -31v31h-31zM309.001 692.001v-31h31v31h-31zM154.001 599.001h-31
c0 31.333 -10 47 -30 47h-16v-31c30.667 0 46 -10.333 46 -31v-31l-77 15v-31l108 -15l16 15h15l47 -15l15 15v16h-93v46h31v62c-20.667 0 -31 -20.667 -31 -62zM571.001 615.001v-16l31 -31h31v31zM818.001 599.001l-31 -62l46 -46h31l16 46c-7.33301 31.333 -28 52 -62 62
zM77.001 476.001v-31h31v62zM154.001 476.001v-31h31v31h-31zM123.001 291.001v-31h31v31h-31zM525.001 167.001v-15h31v15h-31zM432.001 74.001v-46h46v16l-30 30h-16z" />
    <glyph glyph-name="H" unicode="H" 
d="M157 1432c184.667 -6.66699 277.002 -37.665 277.002 -92.998l-46 -15v-31l77 -77l-61 -16v-15c0 -20.667 15.333 -31 46 -31l15 -15v-31h-61l30 -47l-15 -46l15 16h16l15 -16v-15l-61 -62l15 -16h15l16 16c15.333 -41.333 30.666 -62 45.999 -62l31 31h108
c5.33301 41.333 20.666 62 45.999 62l-46 77v62l46 77l-30 31l108 61v16l-16 15h-15l-31 -31c-41.333 17.333 -62 53.666 -62 108.999l31 30h201l46 -46l-16 -62l16 -15v-16l-16 -46l93 -15v-31h-46l-16 15h-15v-31c10 -40.667 35.667 -61 77 -61l16 15l15 -15v-16l-77 -15
v-16h31v-30l-16 15h-62c31.333 -62 62.333 -93 93 -93v-15c-62 0 -93 -25.667 -93 -77h16l46 -31l47 15l-16 -15v-16l16 -15v-15l-31 -31l15 -77l-15 -47l-78 16v-16l16 -15v-16l-16 -46l78 -93l-31 -30c41.333 0 62 -26 62 -78l-16 -15h-15l-47 15l-31 -46v-31
c38.667 -3.33301 69.667 -24 93 -62v-30l-15 -16l31 -77h-16l-77 15v-15c0 -20.667 20.667 -31 62 -31l15 -15v-31l-31 -31l-46 62h-16c0 -31.333 -10 -47 -30 -47h-16l-139 16l-61 -16l-16 16v62l16 92l-16 46l16 16v15l-16 47l31 31c-20.667 16 -31 72.333 -31 169l-15 16
h-170l-16 -108l31 -31l-46 -46l15 -47h-30l-47 31l16 -77l-16 -62h16l46 16l15 -16v-62c-51.333 0 -77 -20.333 -77 -61l16 -16h31c0 31.333 10 47 30 47l31 -47l-31 -31h-15c-34.667 0 -70.667 15.667 -108 47h-31l16 -16v-15l-16 -16h-15l-62 16l-93 -31l-15 15v1390
c0 25.333 20.667 40.666 62 45.999zM959.002 1386h31l-31 -31v31zM249.002 1293l31 -31l16 15v16h-47zM944.002 1293h31v-31h-31v31zM743.002 1231v-31h31zM203.002 1000l-15.999 -78l16 -61l77 61c-6.66699 41.333 -32.334 67.333 -77.001 78zM882.003 845.002v-46l31 31
l-16 15h-15zM928.003 799.002l31 -31v31h-31zM897.003 737.002v-31h31zM944.003 676.002h31v30zM434.003 614.002v-47h31l47 31h30l47 -31h31v31l-93 31h-15zM388.003 382.002h31v31zM218.003 305.002c0 -20.667 -20.333 -31.001 -61 -31.001v-31
c30.667 0 46 -20.333 46 -61c72 34.667 108 60.334 108 77.001c-30.667 0 -46 15.333 -46 46h-47zM666.003 259.001v-31h31v31h-31zM913.003 197.001v-46h46v46h-46z" />
    <glyph glyph-name="I" unicode="I" horiz-adv-x="463" 
d="M77 1433h308l31 -31v-138h-31l15 15v15h-77v-30l16 -16v-15l-31 -31v-46l123 -31v-46h-61v-16l30 -46v-31c-40.667 0 -61 -30.667 -61 -92l61 46l16 -15v-16l-31 -31l-15 16v-47h15l15 16h16v-16c0 -20 -25.667 -30 -77 -30v-31l46 -16l46 16v-46
c-40.667 0 -61 -10.333 -61 -31v-16h30v-15l-15 -15v-16l15 -15v-16l-15 -46l31 -31v-15h-77l92 -108l-31 -62l16 -15c-41.333 -10 -62 -35.667 -62 -77h62v-31l-16 -15l16 -16v-15c0 -20.667 -15.333 -31 -46 -31v-15l30 -47v-15l-15 -15v-16l31 -31v-15h-16l-107 46v-46
h-31l-139 15l-62 -15l-15 15v16l15 92l-15 16v15c0 62 15.333 93 46 93v30c-30.667 0 -46 10.333 -46 31v570l46 47l62 -47h46l15 47l-15 46h-15l-108 -31l-31 169l15 93l-15 154v46zM354 1402l-31 -46h31l31 31l-15 15h-16zM154 324v-47h31l-31 -30l-16 15v-62l77 62v15
c-20 0 -30 15.667 -30 47h-31zM354 247l-15 -16v-15l15 -16h16l15 16v15l-15 16h-16zM246 62v-31h16v31h-16z" />
    <glyph glyph-name="J" unicode="J" horiz-adv-x="657" 
d="M274 1448l122 -0.00195312c51.333 -2.66699 77 -12.667 77 -30l15 15h106l31 -31l-31 -45v-31l16 -15v-15c-51.333 -13.333 -77 -28.666 -77 -45.999v-31h31l46 31l15 -15v-46l-15 -61l15 -46l-46 -15v-31l31 -45c0 -40 -25.667 -80.667 -77 -122v-15l46 -61v-31h-15
l-46 15l31 -91v-15l-31 -46c40.667 -10 61 -40.667 61 -92c-20 0 -35.333 -30.333 -46 -91h31l15 15h15l16 -15c0 -30.667 -20.333 -46 -61 -46l15 -76h-46c0 -20 15.333 -30 46 -30l15 -16v-30h-30l15 -46l-15 -76h-31v46h-30v-46h30c-15.333 -40.667 -30.333 -61 -45 -61
h-31l15 107l-45 -31h-31l-15 15h-15l-16 -15v-15c51.333 -13.333 77 -28.666 77 -45.999h-77l-15 15h-15l-31 -91h-76l-30 30l15 16c-112 46 -168 76.333 -168 91v15l15 77c-20 0 -30 15 -30 45l15 16l-15 76v76h30c54.667 -40.667 100.667 -61 138 -61
c40.667 10 61 40.667 61 92v274l15 320l-15 15l15 76v260zM503 1311h30v30zM305 974.998l30 -30h31v76h-15zM503 974.998l15 -15h46v46h-31zM503 258.998v-15h30v15h-30zM366 228.998l30 -31v31h-30z" />
    <glyph glyph-name="K" unicode="K" horiz-adv-x="1031" 
d="M653 1441h44.999l166 -30l15 15h15l15 -15c0 -50 -30 -75 -90 -75l15 -75l-60 -15c0 -20 15 -30 45 -30v-15l-30 -45c0 -20 15 -30 45 -30l-15 -45l30 -75l-15 -15h-15l-15 15l15 15v30l-61 -60v-30l31 -45c-15.333 -40 -30.666 -60 -45.999 -60l-15 15h-15l-45 -15v-15
c70.667 0 106 -15 106 -45l-46 -45h-15v30h30v30l-60 -30v-30c36 0 91.333 -115.333 166 -346c0 -20 -20 -30 -60 -30l15 -75l15 15h60l45 -45l-135 -30v-45l75 15h15l15 -75l-15 -15c81.333 -6.66699 126.333 -26.667 135 -60l-45 -30c-10 36 -45 61 -105 75
c-10 -60 -35 -90 -75 -90v-15c-160.667 0 -241 75 -241 225l-15 45l15 15c-32.667 0 -67.667 115 -105 345h-15l-45 -30h-15v30h-45v-30c0 -20 30 -30 90 -30v-15l-15 -75h-15c0 40 -10 60 -30 60h-30v-30l15 -60c-10 -52 -30 -92 -60 -120l15 -60l-15 -45
c18.667 0 43.667 -30 75 -90l-15 -15v-15h15l45 45l-30 30l30 30l15 -15v-135l-30 -30h-30l15 15v45h-30v-60h-45l-60 -15l-90 45c0 -30 -10 -45 -30 -45h-15c-20 0 -35 55 -45 165h15l-15 15l15 75v931l30 30l45 -30h30l15 45l-15 45h-45v-30h-60v135l30 30h180l45 -45
l-15 -15v-15l30 -75h-15c-30 0 -45 -10 -45 -30v-15l45 -60l-30 -45v-15h15l15 15h15l60 -15v-15l-30 -30l-30 30h-15l15 -15v-15c-4.66699 -40 -19.667 -60 -45 -60v-30h30v-60h-30v-30c30 0 45 -10 45 -30l-15 -15l45 -30h15l15 45h-45l15 75l-15 15l15 15h15l-15 75v15
h30l30 -30l-15 -75h45c94 330 159 495 195 495zM938.999 1426l30 -30h-30v30zM607.999 1231l30 -30h30v30l-30 30zM893.999 1246h30v-75h-30v75zM367.999 1231h30v-30h-30v30zM322.999 1006h15v-30h-15v30zM172.999 585v-15h30v15h-30zM803.999 435v-45h15v45h-15z
M382.999 435h30v-30h-30v30zM352.999 360c30 -6 45 -46 45 -120v-15h-30l-45 75c20 0 30 20 30 60zM742.999 300v-30h46l-31 30h-15z" />
    <glyph glyph-name="L" unicode="L" horiz-adv-x="811" 
d="M115 1433c172.667 -6.66699 259.001 -16.667 259.001 -30c0 -20.667 15.333 -31 46 -31v-30h-31v-16l61 -122l-15 -15h-15c-20.667 23.333 -31 59 -31 107l-61 -76c16.667 0 37 -35.667 61 -107h15l16 15l15 -15l-46 -107l-15 15h-31c0 -27.333 -15 -57.666 -45 -90.999
c32.667 0 58 -40.667 76 -122h30v15l-15 15v16h31v-31l15 -15l-15 -15h-31l15 -16v-15h-76v-30l61 -15l-15 -16v-30h30v46h16l15 -16h15c-7.33301 -60.667 -17.333 -91 -30 -91l30 -153l-15 -15l-15 15h-16l-91 -30v-31l107 31c0 -18.667 45.667 -34 137 -46l61 15h30
l16 -15l15 15h61l15 -15h15l-30 -198l15 -15v-16c0 -82 -40.667 -132.667 -122 -152c0 20 -15.333 30 -46 30c-20 40.667 -50.333 61 -91 61v-30h-76l-46 -31l-15 16h-16v-31h-30c0 33.333 -10.333 58.666 -31 75.999v16h-30c-39.333 -44 -90.333 -79.667 -153 -107l-30 91
v153l15 15l-15 15v641l15 15l-15 15v153l30 45l-30 31v15l30 31l46 -46h15c3.33301 50.667 18.666 76 45.999 76l-15 61h-76c0 -30.667 -10.333 -46 -31 -46l-15 16v106zM191.001 1159v-31h15v31h-15zM328.001 1143v-30h31zM450.001 1037v-31l-46 -46h-15v46l15 -15h16
c0 30.667 10 46 30 46zM404.001 762h31v-30zM115.001 610v-31h30c0 -30 10.333 -45 31 -45l30 61v30h-15zM359.001 625v-15l30 -31v46h-30zM343.001 534c0 -20.667 -15 -31 -45 -31l-16 -15v-15l16 -16h15l46 46h15v31h-31zM633.001 351v-46l31 30l-16 16h-15zM618.001 229
l30 -31h16l-31 31h-15zM557.001 213v-30h15v30h-15zM328.001 152v-45l76 15v30h-76zM587.001 122v-15l31 -31v15z" />
    <glyph glyph-name="M" unicode="M" horiz-adv-x="1361" 
d="M80 1451l122.998 -0.00195312l217 -15l46 15c72 -10 108 -25.333 108 -46v-15c-30.667 0 -46 -10.333 -46 -31c44.667 0 75.334 -67 92.001 -201h-46v31h-31c0 -62 20.667 -93 62 -93v-15l-62 -62l15 -15l-15 -78v-46h15l16 15h15l-15 16v46l15 16v15
c19.333 0 45.333 -31 78 -93v-15l-47 -62h16l15 16h16l15 -47h15c34 268 65 422.667 93 464l-15 15v15c12.667 103.333 33 155 61 155h108c237.333 0 356 -15.333 356 -46c-41.333 0 -62 -31 -62 -93c-41.333 -5.33301 -62 -20.666 -62 -45.999l46 -47v-15l-46 31l-15 -16
v-15c92 -50.667 138.333 -86.667 139 -108l-16 -16h-31l-46 31l-16 -92c37.333 -52 68.333 -78 93 -78v-15l-15 -16v-15c20.667 0 36 -31 46 -93l-15 -15h-16l-46 123h-31v-15l15 -77c-37.333 -51.333 -68 -77 -92 -77v-31l77 -16v62h15l31 -31v-31l-46 -46l46 -77l-15 -47
h31v31h31v-15l-31 -62l15 -46h-15l-16 15h-15l-47 -15v-16c0 -82 20.667 -123 62 -123l-15 -77l15 -16c-44.667 0 -75.334 -25.667 -92.001 -77h-47l16 -15v-31l-31 -31l-46 31c0 -41.333 -10.333 -62 -31 -62h-47l-46 31l15 463v201c-20 0 -30 -41.333 -30 -124
c-17.333 0 -33 -41 -47 -123l-77 -31v-16c0 -20 20.667 -30 62 -30v-31c0 -79.333 -20.667 -125.666 -62 -138.999l16 -16v-15l-31 -46l31 -47l-16 -15v-16l16 -15l-16 -16h-15l-78 47l-30 -31c-20.667 0 -31 15.333 -31 46l-31 -31l15 -15l-15 -16h-47
c-27.333 0 -47.666 72.333 -60.999 217l46 46c-51.333 0 -77 92.667 -77 278c-13.333 0 -23.666 30.667 -30.999 92c-41.333 0 -62 15.667 -62 47l16 46c-20.667 0 -31 15.333 -31 46h-16c0 -40.667 -10.333 -61 -31 -61l109 -155c0 -20.667 -15.667 -31 -47 -31v-15
c31.333 -38 47 -74 47 -108h-16l16 -16v-15l-62 -62l-47 16l-30 -47l30 -46l-15 -77l77 -62v-15h-15l-47 15l-77 -93l-46 31h-31l-62 -46h-15l-31 31v509l15 62l-15 62v463c0 16.667 46.333 52.667 139 108l-15 77l15 16l-15 15l-16 -15h-31l-77 92zM1083 1359v-16h31v16
h-31zM1099 1281h31v31zM357.998 1251v-31h15l31 31h-46zM1006 1204v-15h31v15h-31zM326.998 1096v-31h31v31h-31zM310.998 1019l-46 -139l77 -31h16l31 62v31h-31v31h31v15l-31 31h-47zM1037 987.998v-31h-15l15 -46l16 15h92v31c-48 0 -84 10.333 -108 31zM1269 987.998h31
v-15h-31v15zM805.998 956.998v-31h30l31 31h-61zM882.998 817.998l61 -15v15l-30 31zM341.998 833.998v-31h16v31h-16zM372.998 833.998v-31h16v31h-16zM280.998 802.998v-31h15v31h-15zM882.998 740.998l31 -31h30v31h-61zM403.998 725.998l31 -31v31h-31zM295.998 663.998
v-16h31v16h-31zM1053 663.998v-16h30v16h-30zM1269 647.998h31v-30h-31v30zM326.998 570.998l15 -15h16v46zM156.998 570.998v-31h31v31h-31zM1053 570.998v-31h15v31h-15zM1161 508.998v-30h77l-31 77zM341.998 478.998l-15 -108h46l16 46l-16 62h-31zM1068 339.998v-16
l15 -15v-16l-15 -15l-15 15h-31l15 -108l46 31l47 -15v15l46 46h15v-30h16v30l-108 31v16c30.667 0 46 25.667 46 77zM1284 370.998h16v-31l-31 -31l-31 31zM774.998 339.998l-16 -62l47 -31v15l-16 62l16 16h-31zM341.998 292.998h31v-31h-31v31zM542.998 215.998v-31h31z
M1269 138.998h15v-31h-15v31zM357.998 61.998h15v-47h-46v16zM1222 45.998l31 -31l-15 -15h-31l-31 31l15 15h31z" />
    <glyph glyph-name="N" unicode="N" 
d="M106 1433l228 0.00195312c20.667 0 31 -20.333 31 -61l46 31h15l15 -61l-46 -31l-45 31l-16 -92l92 -46c0 30.667 15.333 46 46 46v15c-30.667 0 -46 10.333 -46 31c0 23.333 25.333 38.666 76 45.999l31 -168h-46v-46c31.333 0 67 -30.333 107 -91l-16 -16l-15 16h-30
l-16 -107v-31l77 -30l15 15v-30h-46v-16l15 -15v-15c65.333 0 101 30.333 107 91l-15 16l30 30v15l-45 77l15 15v15l-15 15v16c0 91.333 25.333 137 76 137v30c-40.667 0 -61 10.333 -61 31l15 61l-15 61l15 15h183c0 -40.667 15.333 -61 46 -61
c10 -50.667 30.333 -76 61 -76v-46h-46c-25.333 0 -40.666 20.333 -45.999 61h-61l-15 -61l15 -46h46l46 31l15 -15l-15 -46l45 -76l-30 -31l46 -76l-31 -31l31 -30v-15c-23.333 0 -43.666 -20.333 -60.999 -61v-16c50.667 0 76 -10 76 -30l-15 -15h-16l-61 15v-30l77 -16
v-15l-46 -91l30 -31l-15 -15c6.66699 -61.333 27 -92 61 -92v-30h-76v-31c30.667 0 46 -10 46 -30c-54 -48.667 -89.667 -94.334 -107 -137.001v-16c0 -20 25.333 -30 76 -30l15 -15v-31l-30 -46l30 -30c-20.667 -4.66699 -41 -30 -61 -76l-15 15h-30
c0 -40.667 -10.333 -61 -31 -61l-45 15l-46 -15l-15 76l-46 -30l-92 76v46l31 45c-32.667 0 -78.334 101.667 -137.001 305l-16 138c-74.667 -8 -125.334 -23.333 -152.001 -46l-61 30l15 16v61h-15c-20.667 0 -31 -15.333 -31 -46h-30c0 30.667 -10.333 46 -31 46h-15v-31
l31 -46l-16 -15l-15 15h-15l-31 -30v-15h77v-16l-31 -45v-31h15c20.667 0 31 15.333 31 46h30c0 -40.667 10.333 -61 31 -61h15v30l-30 46l15 15h15l15 -15l16 15h30l15 -106l-45 -107l45 -46v-15l-30 -92l30 -30l-122 -122l-45 46l-31 -31l15 -15v-15l-15 -16h-46l-30 31
v152l46 46h15v-15l-31 -46l46 -30l137 106c-40.667 0 -61 15.333 -61 46l31 46v15l-46 15c0 -30 -10 -45 -30 -45l-46 45l-15 -15v-15l15 -61h-15l-46 46v198l15 61l-15 61v213l46 46l15 -15v-16l-31 -30l46 -15c0 30 10.333 45 31 45c20 0 30 -15 30 -45h61v30
c-30.667 0 -46 10.333 -46 31v15h31l15 -15h15v45h16l30 -30v-15h-30v-16l76 -30l15 15v15l-30 77l30 30l-61 31l-91 -77h-31v16l31 76h-46v-31h-31v31h-45l15 -76h-31l-30 30v198l30 31c0 -50.667 10.333 -76 31 -76l46 45h15c0 -30 10 -45 30 -45h16l45 122l-61 15l16 76
l-16 15h-15l-30 -30l-46 30h-15v-76h-16l-30 31v45zM959 1372h16v-30h-16v30zM151 1281h16v-31h-16v31zM975 1113h45l-30 -31l-15 16v15zM258 1052h46v30h-15zM853 960.002l15 -15h15v46zM578 960.002l31 -30l-31 -31h-15zM822 945.002l31 -30v30h-31zM334 823.002l31 -30
h15v61h-15zM289 808.002v-30h15v30h-15zM609 762.002l30 -30h16l-16 61zM304 762.002v-76c60.667 10 91 25.333 91 46l-30 30h-61zM624 701.002c-14 -60.667 -39.333 -91 -76 -91v-15c50.667 0 76 -15.333 76 -46l-15 -46l15 -15h15l16 46h30v-31h31v15l-16 46l61 31v15
c-40.667 0 -61 20.333 -61 61zM639 625.002h31v-30h-31v30zM350 595.002h30l31 -31v-15l-16 -15l16 -16v-30h-31l-30 61v46zM350 396.002h30v-30h-30v30zM563 351.002l15 -16l46 16l-30 30zM685 305.002v-46l31 31l-16 15h-15zM944 320.002h15l-30 -30h-15zM197 198.002v-30
h15v30h-15zM365 76.002l46 -46h-16l-30 31v15zM914 30.002h30v-30h-30v30z" />
    <glyph glyph-name="O" unicode="O" horiz-adv-x="1187" 
d="M569 1433l77 -0.000976562l76 -61h15l46 31l76 -77v-30l-15 -61l137 -168h15c0 30.667 10.333 46 31 46l15 -15l-15 -16v-15l15 -46h-46v-30h61v-31c-40.667 -4.66699 -61 -19.667 -61 -45l46 -77l-15 -15v-15l15 -15h15l-15 -15v-31h46c0 30.667 10 46 30 46l15 -15v-16
c-6 -30 -41.333 -45 -106 -45c0 -20.667 15 -31 45 -31l16 -15v-15h-77l61 -92l61 46h16v-15c0 -26.667 -35.667 -47 -107 -61l-15 15l-16 -15v-16l31 -30l-15 -15l-16 15h-30v-31l46 -15l-16 -15v-31h16l61 46l15 -15v-15c0 -18 -45.667 -43.667 -137 -77l-16 16
c-32.667 -51.333 -73 -77 -121 -77v-30l76 -31v-30l-16 15h-30v-30l-15 -16l15 -15h15c0 -26 -45.667 -46.333 -137 -61v-15h31v-31h-16c-27.333 0 -42.333 25.667 -45 77c-40.667 -15.333 -61 -30.666 -61 -45.999l15 -46l-15 -15h-16c0 18.667 -35.333 49 -106 91v-61h-31
l-15 16h-15l-16 -16v31h-15l-46 -31c-124 70 -195 126 -213 168l15 15c-60.667 93.333 -91 154.333 -91 183c-20.667 36.667 -36 133.334 -46 290.001c10 193.333 35.333 290 76 290l-15 15v15c0 89.333 50.667 165.666 152 228.999l-15 15v15c63.333 112 170 168 320 168z
M707 1296v-15h15l30 30v15h-15zM768 1326v-15h30v15h-30zM630 1311l16 -15v-46h-46v-30c30.667 0 46 -10.333 46 -31l-16 -15v-15l16 -16h15c0 30.667 10 46 30 46l31 -30v45c-40.667 0 -61 10.333 -61 31l15 15v15l-15 46h-31zM417 1235v-31h30l31 31l-31 30zM707 1235v-15
h30v15h-30zM478 929.999h-31.001v76l-15 -15h-15l-15 15h-16v-107l16 -61l-16 -45h16l-16 -15v-31h61v-30h-61v-16l16 -15v-15l-16 -15l-15 15h-30l30 -46l-46 -46v-15l46 31l15 -46l16 15h15l61 -61v-76l-15 -15v-16l183 -30c56.667 91.333 102.334 137 137.001 137l-15 15
v61h45v16c-40.667 0 -61 10 -61 30l31 46l-46 46v91l-15 91l15 46c-44 54 -94.667 84.667 -152 92c-38 0 -73.667 -35.667 -107 -107zM858.999 944.999v-30l61 -16l15 46h-76zM462.999 914.999v-46l-31 30l15 16h16zM309.999 761.999v-76h15l31 31v45h-46zM202.999 655.999
l-30 -61l30 -31h92v31l-31 30l-15 -15h-15l-15 46h-16zM416.999 441.999h30v31zM614.999 334.999v-30h15v30h-15zM675.999 334.999v-30l31 30h-31zM965.999 304.999h61l-16 -76h-30zM401.999 273.999l15 -45h15l31 30v15h-61zM568.999 273.999v-15h61v15h-61z
M660.999 228.999l91 15v30h-45zM248.999 212.999v-15h31v15h-31zM614.999 212.999v-45l31 30l-16 15h-15zM690.999 197.999v-30h16v30h-16zM736.999 151.999h31v31zM858.999 45.999h30v-16h-30v16z" />
    <glyph glyph-name="P" unicode="P" horiz-adv-x="1031" 
d="M960 1219c0 -86.667 15.333 -147.668 46 -183.001l-31 -46l31 -91l-31 -31l15 -15c-6.66699 -81.333 -16.667 -122 -30 -122l15 -76l-46 15l-15 -15h-15l-61 46h76l-15 15v15l15 16v15c-101.333 -15.333 -152 -40.666 -152 -75.999l30 -31l-30 -30
c-20.667 0 -31 15 -31 45h-76c0 -20 -20.333 -45.333 -61 -76l46 -76v-15h-15l-61 45h-15c-20.667 0 -31 -20 -31 -60l-107 30v-15c0 -27.333 -15 -58 -45 -92v-15c40.667 0 61 -10 61 -30l-16 -16l-15 16h-30l-31 -61l31 -61l-31 -122l15 15h16l15 -15v-31h-46l-30 31
l-76 -15h-46v-61c60.667 0 91 -10.333 91 -31l-15 -15h-46l-45 30h-16l-45 -30l-46 46v487l15 92l-15 15v15l15 594v153l31 30h365c93.333 0 159.333 -20.333 198 -61l46 15c30.667 -42.667 46 -83 46 -121h-15l-31 30l15 15v15c-47.333 0 -82.666 10.333 -105.999 31h-16
l16 -76l-61 -15v-31l76 -15l-15 -15v-31l15 15h30l16 -15h15c0 30.667 10 46 30 46h16l15 -15h15v15l-15 15v15l15 46h15c17.333 0 32.666 -30.333 45.999 -91l-15 -46h61v30l-16 77h31v-31h30zM137 1341l31 -31v-15l-61 -15v-31c30 0 45 -10 45 -30l-15 -46h31
c0 30.667 10 46 30 46l61 -61v15l-15 76l15 -15h31l30 31c-60.667 13.333 -91 28.333 -91 45l45 46l-15 15h-15l-46 -30l-30 30zM396 1325l-15 -15l15 -15v-15l-15 -15v-16c20 0 30 -15 30 -45l46 -16v107zM350 1173v-30h31zM427 1158v-31c30 0 45 -20.333 45 -61h-15
l-15 -60h-15c-20.667 0 -31 15 -31 45h-30l15 -15v-15l-46 -122v-15h15c30.667 0 46 15 46 45l15 16h31v-122h107l76 45l-16 46l16 92v15c-30.667 0 -46 20.333 -46 61zM899 1143l-31 -92v-15h46l15 76v31h-30zM823 1127v-30h15v30h-15zM350 1082h46v30h-15zM168 1021
c0 -30.667 -20.333 -61.333 -61 -92h45l16 16c30 0 45 -15.333 45 -46l16 -15h15c0 30 15.333 45 46 45v31h-61l15 15v46c-20.667 0 -31 -15.333 -31 -46l-15 -15h-30l30 46l-15 15h-15zM838 914c30.667 0 46 -20.333 46 -61h15l30 31l-15 106h-15zM152 914v-61h16l30 61
h-46zM396 884v-31h15v31h-15zM259 701v-31h-15l-76 16l45 -61l-76 -16c0 -20 25.333 -30 76 -30l16 -15v-31l-16 15h-15l-30 -30l30 -30l31 30l61 -15l-16 76h16l15 -15h15l15 15v30c-60.667 0 -91 10.333 -91 31l46 15v46h-31zM442 609v-45h30v45h-30zM701 625l30 -31
l-15 -15h-15v46zM762 564h15v-31h-15v31zM152 381l-15.001 -15l15 -16v-30c0 -20.667 -15 -31 -45 -31v-30h45v-46l-15 -15v-15h15l46 30c20.667 0 31 -15 31 -45l91 -31v76l-15 -15h-31l-45 46l61 15v30c-51.333 0 -77 10.333 -77 31c40.667 0 61 15.333 61 46h-45
c0 -30.667 -10.333 -46 -31 -46c-15.333 40.667 -30.666 61 -45.999 61z" />
    <glyph glyph-name="Q" unicode="Q" horiz-adv-x="1179" 
d="M549 1433h64.001c116 0 223 -42.667 321 -128h-16l-16 16h-16l-16 -16l16 -16v-97c32 0 48 -10.667 48 -32l96 32l16 -16v-16c0 -21.333 -16 -32 -48 -32l64 -176l-32 -97c30 0 51.333 -42.667 64 -128h48v-32c-64 -6.66699 -96 -22.667 -96 -48l32 -32v-49l-48 -80h64
v-32c-32 0 -48 -10.667 -48 -32l32 -32l-16 -64l32 -65l-16 -16h-32v49l-96 -65l-48 16l-16 -16v-16l32 -32l-16 -16v-16l-16 16h-33l-16 -80c21.333 0 43 -32 65 -96h16l128 80l32 -96c-21.333 0 -32 -16.333 -32 -49h-32v33l16 16v16l-128 -32l16 -17v-16l-16 -64h16
l48 16l-113 -96h-48c-42.667 21.333 -64 53.333 -64 96c42.667 16 64 32 64 48c-48 0 -101.333 27 -160 81l-64 -48l-16 64h-32c0 -26.667 -21.667 -42.667 -65 -48c0 28 -37.333 49.333 -112 64l-32 -32h-16c0 64 -21.333 96 -64 96c-64.667 0 -97 10.667 -97 32
s16 32 48 32v32c-106.667 0 -160 144.667 -160 434v32c0 138.667 21.333 208 64 208l-16 16v16c0 176 53.667 272.333 161 289c0 21.333 16 32 48 32l-32 49v16c85.333 96 181.666 144 288.999 144zM645.001 1305l16 -49h32l-16 49h-32zM725.001 1289v-16h32v16h-32z
M982.001 1289l32 -65l-16 -16h-16l-32 32v16zM420.001 1256l-16 -16v-16l32 -32h16l48 48l-16 16l-16 -16h-16l-16 16h-16zM613.001 1224v-16h32v16h-32zM468.001 1032l15.999 -16l16 16h16l33 -32l-49 -32l-48 32v-32h-32v64h-32c0 -36 -16 -73.667 -48 -113l32 -48
l-48 -160v-32l16 -16v-16h-32v-16h16l64 16l-16 16v48h16l48 -48c0 -21.333 -16 -32 -48 -32v-33c38.667 0 65.334 -74.667 80.001 -224l129 -64l176 160l-32 32c0 21.333 21.333 32 64 32v16h-48l16 81l-16 16h-16l16 64c-24.667 214 -62 321 -112 321l-48 -16l-16 80h-65
c-16 0 -32 -21.333 -48 -64zM597 1080v-16h32v16h-32zM228 984v-16h32v16h-32zM1126 1000l16 -16v-16l-16 -16h-16l-16 16v16l16 16h16zM452 919h16.001l-16 -80l16 -16l-64 -32l-16 16c25.333 74.667 46.666 112 63.999 112zM886.001 903l32 -32l16 16v16h-48zM1126 919
l32 -32v-128h-32v80l-32 48zM1158 679l16 -16v-32l-32 -33l-16 17v32zM115.001 550c32 0 48 -21.333 48 -64h49l-17 16v32h65v81h-81zM950.001 566v-32h16v32h-16zM372.001 518v-32h32v32h-32zM1094 518h32v-16h-32v16zM998.001 358v-16h32v16h-32zM356.001 213v-16h32v16
h-32zM693.001 181h32v32zM998.001 181l16 -16v-48l-32 -32h-80v32l16 -16h16c0 31.333 21.333 58 64 80zM661.001 149v-32h32zM741.001 5v-32h16v32h-16z" />
    <glyph glyph-name="R" unicode="R" horiz-adv-x="1054" 
d="M75 1433l412 -0.00195312c223.333 -25.333 335 -71 335 -137c40.667 0 61 -30.667 61 -92c51.333 0 77 -55.667 77 -167c-30.667 0 -46 -15.333 -46 -46v-15h15c0 30 10.333 45 31 45l30 -30v-15l-15 -16l15 -15v-15c0 -23.333 -25.333 -38.666 -76 -45.999v-15
c40.667 -5.33301 61 -20.666 61 -45.999l-15 -15h-16l-45 30l-16 -15v-30c40.667 0 61 -10.333 61 -31l-106 -198l15 -122c-40.667 -5.33301 -61 -20.666 -61 -45.999v-15l76 15h15l-45 -61v-15h15l15 15h15l16 -15v-15c-46.667 -20 -72.334 -40.333 -77.001 -61h16l76 15
l30 -107l-15 -15l46 -46v-30l-61 -15l15 -16v-30h-46v61l-76 -46l-45 15l-31 -30h-76l-15 15l-16 -15h-15c-24 0 -49.333 81.333 -76 244l107 46h30v-31h46l30 31c-50.667 0 -76 10 -76 30v15h-61c0 -40.667 -10 -61 -30 -61h-46c-17.333 0 -42.666 71.333 -75.999 214h-16
c-15.333 -40.667 -30.333 -61 -45 -61h-16c-20 0 -30 15.333 -30 46h-31l16 -16v-15l-16 -15v-15l31 -31v-15l-31 -31h-15l15 -61h92v-15c0 -20 -25.333 -30 -76 -30l76 -77v-30h-31c0 20 -15 30 -45 30l-46 46c0 -40.667 -15.333 -76.334 -46 -107.001l15 -61l-122 31
l-61 -61l-30 30v1373zM441 1067c0 -52 -15 -92.667 -45 -122l45 -107c64 0 115 35.667 153 107l61 15l-137 107h-77zM335 1021v-15h61v15h-61zM91 929.998c30 0 45 -15.333 45 -46h46l61 46l-15 46l-15 -16h-16l-30 31zM868 944.998l15 -15v-15l46 15v15h-61zM822 761.998
l31 -30l15 15v15h-46zM838 670.998v-15h30v15h-30zM746 350.998v-16h31v16h-31zM136 334.998c0 -30 -15.001 -45 -45.001 -45v-16l30 -91c78.667 58 119.334 98.667 122.001 122l-15 15h-15v-30h-46v30h30v15h-61zM364.999 350.998l15 -16v-15l-15 -15h-15l-15 15v15l15 16
h15zM608.999 243.998v-31h15l31 31h-46zM852.999 182.998c15.333 -40.667 30.667 -61 46 -61l15 15l-15 46h-46zM899 90.998v-15h30v15h-30zM960 45.998h15v-31h-15v31z" />
    <glyph glyph-name="S" unicode="S" horiz-adv-x="872" 
d="M524 1433c164 -34.667 246 -75.666 246 -122.999l-46 -31l-46 15l-46 -77l46 -31l46 31h16v-61l-124 -31l-15 15l-31 -31l-46 31l-77 -123l-31 62h-46l-31 -93c0 -20.667 25.667 -31 77 -31l15 -15v-31l-15 -15v-16c112 0 220 -56.333 324 -169v-62
c0 -20.667 -15.667 -31 -47 -31c35.333 -72 61 -108 77 -108l16 16h15v-16l-15 -61l31 -31c-14 -34 -55.333 -64.667 -124 -92l-15 15h-15l-16 -15h-15l15 -16v-31l-31 -46l31 -46l-15 -16h-16l-15 16l-15 -46c-20.667 0 -31 25.667 -31 77h-16l-77 -62l-61 15l15 -15v-31
h-31v-15l16 -16v-15l-108 -46l-31 46l-200 -77v15l15 47l-31 30v47l16 92c-20.667 46 -31 112.667 -31 200l15 16h16l169 -108h77c72 0 108 36 108 108v15l-154 108v31h-15l-78 -15c-112.667 109.333 -169 206.666 -169 291.999l31 31l-31 46v62
c59.333 277.333 198 416 416 416h108zM401 1294l-47 -61l16 -16h61v47zM154 1279v-15l15 -16v-15h-46l46 -47h47l15 47zM462 1264v-62l31 31zM385 1186l16 -46l15 16h15l16 -16h15v46l-77 16v-16zM647 1109v-15l-31 -31h-15v31zM693 1109h16v-30h-16v30zM755 1063l15 -15
v-62l-30 -31l-16 16v31l16 15v15l-16 16l16 15h15zM462 586.001v-31h31v31h-31zM724 462.001v-31h31v31h-31zM324 139.001v-31h30v31h-30zM416 123.001h154v-15l-31 -31l-15 15v16l-16 -16h-30l-16 16l-15 -16h-31v31zM693 123.001l16 -15v-16l-16 -15h-15l-15 15v16l15 15
h15zM92 92.001l31 -30v30h-31z" />
    <glyph glyph-name="T" unicode="T" horiz-adv-x="902" 
d="M76 1433l739.001 -0.000976562l31 -31l-46 -46l-15 15c0 -61.333 -20.667 -92 -62 -92c0 -15.333 20.667 -30.666 62 -45.999c0 -31.333 20.333 -47 61 -47h16v-46l-62 -61h-31v30h46v31c-40.667 0 -61 10.333 -61 31l15 15h-15l-46 -46v-15c30.667 0 46 -10.333 46 -31
l-46 -15l-16 15h-31v-15h31v-16l-31 -31c-6.66699 27.333 -32.334 53 -77.001 77h-15v-77h31v-30h-31v-47h15l47 16c-41.333 -48.667 -67.333 -100 -78 -154h16c30.667 10 46 40.667 46 92l16 -15h15l-15 -16v-15l15 -77c-30.667 0 -46 -15.333 -46 -46l-16 -16h-15
c0 -51.333 20.667 -77 62 -77v-61h-31v46h-31l-31 -170c0 -30.667 15.333 -46 46 -46v-31h-31v-108l16 16h15l16 -16v-15l-47 -15c5.33301 -95.333 21 -157 47 -185l-16 -16h-15l-31 31h-15c0 -51.333 -15.667 -77 -47 -77c-20 0 -30 25.667 -30 77h-93v-15l16 -16v-15
l-93 -31l-15 15v216l31 31l-31 123v462l15 93l-31 123l16 16h-31v15l-93 -31h-30c0 20.667 -15.667 31 -47 31l-15 15v108l46 47c4 -28 29.667 -48.667 77 -62l31 77l-15 15l-16 47h-15c-30.667 0 -46 -15.667 -46 -47l-16 -15h-15l-31 31v92zM322.001 1371v-30h16v30h-16z
M384.001 1371c0 -27.333 -25.667 -53 -77 -77l-15 16h-16l-15 -16v-30c51.333 0 77 -10.333 77 -31l-46 -47v-15h46v46h15c20.667 0 31 -20.333 31 -61h31v46l-31 46l15 16l16 -16h15l31 31l-62 15l16 77h-31zM553.001 1341l-15 -77.001l15 -16h16l-16 -15v-31h16
c3.33301 41.333 34 62 92 62c-10 36.667 -46 62.334 -108 77.001zM168.001 1171c0 -30.667 -20.333 -46 -61 -46v-16h46c0 20.667 15.333 31 46 31zM60.001 1063h47l-31 -31h-16v31zM338.001 1002v-31c40.667 0 61 -15.333 61 -46h47v15l-31 62h-77zM292.001 954.998l30 -30
l16 15v15h-46zM322.001 877.998h31v31zM384.001 908.998v-31h31zM600.001 739.998l31 -31l-16 -16h-15v47zM353.001 692.998v-46h31c0 -20.667 -25.667 -31 -77 -31v-30c41.333 0 62 -10.333 62 -31l-31 -31v-31h15l46 31l62 -31v46l-15 47h46v30
c-30.667 0 -46 20.667 -46 62l-62 -31c0 30.667 -10.333 46 -31 46zM569.001 523.998h46v-16l-31 -30l-15 15v31zM338.001 338.998l31 -31v31h-31zM399.001 338.998v-31h16v31h-16zM307.001 292.998v-31h46v31h-46zM399.001 292.998v-31h77v31h-77zM338.001 246.998l-31 -62
h31l31 31v31h-31zM399.001 230.998v-31h16v31h-16zM600.001 215.998h46v-16l-31 -31l-15 16v31zM615.001 45.998h31v-31h-31v31z" />
    <glyph glyph-name="U" unicode="U" horiz-adv-x="963" 
d="M762 1433c14.667 0 29.6709 -20.334 45.0039 -61.001h31l-16 -76l16 -46l-61 -15v-31c30 0 45 -10 45 -30v-46l-30 -46c0 -30 15.333 -45 46 -45v-31l-16 15h-30l15 -15v-30l-15 -16l30 -76l-15 -15v-15c0 -81.333 30.667 -122 92 -122l-16 15v15l16 15h15l15 -15v-61
h-61l-15 16h-15l-16 -16v-106c30.667 0 46 -10.333 46 -31l-61 -15v-31l61 -15c15.333 40.667 30.666 61 45.999 61h15v-46c0 -20 -20.333 -30 -61 -30l-61 -122h-15v-15h46l-61 -153l15 -46l-15 -15h-31v46h-15l-91 -61l30 -31l-15 -15l-15 15h-46l-15 -15h-16l-30 31
c0 -40.667 -10.333 -61 -31 -61c0 24.667 -50.667 55 -152 91l-15 15h-16c13.333 -46.667 33.666 -72 60.999 -76l16 15v-15l-31 -76l-15 15h-15l15 15v16c-30.667 26.667 -46 57 -46 91h-15l-15 -15h-16l-45 15l-16 -15v-15l31 -31h-15l-46 46l15 15
c-36.667 0 -77.334 51 -122.001 153l15 15v15l-30 214v335l30 46l-30 45v16l30 45l-30 31v198l30 31c20.667 0 31 -15.333 31 -46l15 -15h61l46 61h30v30c-30 0 -45 25.333 -45 76l-16 -15h-61v15l31 31h30l16 -15l15 15h30c51.333 -28 77 -73.667 77 -137l-31 -92l31 -30
v-61l-46 -16l46 -76l-31 -76c13.333 -50.667 28.666 -76 45.999 -76c0 40.667 10 61 30 61l31 -31v-15l-46 -46h-15l-46 31v-16c20.667 -23.333 31 -58.666 31 -105.999c50.667 0 76 -10.333 76 -31l-31 -30l-30 30h-15v-45l30 -31v31h31l15 -138h-15
c14 -42 39.333 -72.333 76 -91c60.667 0 91 30.333 91 91v77c51.333 0 77 10 77 30c-51.333 0 -77 15.333 -77 46v152l31 92l-15 45l15 61l-31 122v16l92 76l30 -31v16l-15 15v15l61 15v31l-61 15l15 15v61h-15c0 -30 -10 -45 -30 -45h-16l-45 76l15 15h168zM75.0039 1418
c30.667 -10 46 -40.667 46 -92l-15 -15h-31l-30 31v45zM365.004 1342h31v-16h-31v16zM609.004 1296l46 -0.000976562v-15c0 -23.333 -25.333 -38.666 -76 -45.999v30zM197.004 1204v-15h31v15h-31zM365.004 1204h31v-30zM380.004 1128h31v-15h-31v15zM838.004 1098h15v-31
h-15v31zM624.004 1037v-31l31 31h-31zM655.004 975.998v-16h30v16h-30zM914.004 990.998l15 -15v-16l-15 -15h-31v15zM365.004 975.998h31v-31h-31v31zM624.004 929.998v-46h31v15zM197.004 655.998l16 -16l-107 -15l76 -76c42 14 72.667 39.333 92 76
c-30.667 0 -46 10.333 -46 31l15 45zM701.004 700.998v-30h15v30h-15zM533.004 304.998v-31h46v31h-46zM640.004 289.998v-16h61v31h-16zM380.004 289.998l-15 -16v-15l15 -15h16l15 15v15l-15 16h-16zM853.004 304.998h30l-30 -31v31zM228.004 75.998h46v-30h-16z
M518.004 45.998h30v-31h-30v31z" />
    <glyph glyph-name="V" unicode="V" horiz-adv-x="986" 
d="M708 1448c164.667 -17.333 246.998 -43 246.998 -77v-31c0 -82 -25.667 -123 -77 -123v-46l30 -46l-15 -62h15l47 31l15 -16v-31l-92 -61v-62h46v-15l-16 -16v-15l16 -15h-31l-15 15h-16v-15l31 -93h-15l-62 -15v-16h46v-30l-46 -47l31 -92l-16 -15v-16l16 -46h-46v-31
l61 -15v-31h-31l16 -15v-31h-16l-46 31c-40.667 -46.667 -61 -82.667 -61 -108h30v-31l-77 -77v-16l77 16v-31l-15 -15v-16h15l16 16h15l16 -16v-15l-154 -62v-31h-47l-61 47c-43.333 -41.333 -94.666 -62 -153.999 -62l-16 62l-46 -31l-31 200l31 31h-31v46l16 15v16
c-62 0 -93 51.333 -93 154l-15 62l77 15c0 20.667 -25.667 31 -77 31c-41.333 88.667 -62 196.334 -62 323.001h46l62 16l62 -16h30c0 20.667 -20.333 31 -61 31l-16 62l-15 -16h-15l-47 31v-15l16 -47l-16 -15h-77l-46 247l16 61l-62 154l15 16h324l31 -31l-16 -16h-15
l46 -77v-15h-46l-16 15h-15l15 16v15l-30 31l-93 -31v-15l16 -16v-15l-62 -15v-16l62 -46l-16 -15v-47l46 31h16l15 -15h16v15l-16 16v15l16 15h77l31 -30v-16h-47v-61l16 -93l-16 -46l31 -31l-15 -46h15l46 -46l-46 -47v-30c72 -24.667 108 -45.334 108 -62.001l-15 -15
l30 -31l-15 -16v-15l46 -31h16v93c0 105.333 15.333 182.333 46 231l-16 15c10.667 154 31.334 231 62.001 231l-15 46c6.66699 144 27 216 61 216zM707.998 955v-31l31 -31h15l31 31v31h-77zM245.998 909v-16l31 -30v15zM183.998 878v-31l31 31h-31zM507.998 847v-15
l-31 -31l-31 31l16 15h46zM461.998 693v-31h31zM260.998 678v-31h31zM337.998 678v-46l31 30v16h-31zM738.998 647l46 -31h16v31l-31 31zM877.998 693h30v-31h-30v31zM337.998 570l62 -15l16 15v15l-16 16h-31zM553.998 601c0 -20.667 -25.667 -31 -77 -31v-46h62l46 61
l-15 16h-16zM322.998 555v-31h15v31h-15zM260.998 508v-15h31v46zM476.998 462v-31h31v31h-31zM784.998 246h31v-15h-31v15zM630.998 139v-16h46v16h-46z" />
    <glyph glyph-name="W" unicode="W" horiz-adv-x="1448" 
d="M122 1426c60.667 -3.33301 91 -13.667 91 -31l15 16h15l31 -31l-61 -76c-24.667 0 -50 -15 -76 -45h-15v-15l30 -76h106c5.33301 40.667 20.666 61 45.999 61l-46 121l16 15h30l61 -167l30 -30v-30h-46l16 -61l-31 -91c20.667 0 31 -15.333 31 -46l-46 -75
c20 0 30 -15.333 30 -46l91 15l46 -15v15l61 546v15l30 31h30l91 -15l46 15l15 -15l76 15h60l31 -31v-30l-76 -91l15 -45h-30v-16l60 -91l-15 -45h15l16 -15l-16 -46h16c50 0 75 -40.333 75 -121l-45 -46l15 -45h-45v-15l15 -15v-16c40 0 60 20.333 60 61h31l60 576l31 31
c131.333 0 197 -15.333 197 -46l-30 -30v-15h30l30 -46l-15 -76v-75h46v-16l-61 -106l30 -30v-15l-45 -61v-15h15l15 15h15l15 -15v-15l-15 -15h-15l-15 15h-15l-31 -76v-15c40.667 0 61 -10.333 61 -31c-30 -10 -45 -40.333 -45 -91v-45l75 15v-45l-30 -31l-30 31h-15v-61
c40 0 60 -10 60 -30v-16l-60 -15l-46 15v-15l-30 -30l15 -15v-15l-30 -46l45 -15l-15 -76l15 -15h15l15 15l16 -61l-46 -45l46 -15v-31l-46 -15l-15 15h-30c-20.667 0 -31 -25 -31 -75h-15l-45 30l-31 -76l-15 15h-15l-15 -15h-15l-76 15l-91 -15l-46 212l15 16v15
c-20 39.333 -35 135.333 -45 288l30 30v15c-20 0 -30 25.333 -30 76l-15 15h-15c0 -50 -15.333 -75 -46 -75l15 -16v-75c0 -20.667 -15 -31 -45 -31v-15l15 -15v-15h-61l76 -91v-31h-15c-15.333 0 -30.666 20.333 -45.999 61l-15 15h-15l-15 -15v-61l15 -15v-15h-30l30 -136
c-24 0 -39 -35.667 -45 -107l-107 -15h-30l-76 15l-30 -30l-15 15l15 15v31h-15l-46 -31h-30v76l-15 61l15 45c-30.667 0 -46 71 -46 213l16 60l-31 31l31 30l15 -45c48 0 83.333 25 106 75l-15 16l-15 45h-16l-45 -15l-15 15c0 -30 -10.333 -45 -31 -45
c-33.333 0 -53.333 80.667 -60 242l15 46l-30 30v15c0 20.667 15 31 45 31c-60.667 27.333 -91 179 -91 455zM820 1335l15 -15h15v45zM653 1289c0 -30 -15.333 -45 -46 -45l-15 -15v-16h61c0 20.667 15 31 45 31v30zM1275 1289v-15h30v15h-30zM895 1229l31 -31v-30h-31v61z
M653 1183v-15l60 -15v30h-60zM395 1062h15l30 -31l-15 -15h-15l-15 15v31zM410 985.999h30v-30zM1381 955.999h30l-30 -31v31zM668 909.999v-15h30v15h-30zM880 909.999v-45h15l31 30l-15 15h-31zM440 909.999v-15l-30 -30l-15 15v15l15 15h30zM668 864.999v-16l15 -15v-15
l-15 -45l45 15v45l-30 31h-15zM1366 848.999h15v-15l-31 -30h-15v15zM425 773.999l15 -15.999v-15l-45 -45v-15c50.667 11.333 76 51.666 76 120.999h-15zM683 667v-15h30v15h-30zM425 652v-30h15v30h-15zM365 607v-31l30 -45l-15 -61l30 -30h15c0 60.667 30.333 106 91 136
l-30 31l-30 -31h-16l-45 31h-30zM622 576v-45h46v15l-30 30h-16zM956 546v-30h30zM380 334l30 -31v31h-30zM1108 303v-15h45v15h-45zM1259 303h31v-30h-31v30zM380 273v-15l15 -46l-15 -15h30v76h-30zM1093 197v-30h45l-30 30h-15zM1214 76h30l31 -30l-16 -16l-45 16v30z
" />
    <glyph glyph-name="X" unicode="X" horiz-adv-x="925" 
d="M604 1456c92.667 -10 138.999 -25.334 138.999 -46.001l-30 -31v-16c40.667 0 61 -10.333 61 -31v-15c0 -20.667 -15.333 -31 -46 -31v-16l31 -31l15 16l16 -16v-15l-47 -16v-31c27.333 0 53.333 -31 78 -93l-78 -15v-47l16 -15v-16c-32 0 -63 -36 -93 -108v-16h47v-31
h-31c-20.667 0 -31 15.667 -31 47h-31v-16c0 -51.333 10.333 -77 31 -77l46 15v-15l-15 -62l31 -77h-31c0 30.667 -10.333 46 -31 46c-41.333 -15.333 -62 -30.666 -62 -45.999l124 -93l-16 -47h16l46 -15l15 15l62 -170l-15 15h-31v-15l31 -124l-47 -16v-15
c28 -41.333 54 -62 78 -62v-62l-62 -62h-31l-93 15l-62 -15l-124 263h-15c0 -60 -20.667 -101.333 -62 -124l-47 31c0 -20.667 -15.333 -31 -46 -31v-31l15 16h47l-31 -31h-78c0 -52 -67 -78 -201 -78l-16 -15h-15l-31 31l263 712l-170 465l62 62v16l-47 -31l-15 15l15 16
v31h-15l-47 -16l-46 124l15 16h124l47 -31l93 15v-62h15l93 62l16 -15v-62c-72.667 0 -109 -31 -109 -93l16 -16h15l93 31l47 -31c24.667 0 50.334 62 77.001 186zM789.999 1425h15v-31h-15v31zM572.999 1286v-47l78 16v31h-78zM851.999 1286h15v-31h-15v31zM309.999 1224
v-16h31v16h-31zM665.999 1208l31 -31v31h-31zM386.999 1177l16 -93h31c0 54 -15.667 85 -47 93zM727.999 1146v-62h31v62h-31zM557.999 959.999v-31h31v31h-31zM386.999 603.999v-31l31 31h-31zM712.999 448.999v-15l30 -31v46h-30zM371.999 402.999l-16 -16v-15l16 -16h15
l16 16v15l-16 16h-15zM386.999 324.999v-46h31l16 46h-47zM835.999 340.999l78 -140l-16 -15h-15l-47 31l16 15l-16 78v31zM324.999 293.999v-31l31 31h-31zM557.999 278.999v-31h31v31h-31zM371.999 247.999l-16.001 -16v-15l47 -47h15c-13.333 52 -28.666 78 -45.999 78z
M913.998 154.999h15v-31h-15v31zM371.998 61.999h31l-31 -31v31zM324.998 45.999h16l31 -31h-47v31z" />
    <glyph glyph-name="Y" unicode="Y" horiz-adv-x="1016" 
d="M263 1456l30.999 -45.9961l-15 -47h46c3.33301 41.333 24 62 62 62l16 -15v-16l-93 -93v-31c0 -86 36 -153 108 -201h16v31h31l15 -47l-170 -139h15l78 15v-31c-31.333 0 -47 -25.667 -47 -77c97.333 36.667 149 72.667 155 108c0 20.667 -20.667 31 -62 31v16l78 62
l108 403c126.667 -10.667 199 -26.334 217 -47.001l31 31h15l16 -15l15 15h16l31 -31c-41.333 0 -77.666 -15.333 -108.999 -46l-15 15h-16v-15l31 -93c0 -62 -31 -93 -93 -93v-16l47 -62l-16 -15h31c0 41.333 10.333 62 31 62l31 -31l-62 -124l-15 15h-16l-62 -62v-46
c31.333 0 47 -10.333 47 -31s-20.667 -31 -62 -31l-15 -62h30l16 15h15v-31c0 -30.667 -20.333 -46 -61 -46l-47 16v-16l31 -46c-34 -10.667 -54.667 -31.334 -62 -62.001l16 -16h15l16 16h15l16 -16v-62h-31v31l-16 -15h-15l-16 15h-15l15 -77
c0 -20.667 -15.333 -31 -46 -31c29.333 -52 60.333 -78 93 -78v-31h-16l-46 16v-31l15 -16v-15h-31v-31h31v31h31l31 -78v-124c0 -30.667 -51.667 -56.334 -155 -77.001l-77 31l-16 -16v-15l-15 15h-16l-77 -15l-16 15v47c0 66 57 117.667 171 155
c-34 44 -75.333 75 -124 93c0 -41.333 -10.333 -62 -31 -62l-16 15v171c0 92.667 -25.667 139 -77 139v47c-28 237.333 -69.333 381.666 -124 432.999c-20.667 98 -62 211.667 -124 341l31 31h186zM417.999 1255v-31l-77 -16v31zM758.999 1038v-31h46l-31 31h-15z
M355.999 1022v-31h16v31h-16zM402.999 743.004v-15h31v15h-31zM665.999 465.004h31v-31h-31v31zM619.999 217.004l-16 -109v-46l16 15l15 -15h31v46l-31 47l16 62h-31zM324.999 201.004h31v-46h-31v46z" />
    <glyph glyph-name="Z" unicode="Z" horiz-adv-x="895" 
d="M261 1433l31 -0.000976562v-15l184 15h370v-62l-15 -15l15 -15v-16c0 -20.667 -15.333 -31 -46 -31l15 -15v-15h-15l-46 15v-15l-16 15h-107l15 -77h15l77 15v-15c0 -20.667 -15.333 -31 -46 -31l-15 -15v-16l77 -77c-20.667 0 -31 -25.667 -31 -77h-46v31h-62l-31 -62
v-30l31 -31l62 46h15c-30.667 -62 -61.334 -93 -92.001 -93v-15l31 -46v-16h-108c0 -20 30.667 -35.333 92 -46v-31h-31l-15 16h-16v-31c31.333 0 47 -10.333 47 -31v-15c-33.333 -92.667 -64.333 -139 -93 -139c10.667 -61.333 26 -92 46 -92h232l30 -31v-46l-30 -31
l15 -108v-16c0 -20 -15.333 -30 -46 -30v-62h31v-31l-16 16h-31l-15 -16h-15l-16 46l-61 -92h-16l-15 15v16l46 15v16l-31 30l-77 -77v77h-31l-46 -30l-62 30c-7.33301 -51.333 -22.666 -77 -45.999 -77l-46 47c-79.333 -8 -136 -28.667 -170 -62h-61l-16 15h-15
c57.333 248.667 124 449 200 601c0 98.667 31 196.334 93 293.001l15 93l-61 61l30 31h16v-31h31c-40.667 82 -71.667 123 -93 123v-30l16 -47l-16 -15h-15l-47 31l-77 -16h-30v31l15 16v15c-41.333 0 -62 77 -62 231zM384 1341l-31 -77l16 -16h77l15 77zM153 1325v-45.999
h46v-15l-15 -16v-15h15l31 31c-4 27.333 -29.667 47.666 -77 60.999zM399 1217v-31l31 31h-31zM785 1186l15 -15v-15l-15 -16h-16l-15 16v15l15 15h16zM91 1109h16v-46l-31 -31l-16 16v31zM430 663v-31h62l-31 31h-31zM399 601v-31h31v31h-31zM461 555l-15 -16v-15l15 -16
h15l16 16v15l-16 16h-15zM307 108v-31h46l-31 31h-15z" />
    <glyph glyph-name="a" unicode="a" 
d="M377 1448l15 -15l106 15h151l45 -30h75v-15l-15 -15v-15h30v-31l-45 -15l15 -15v-45l-15 -15l15 -75h30l46 30l15 -46l-15 -15v-15l30 -151h-30v61l-61 -30l-45 15v-15l91 -76v-15l-16 -45h46v45l30 -30v-60l-45 30l-31 -45c0 -30.667 35.333 -46 106 -46l15 -75h-15
c-30 0 -45 -10 -45 -30l15 -46l-15 -90v-30h15l15 15l15 -15h30l-30 60l15 15v15l-30 76h15c30 0 50 -80.667 60 -242l-15 -15l30 -30l-15 -15v-15l15 -15l-30 -30v-15c0 -20.667 15.333 -31 46 -31l15 -15v-15l-31 -30h31v-30c-30.667 0 -46 -10 -46 -30l61 -15l-15 -61
l15 -45h-151l-60 15l-121 -30c-30 26.667 -55.333 102 -76 226l-15 15h-15l-15 -15h-15l-45 15l-91 -15v30h-15l-30 -30v-15l15 15h30c0 -60 -20 -90 -60 -90v-15l30 -46v-30c0 -20 -65.333 -35 -196 -45l-60 30l-121 -15l-15 15v30c50 332 90.333 498 121 498l-15 45l15 15
v16l-15 15v15c64 392 104 588 120 588l-15 15v15c0 110.667 55.333 166 166 166zM287 1312v-75h45v15l-30 60h-15zM558 1267v-30h30v30h-30zM769 1101v-15h30v15h-30zM468 950l30 -135l-61 -151l31 -76h105l-45 317v91h-15zM724 799l30 -30v30h-30zM784 588h31v30zM860 422
h15l30 31v15zM347 332v-15h60v15h-60zM528 332l-30 -45v-15c40 14.667 60 29.667 60 45l-15 15h-15zM920 166h15l30 30h-15zM317 121v-30l30 30h-30zM965 106v-31h31v31h-31zM875 91l-15 -46h15l30 30v16h-30z" />
    <glyph glyph-name="b" unicode="b" horiz-adv-x="1039" 
d="M159 1433h60l15 -15l15 15h226c103.333 0 224 -35.333 362 -106l-15 -15v-30h30v-15l-15 -15l31 -60l45 15v-15l15 -61l-15 -45h15l30 -30v-76l-15 -75h-30l-15 15h-15v-45c30 0 45 -10 45 -30c-34 0 -64.333 -25.333 -91 -76v-15c90.667 -94.667 136 -180 136 -256
l-15 -15l30 -30v-16l-30 -45v-15c30 0 45 -10 45 -30c-20 0 -30 -20 -30 -60l-15 -15h-15l-30 30c0 -30.667 -20.333 -46 -61 -46v-30l61 -15c-10 -70 -25 -105 -45 -105l-46 45c-30 0 -45 -15 -45 -45h-30l-15 15h-15v-30c-30.667 0 -46 -20.333 -46 -61l-105 -15l-30 30
v15l60 15l45 -15v15l15 46l-166 -76l-15 15h-45c0 -25.333 -25 -40.333 -75 -45l-15 15h-15l-91 -15l-15 15l-30 -30h-106l-30 30v106l15 60l-15 60l15 16l-15 75v136l15 196l-15 45l15 241v257c0 20 40.333 35 121 45v-30h-30l30 -30l75 30v30c-30 0 -45 20 -45 60l-91 -60
h-30l-30 30v91c10 30 40.333 45 91 45zM626 1267l30 -30l15 15v15h-45zM506 1131c0 -30 -20.332 -44.999 -60.999 -44.999l-15 -45l15 -15v-15l-30 -31l-30 31l-30 -31c43.333 0 78.333 -30 105 -90c55.333 0 105.666 25 150.999 75
c-18.667 71.333 -53.667 126.666 -105 165.999zM355.001 1071v-30h30zM852.001 996.001v-31h16v31h-16zM883.001 996.001v-31h30v31h-30zM430.001 664.001l15 -76v-15l-30 -120l15 -76h60c70.667 0 106 35.333 106 106v60l-121 91v45zM204.001 649.001v-15l45 -46h60v15
c-30 0 -45 15.333 -45 46h-60zM128.001 603.001v-15c40.667 0 61 -15 61 -45h45v15l-45 45h-61zM913.001 573.001v-30h15v30h-15zM355.001 422.001v-30h45v30h-45zM913.001 422.001v-45l30 30v15h-30zM309.001 392.001l31 -30v30h-31zM898.001 332.001v-15h15l30 30v15h-15z
M822.001 272.001h29.999l16 60c-15.333 0 -30.666 -20 -45.999 -60zM943 256.001h15v-30h-45zM219 75.001l60 -0.000976562v46c-40 -15.333 -60 -30.666 -60 -45.999z" />
    <glyph glyph-name="c" unicode="c" horiz-adv-x="864" 
d="M455 1425h147.001c118 -28 177 -57.333 177 -88l-15 -132l15 -44h-30l-14 14h-15l-15 -59h-15l-14 15h-15c0 -19.333 -14.667 -29 -44 -29l15 -15v-15l-15 -14h-15l-14 44h-59c0 -49.333 -14.667 -74 -44 -74l-59 15c0 -19.333 14.667 -29 44 -29v-15l-29 -29
c-24.667 0 -39.334 19.333 -44.001 58h-44c0 -29.333 -10 -44 -30 -44l-14 15l-30 -44h15l88 15l29 -30c0 -107.333 -24.333 -161 -73 -161v-15c29.333 -36 44 -70.333 44 -103v-15l-44 -58h15l14 14h15c0 -93.333 63.667 -161.666 191 -204.999c55.333 0 119 39 191 117h15
l14 -59l-29 -88l15 -14v-15l-30 -44l30 -44c-10 -49.333 -29.667 -74 -59 -74v-14c0 -20 14.667 -30 44 -30v-44h-88v30l-74 -30l15 -73l-15 -15h-14l-15 15l15 14v30l-74 14h-15v-44h-14c-59.333 49.333 -103.333 74 -132 74c0 -22.667 -24.667 -37.334 -74 -44.001
c-103.333 100.667 -167 179 -191 235v15l15 14v15c-68.667 0 -103 117.333 -103 352c0 306.667 93 532 279 676c67.333 39.333 126 59 176 59zM544.001 1175v-44h29v44h-29zM617.001 1175v-29l29 29h-29zM749.001 1116l30 -29v-103h-15c-68.667 34 -103 58.667 -103 74v29
l74 -15h14v44zM309.001 926v-30l58 -29v59h-58zM309.001 705v-29h29zM544.001 44l14 -15v-14l-14 -15h-15l-15 15v14l15 15h15z" />
    <glyph glyph-name="d" unicode="d" horiz-adv-x="1111" 
d="M99 1433h446.999c164 0 246 -46.333 246 -139h-15c16.667 -58 57.667 -129.667 123 -215l77 15c30.667 0 51.334 -41 62.001 -123l-62 -31l31 -31l46 16v-16l-15 -62l46 -46l-62 -61l-46 15c41.333 -51.333 72.333 -77 93 -77v-15l-47 -47l-15 16l15 15v31h-15l-46 -15
l-16 15l-15 -15v-16l31 -31l-47 -154l16 -46l-46 -92l-16 15h-46l15 -15v-31c-51.333 0 -77 -10.333 -77 -31l47 -46l-16 -16v-15l31 -31v-15c-30.667 0 -46 -10.333 -46 -31l15 -16l-138 -77l-16 77h-31c0 -61.333 -10.333 -92 -31 -92l-15 15l-15 -15l-16 62h-15l-16 -16
h-15l-46 46l-16 -15l-15 15c-30.667 -26 -46 -51.667 -46 -77h-31c0 31.333 -10.333 47 -31 47c-32 0 -68 -20.667 -108 -62l-15 15h-16l-61 -15l-31 31v1371zM344.999 1217l-15 -15v-16h46zM884.999 1217l30 -31l-15 -15h-15l-31 31l15 15h16zM391.999 1156v-16h30v16h-30z
M437.999 909l15.001 -92.001l-15 -16v-15l15 -62v-46l-92 31l-16 -77l31 -31l-15 -15h15l-15 -16v-108h46c0 51.333 10.333 77 31 77l15 -15v-16l-15 -61l15 -16v-15l-15 -46h15c154 20 231 127.667 231 323v31l-30 185l30 31v15l-92 62c0 34.667 -25.667 60.334 -77 77.001
c-46.667 0 -72.334 -61.667 -77.001 -185zM361 1063v-15l31 -31h15v31zM915 1032l-92 -76.999l15 -92l108 62v15l-77 -15c0 15.333 20.667 30.666 62 45.999l15 15v16l16 -16h46v31zM315 955v-15h30v15h-30zM376 955l31 -30v30h-31zM315 832h30v31zM376 832v-62l31 31z
M176 647l-31 -61l46 -31c0 30.667 10.333 46 31 46v-46h15l31 31zM438 663l15 -16v-46l-31 -31h-15v62zM1023 539h31v-15h-31v15zM977 478h16v-31h-16v31zM376 416v-46h16l30 31v15h-46zM977 370h16v-46l-78 -77h-46l-31 30c44 0 90.333 31 139 93zM114 293v-46h46v15
l-30 31h-16zM607 277v-15h31v15h-31zM623 247l31 -31l30 31h-61zM869 200h31v-31h-31v31zM669 139v-16l31 -31h15v47h-46zM530 77h31v31z" />
    <glyph glyph-name="e" unicode="e" horiz-adv-x="781" 
d="M83 1433l610.001 -0.000976562l46 -46v-30l-30 -46l15 -46l-31 -30l31 -46l-76 -15l76 -92v-15h-31l-45 31h-16c0 -30.667 -10 -46 -30 -46l-46 46l-15 -16h-15l-46 16c-28.667 -51.333 -69.334 -77 -122.001 -77l30 -30l46 15v-76c0 -20.667 51 -36 153 -46v-15l106 30
l16 -15v-107l-31 -121l-76 45l-15 -15v-15l15 -61l-76 15l-31 -30h-15v45h-15l-61 -15l-46 15l-31 -45h16l15 15h15l15 -15v-16c-20 0 -35 -35.333 -45 -106c40.667 0 61 -15.333 61 -46l30 -92l92 31h30l46 -46c0 -20 -15.333 -30 -46 -30v-16l76 -30h16v15h-31v31h15
l46 -16l-15 16v30l30 31l31 -31l-15 -15v-15l15 -61c0 -20.667 -15.333 -31 -46 -31v-46h31v-45h-16l-15 15h-15c0 -20.667 -30.667 -36 -92 -46v-15c40.667 -5.33301 61 -20.666 61 -45.999l-15 -15l-15 15h-46l-15 -15h-15l-16 15v15l46 16l-30 30l-61 -46h-16l-61 46
l-30 -30l-31 30l-15 -15l-15 15h-15l-46 -30l-46 15l-30 -31h-16v31h-15v-31l15 -15h-61l-30 31v1357zM663.001 1311v-30h15v30h-15zM556.001 1250v-30h15v30h-15zM373.001 1143l-15 -61v-15h15l31 61l-16 15h-15zM99.001 1052v-15l45 -46v30l-30 31h-15zM175.001 1006v-30
h30l16 61h-16zM144.001 959.999l31 -30h15v30h-46zM343.001 944.999v-30h15v30h-15zM373.001 944.999v-30h15v30h-15zM129.001 898.999v-15l76 -30v45h-76zM99.001 868.999v-31l30 31h-30zM678.001 609.999l31 -31v-30h-61v30zM480.001 563.999h30v-15h-30v15z
M327.001 380.999l61 -46v77h-30zM129.001 289.999l31 -31h61v31h-92zM343.001 289.999v-16h30v16h-30zM419.001 289.999v-16h30v16h-30z" />
    <glyph glyph-name="f" unicode="f" horiz-adv-x="789" 
d="M92 1441h628.001l31 -31l-15 -153l15 -77l-61 -46c40.667 -4.66699 61 -20 61 -46v-15l-31 -31h-15l-46 46l-123 -15l-46 15v-30h-30l-62 46l-92 -92l62 -31v-46h-31v-15l31 -31l15 46l92 -31h215c22.667 0 43 -35.667 61 -107l-31 -61l16 -77v-30l-31 -46l31 -31
l-31 -31h-31c-16.667 0 -37 36 -61 108h-15l-77 -16v-30l31 -46l-16 -16h-15c-20.667 0 -31 20.667 -31 62h-30l15 76h-46l-46 -46l15 -61c-30.667 -10 -46 -40.667 -46 -92c51.333 0 77 -46 77 -138l-15 -15h-16l16 -16v-15l-31 -31h-46l31 31l-16 15v31h46v15l-30 46
l15 16v15c-30.667 0 -46 15.333 -46 46l-31 -31l31 -30l-61 -108v-15c0 -20.667 20.333 -31 61 -31v-15l-31 -31c0 -30.667 25.667 -46 77 -46v-30c-40.667 0 -66.334 -25.667 -77.001 -77h16l107 46v-46l-46 -46l-46 31l-31 -31l-46 31l-15 -16l-15 16v15l15 15l-15 16h-16
l-107 -77h-15l-31 31v1379zM352.001 1349c0 -40.667 -20.334 -61 -61.001 -61v-31c30.667 0 56.334 -25.667 77.001 -77l46 16l15 -16l61 92c-40.667 0 -61 10.333 -61 31l15 46l-15 -15h-46l-15 15h-16zM92 1288l30 -31h31v31h-61zM567 1272v-30h31v30h-31zM644 1272
l-16 -46h16l30 31v15h-30zM368 1012h46l-31 -31h-15v31zM659 598h31l15 92c-30.667 -10 -46 -40.667 -46 -92zM138 613v-30h46l-31 30h-15zM306 583l16 -16h46v46h-31zM567 567h15v-30h-15v30zM414 230l15 -15v-16h-46z" />
    <glyph glyph-name="g" unicode="g" horiz-adv-x="1039" 
d="M648 -64c-51.333 0 -76.999 10.001 -76.999 30.001l16 16h15l15 -16h16l15 78h-15l-46 -31l-16 46c-34 -10 -54.667 -30.667 -62 -62l16 -46l-16 15h-15l-16 -15c0 41.333 -30.667 62 -92 62l-31 31l-15 -16h-31l-16 16l-15 -16h-31l15 16v15l-30 31h-16l-15 -16h-16
l-15 16v15l15 47h-15l-93 92l16 16v31c-54.667 0 -85.667 138.667 -93 416c0 123.333 25.667 185 77 185v31h-31v31h47l-16 16v77c6.66699 61.333 22 92 46 92l16 -15h15c52 174.667 129.333 262 232 262c0 18.667 61.667 29 185 31h46c20.667 0 31 20.667 31 62h31
c0 -51.333 31 -77 93 -77c82 -30 123 -55.667 123 -77v-62l-31 -31l-46 31h-46l-16 -62l31 -31l16 16h15l15 -16l16 16l15 -16l-15 -15v-16l31 -46l-16 -15v-16l16 -92l-16 -16h-15l-16 16v15l16 16l-16 46l16 46h-16l-15 -15h-15l-47 15v-31h31v-46l-92 62l15 15h-31v-11
l-46 11l-77 -15l-31 31h-16v-47c31.333 0 47 -10.333 47 -31c-31.333 0 -47 -15.333 -47 -46l-15 -15h-16l-46 31v-62h-15l-47 31h-92l77 -62l31 -31v-31h-16l-92 62v-46c51.333 -70 77 -126.667 77 -170l46 -16l-31 -46l16 -15v-16l-31 -31l-15 16
c0 -20.667 -15.667 -31 -47 -31v-31l16 15h46l31 -30l-16 -16h-15l-15 16l-16 -16v-15l16 -16h15l15 16l16 -16v-15l-16 -46h16l139 -62h31c61.333 51.333 92 123.333 92 216h-77v-62h-15l-31 31l15 15l-46 47v77l15 185h31l108 -15l31 15h293l31 -31v-15l-15 -62l15 -46
l-31 -62l31 -31c-26.667 -61.333 -52.334 -92 -77.001 -92v-16h16l46 16v-16c0 -52.667 -31 -114.334 -93 -185.001l31 -31v-15h-15l-47 15l-15 -15v-16c41.333 0 62 -10.333 62 -31v-61h-16c-20.667 0 -31 20.333 -31 61l-46 16l-31 -47l16 -15h-16l16 -15l-16 -78v-46h-31
l-15 16l-62 -31l16 -16l-13 -61h-34zM478.001 1232v-31l139 -62l16 78l-16 77zM293.001 1278v-15h31v15h-31zM417.001 1078v-16l31 -31h15zM139.001 923.001v-31h46l-31 31h-15zM123.001 862.001l31 -31v31h-31zM309.001 692.001v-31h31v31h-31zM154.001 599.001h-31
c0 31.333 -10 47 -30 47h-16v-31c30.667 0 46 -10.333 46 -31v-31l-77 15v-31l108 -15l16 15h15l47 -15l15 15v16h-93v46h31v62c-20.667 0 -31 -20.667 -31 -62zM571.001 615.001v-16l31 -31h31v31zM818.001 599.001l-31 -62l46 -46h31l16 46c-7.33301 31.333 -28 52 -62 62
zM77.001 476.001v-31h31v62zM154.001 476.001v-31h31v31h-31zM123.001 291.001v-31h31v31h-31zM525.001 167.001v-15h31v15h-31zM432.001 74.001v-46h46v16l-30 30h-16z" />
    <glyph glyph-name="h" unicode="h" 
d="M157 1432c184.667 -6.66699 277.002 -37.665 277.002 -92.998l-46 -15v-31l77 -77l-61 -16v-15c0 -20.667 15.333 -31 46 -31l15 -15v-31h-61l30 -47l-15 -46l15 16h16l15 -16v-15l-61 -62l15 -16h15l16 16c15.333 -41.333 30.666 -62 45.999 -62l31 31h108
c5.33301 41.333 20.666 62 45.999 62l-46 77v62l46 77l-30 31l108 61v16l-16 15h-15l-31 -31c-41.333 17.333 -62 53.666 -62 108.999l31 30h201l46 -46l-16 -62l16 -15v-16l-16 -46l93 -15v-31h-46l-16 15h-15v-31c10 -40.667 35.667 -61 77 -61l16 15l15 -15v-16l-77 -15
v-16h31v-30l-16 15h-62c31.333 -62 62.333 -93 93 -93v-15c-62 0 -93 -25.667 -93 -77h16l46 -31l47 15l-16 -15v-16l16 -15v-15l-31 -31l15 -77l-15 -47l-78 16v-16l16 -15v-16l-16 -46l78 -93l-31 -30c41.333 0 62 -26 62 -78l-16 -15h-15l-47 15l-31 -46v-31
c38.667 -3.33301 69.667 -24 93 -62v-30l-15 -16l31 -77h-16l-77 15v-15c0 -20.667 20.667 -31 62 -31l15 -15v-31l-31 -31l-46 62h-16c0 -31.333 -10 -47 -30 -47h-16l-139 16l-61 -16l-16 16v62l16 92l-16 46l16 16v15l-16 47l31 31c-20.667 16 -31 72.333 -31 169l-15 16
h-170l-16 -108l31 -31l-46 -46l15 -47h-30l-47 31l16 -77l-16 -62h16l46 16l15 -16v-62c-51.333 0 -77 -20.333 -77 -61l16 -16h31c0 31.333 10 47 30 47l31 -47l-31 -31h-15c-34.667 0 -70.667 15.667 -108 47h-31l16 -16v-15l-16 -16h-15l-62 16l-93 -31l-15 15v1390
c0 25.333 20.667 40.666 62 45.999zM959.002 1386h31l-31 -31v31zM249.002 1293l31 -31l16 15v16h-47zM944.002 1293h31v-31h-31v31zM743.002 1231v-31h31zM203.002 1000l-15.999 -78l16 -61l77 61c-6.66699 41.333 -32.334 67.333 -77.001 78zM882.003 845.002v-46l31 31
l-16 15h-15zM928.003 799.002l31 -31v31h-31zM897.003 737.002v-31h31zM944.003 676.002h31v30zM434.003 614.002v-47h31l47 31h30l47 -31h31v31l-93 31h-15zM388.003 382.002h31v31zM218.003 305.002c0 -20.667 -20.333 -31.001 -61 -31.001v-31
c30.667 0 46 -20.333 46 -61c72 34.667 108 60.334 108 77.001c-30.667 0 -46 15.333 -46 46h-47zM666.003 259.001v-31h31v31h-31zM913.003 197.001v-46h46v46h-46z" />
    <glyph glyph-name="i" unicode="i" horiz-adv-x="463" 
d="M77 1433h308l31 -31v-138h-31l15 15v15h-77v-30l16 -16v-15l-31 -31v-46l123 -31v-46h-61v-16l30 -46v-31c-40.667 0 -61 -30.667 -61 -92l61 46l16 -15v-16l-31 -31l-15 16v-47h15l15 16h16v-16c0 -20 -25.667 -30 -77 -30v-31l46 -16l46 16v-46
c-40.667 0 -61 -10.333 -61 -31v-16h30v-15l-15 -15v-16l15 -15v-16l-15 -46l31 -31v-15h-77l92 -108l-31 -62l16 -15c-41.333 -10 -62 -35.667 -62 -77h62v-31l-16 -15l16 -16v-15c0 -20.667 -15.333 -31 -46 -31v-15l30 -47v-15l-15 -15v-16l31 -31v-15h-16l-107 46v-46
h-31l-139 15l-62 -15l-15 15v16l15 92l-15 16v15c0 62 15.333 93 46 93v30c-30.667 0 -46 10.333 -46 31v570l46 47l62 -47h46l15 47l-15 46h-15l-108 -31l-31 169l15 93l-15 154v46zM354 1402l-31 -46h31l31 31l-15 15h-16zM154 324v-47h31l-31 -30l-16 15v-62l77 62v15
c-20 0 -30 15.667 -30 47h-31zM354 247l-15 -16v-15l15 -16h16l15 16v15l-15 16h-16zM246 62v-31h16v31h-16z" />
    <glyph glyph-name="j" unicode="j" horiz-adv-x="657" 
d="M274 1448l122 -0.00195312c51.333 -2.66699 77 -12.667 77 -30l15 15h106l31 -31l-31 -45v-31l16 -15v-15c-51.333 -13.333 -77 -28.666 -77 -45.999v-31h31l46 31l15 -15v-46l-15 -61l15 -46l-46 -15v-31l31 -45c0 -40 -25.667 -80.667 -77 -122v-15l46 -61v-31h-15
l-46 15l31 -91v-15l-31 -46c40.667 -10 61 -40.667 61 -92c-20 0 -35.333 -30.333 -46 -91h31l15 15h15l16 -15c0 -30.667 -20.333 -46 -61 -46l15 -76h-46c0 -20 15.333 -30 46 -30l15 -16v-30h-30l15 -46l-15 -76h-31v46h-30v-46h30c-15.333 -40.667 -30.333 -61 -45 -61
h-31l15 107l-45 -31h-31l-15 15h-15l-16 -15v-15c51.333 -13.333 77 -28.666 77 -45.999h-77l-15 15h-15l-31 -91h-76l-30 30l15 16c-112 46 -168 76.333 -168 91v15l15 77c-20 0 -30 15 -30 45l15 16l-15 76v76h30c54.667 -40.667 100.667 -61 138 -61
c40.667 10 61 40.667 61 92v274l15 320l-15 15l15 76v260zM503 1311h30v30zM305 974.998l30 -30h31v76h-15zM503 974.998l15 -15h46v46h-31zM503 258.998v-15h30v15h-30zM366 228.998l30 -31v31h-30z" />
    <glyph glyph-name="k" unicode="k" horiz-adv-x="1031" 
d="M653 1441h44.999l166 -30l15 15h15l15 -15c0 -50 -30 -75 -90 -75l15 -75l-60 -15c0 -20 15 -30 45 -30v-15l-30 -45c0 -20 15 -30 45 -30l-15 -45l30 -75l-15 -15h-15l-15 15l15 15v30l-61 -60v-30l31 -45c-15.333 -40 -30.666 -60 -45.999 -60l-15 15h-15l-45 -15v-15
c70.667 0 106 -15 106 -45l-46 -45h-15v30h30v30l-60 -30v-30c36 0 91.333 -115.333 166 -346c0 -20 -20 -30 -60 -30l15 -75l15 15h60l45 -45l-135 -30v-45l75 15h15l15 -75l-15 -15c81.333 -6.66699 126.333 -26.667 135 -60l-45 -30c-10 36 -45 61 -105 75
c-10 -60 -35 -90 -75 -90v-15c-160.667 0 -241 75 -241 225l-15 45l15 15c-32.667 0 -67.667 115 -105 345h-15l-45 -30h-15v30h-45v-30c0 -20 30 -30 90 -30v-15l-15 -75h-15c0 40 -10 60 -30 60h-30v-30l15 -60c-10 -52 -30 -92 -60 -120l15 -60l-15 -45
c18.667 0 43.667 -30 75 -90l-15 -15v-15h15l45 45l-30 30l30 30l15 -15v-135l-30 -30h-30l15 15v45h-30v-60h-45l-60 -15l-90 45c0 -30 -10 -45 -30 -45h-15c-20 0 -35 55 -45 165h15l-15 15l15 75v931l30 30l45 -30h30l15 45l-15 45h-45v-30h-60v135l30 30h180l45 -45
l-15 -15v-15l30 -75h-15c-30 0 -45 -10 -45 -30v-15l45 -60l-30 -45v-15h15l15 15h15l60 -15v-15l-30 -30l-30 30h-15l15 -15v-15c-4.66699 -40 -19.667 -60 -45 -60v-30h30v-60h-30v-30c30 0 45 -10 45 -30l-15 -15l45 -30h15l15 45h-45l15 75l-15 15l15 15h15l-15 75v15
h30l30 -30l-15 -75h45c94 330 159 495 195 495zM938.999 1426l30 -30h-30v30zM607.999 1231l30 -30h30v30l-30 30zM893.999 1246h30v-75h-30v75zM367.999 1231h30v-30h-30v30zM322.999 1006h15v-30h-15v30zM172.999 585v-15h30v15h-30zM803.999 435v-45h15v45h-15z
M382.999 435h30v-30h-30v30zM352.999 360c30 -6 45 -46 45 -120v-15h-30l-45 75c20 0 30 20 30 60zM742.999 300v-30h46l-31 30h-15z" />
    <glyph glyph-name="l" unicode="l" horiz-adv-x="811" 
d="M115 1433c172.667 -6.66699 259.001 -16.667 259.001 -30c0 -20.667 15.333 -31 46 -31v-30h-31v-16l61 -122l-15 -15h-15c-20.667 23.333 -31 59 -31 107l-61 -76c16.667 0 37 -35.667 61 -107h15l16 15l15 -15l-46 -107l-15 15h-31c0 -27.333 -15 -57.666 -45 -90.999
c32.667 0 58 -40.667 76 -122h30v15l-15 15v16h31v-31l15 -15l-15 -15h-31l15 -16v-15h-76v-30l61 -15l-15 -16v-30h30v46h16l15 -16h15c-7.33301 -60.667 -17.333 -91 -30 -91l30 -153l-15 -15l-15 15h-16l-91 -30v-31l107 31c0 -18.667 45.667 -34 137 -46l61 15h30
l16 -15l15 15h61l15 -15h15l-30 -198l15 -15v-16c0 -82 -40.667 -132.667 -122 -152c0 20 -15.333 30 -46 30c-20 40.667 -50.333 61 -91 61v-30h-76l-46 -31l-15 16h-16v-31h-30c0 33.333 -10.333 58.666 -31 75.999v16h-30c-39.333 -44 -90.333 -79.667 -153 -107l-30 91
v153l15 15l-15 15v641l15 15l-15 15v153l30 45l-30 31v15l30 31l46 -46h15c3.33301 50.667 18.666 76 45.999 76l-15 61h-76c0 -30.667 -10.333 -46 -31 -46l-15 16v106zM191.001 1159v-31h15v31h-15zM328.001 1143v-30h31zM450.001 1037v-31l-46 -46h-15v46l15 -15h16
c0 30.667 10 46 30 46zM404.001 762h31v-30zM115.001 610v-31h30c0 -30 10.333 -45 31 -45l30 61v30h-15zM359.001 625v-15l30 -31v46h-30zM343.001 534c0 -20.667 -15 -31 -45 -31l-16 -15v-15l16 -16h15l46 46h15v31h-31zM633.001 351v-46l31 30l-16 16h-15zM618.001 229
l30 -31h16l-31 31h-15zM557.001 213v-30h15v30h-15zM328.001 152v-45l76 15v30h-76zM587.001 122v-15l31 -31v15z" />
    <glyph glyph-name="m" unicode="m" horiz-adv-x="1361" 
d="M80 1451l122.998 -0.00195312l217 -15l46 15c72 -10 108 -25.333 108 -46v-15c-30.667 0 -46 -10.333 -46 -31c44.667 0 75.334 -67 92.001 -201h-46v31h-31c0 -62 20.667 -93 62 -93v-15l-62 -62l15 -15l-15 -78v-46h15l16 15h15l-15 16v46l15 16v15
c19.333 0 45.333 -31 78 -93v-15l-47 -62h16l15 16h16l15 -47h15c34 268 65 422.667 93 464l-15 15v15c12.667 103.333 33 155 61 155h108c237.333 0 356 -15.333 356 -46c-41.333 0 -62 -31 -62 -93c-41.333 -5.33301 -62 -20.666 -62 -45.999l46 -47v-15l-46 31l-15 -16
v-15c92 -50.667 138.333 -86.667 139 -108l-16 -16h-31l-46 31l-16 -92c37.333 -52 68.333 -78 93 -78v-15l-15 -16v-15c20.667 0 36 -31 46 -93l-15 -15h-16l-46 123h-31v-15l15 -77c-37.333 -51.333 -68 -77 -92 -77v-31l77 -16v62h15l31 -31v-31l-46 -46l46 -77l-15 -47
h31v31h31v-15l-31 -62l15 -46h-15l-16 15h-15l-47 -15v-16c0 -82 20.667 -123 62 -123l-15 -77l15 -16c-44.667 0 -75.334 -25.667 -92.001 -77h-47l16 -15v-31l-31 -31l-46 31c0 -41.333 -10.333 -62 -31 -62h-47l-46 31l15 463v201c-20 0 -30 -41.333 -30 -124
c-17.333 0 -33 -41 -47 -123l-77 -31v-16c0 -20 20.667 -30 62 -30v-31c0 -79.333 -20.667 -125.666 -62 -138.999l16 -16v-15l-31 -46l31 -47l-16 -15v-16l16 -15l-16 -16h-15l-78 47l-30 -31c-20.667 0 -31 15.333 -31 46l-31 -31l15 -15l-15 -16h-47
c-27.333 0 -47.666 72.333 -60.999 217l46 46c-51.333 0 -77 92.667 -77 278c-13.333 0 -23.666 30.667 -30.999 92c-41.333 0 -62 15.667 -62 47l16 46c-20.667 0 -31 15.333 -31 46h-16c0 -40.667 -10.333 -61 -31 -61l109 -155c0 -20.667 -15.667 -31 -47 -31v-15
c31.333 -38 47 -74 47 -108h-16l16 -16v-15l-62 -62l-47 16l-30 -47l30 -46l-15 -77l77 -62v-15h-15l-47 15l-77 -93l-46 31h-31l-62 -46h-15l-31 31v509l15 62l-15 62v463c0 16.667 46.333 52.667 139 108l-15 77l15 16l-15 15l-16 -15h-31l-77 92zM1083 1359v-16h31v16
h-31zM1099 1281h31v31zM357.998 1251v-31h15l31 31h-46zM1006 1204v-15h31v15h-31zM326.998 1096v-31h31v31h-31zM310.998 1019l-46 -139l77 -31h16l31 62v31h-31v31h31v15l-31 31h-47zM1037 987.998v-31h-15l15 -46l16 15h92v31c-48 0 -84 10.333 -108 31zM1269 987.998h31
v-15h-31v15zM805.998 956.998v-31h30l31 31h-61zM882.998 817.998l61 -15v15l-30 31zM341.998 833.998v-31h16v31h-16zM372.998 833.998v-31h16v31h-16zM280.998 802.998v-31h15v31h-15zM882.998 740.998l31 -31h30v31h-61zM403.998 725.998l31 -31v31h-31zM295.998 663.998
v-16h31v16h-31zM1053 663.998v-16h30v16h-30zM1269 647.998h31v-30h-31v30zM326.998 570.998l15 -15h16v46zM156.998 570.998v-31h31v31h-31zM1053 570.998v-31h15v31h-15zM1161 508.998v-30h77l-31 77zM341.998 478.998l-15 -108h46l16 46l-16 62h-31zM1068 339.998v-16
l15 -15v-16l-15 -15l-15 15h-31l15 -108l46 31l47 -15v15l46 46h15v-30h16v30l-108 31v16c30.667 0 46 25.667 46 77zM1284 370.998h16v-31l-31 -31l-31 31zM774.998 339.998l-16 -62l47 -31v15l-16 62l16 16h-31zM341.998 292.998h31v-31h-31v31zM542.998 215.998v-31h31z
M1269 138.998h15v-31h-15v31zM357.998 61.998h15v-47h-46v16zM1222 45.998l31 -31l-15 -15h-31l-31 31l15 15h31z" />
    <glyph glyph-name="n" unicode="n" 
d="M106 1433l228 0.00195312c20.667 0 31 -20.333 31 -61l46 31h15l15 -61l-46 -31l-45 31l-16 -92l92 -46c0 30.667 15.333 46 46 46v15c-30.667 0 -46 10.333 -46 31c0 23.333 25.333 38.666 76 45.999l31 -168h-46v-46c31.333 0 67 -30.333 107 -91l-16 -16l-15 16h-30
l-16 -107v-31l77 -30l15 15v-30h-46v-16l15 -15v-15c65.333 0 101 30.333 107 91l-15 16l30 30v15l-45 77l15 15v15l-15 15v16c0 91.333 25.333 137 76 137v30c-40.667 0 -61 10.333 -61 31l15 61l-15 61l15 15h183c0 -40.667 15.333 -61 46 -61
c10 -50.667 30.333 -76 61 -76v-46h-46c-25.333 0 -40.666 20.333 -45.999 61h-61l-15 -61l15 -46h46l46 31l15 -15l-15 -46l45 -76l-30 -31l46 -76l-31 -31l31 -30v-15c-23.333 0 -43.666 -20.333 -60.999 -61v-16c50.667 0 76 -10 76 -30l-15 -15h-16l-61 15v-30l77 -16
v-15l-46 -91l30 -31l-15 -15c6.66699 -61.333 27 -92 61 -92v-30h-76v-31c30.667 0 46 -10 46 -30c-54 -48.667 -89.667 -94.334 -107 -137.001v-16c0 -20 25.333 -30 76 -30l15 -15v-31l-30 -46l30 -30c-20.667 -4.66699 -41 -30 -61 -76l-15 15h-30
c0 -40.667 -10.333 -61 -31 -61l-45 15l-46 -15l-15 76l-46 -30l-92 76v46l31 45c-32.667 0 -78.334 101.667 -137.001 305l-16 138c-74.667 -8 -125.334 -23.333 -152.001 -46l-61 30l15 16v61h-15c-20.667 0 -31 -15.333 -31 -46h-30c0 30.667 -10.333 46 -31 46h-15v-31
l31 -46l-16 -15l-15 15h-15l-31 -30v-15h77v-16l-31 -45v-31h15c20.667 0 31 15.333 31 46h30c0 -40.667 10.333 -61 31 -61h15v30l-30 46l15 15h15l15 -15l16 15h30l15 -106l-45 -107l45 -46v-15l-30 -92l30 -30l-122 -122l-45 46l-31 -31l15 -15v-15l-15 -16h-46l-30 31
v152l46 46h15v-15l-31 -46l46 -30l137 106c-40.667 0 -61 15.333 -61 46l31 46v15l-46 15c0 -30 -10 -45 -30 -45l-46 45l-15 -15v-15l15 -61h-15l-46 46v198l15 61l-15 61v213l46 46l15 -15v-16l-31 -30l46 -15c0 30 10.333 45 31 45c20 0 30 -15 30 -45h61v30
c-30.667 0 -46 10.333 -46 31v15h31l15 -15h15v45h16l30 -30v-15h-30v-16l76 -30l15 15v15l-30 77l30 30l-61 31l-91 -77h-31v16l31 76h-46v-31h-31v31h-45l15 -76h-31l-30 30v198l30 31c0 -50.667 10.333 -76 31 -76l46 45h15c0 -30 10 -45 30 -45h16l45 122l-61 15l16 76
l-16 15h-15l-30 -30l-46 30h-15v-76h-16l-30 31v45zM959 1372h16v-30h-16v30zM151 1281h16v-31h-16v31zM975 1113h45l-30 -31l-15 16v15zM258 1052h46v30h-15zM853 960.002l15 -15h15v46zM578 960.002l31 -30l-31 -31h-15zM822 945.002l31 -30v30h-31zM334 823.002l31 -30
h15v61h-15zM289 808.002v-30h15v30h-15zM609 762.002l30 -30h16l-16 61zM304 762.002v-76c60.667 10 91 25.333 91 46l-30 30h-61zM624 701.002c-14 -60.667 -39.333 -91 -76 -91v-15c50.667 0 76 -15.333 76 -46l-15 -46l15 -15h15l16 46h30v-31h31v15l-16 46l61 31v15
c-40.667 0 -61 20.333 -61 61zM639 625.002h31v-30h-31v30zM350 595.002h30l31 -31v-15l-16 -15l16 -16v-30h-31l-30 61v46zM350 396.002h30v-30h-30v30zM563 351.002l15 -16l46 16l-30 30zM685 305.002v-46l31 31l-16 15h-15zM944 320.002h15l-30 -30h-15zM197 198.002v-30
h15v30h-15zM365 76.002l46 -46h-16l-30 31v15zM914 30.002h30v-30h-30v30z" />
    <glyph glyph-name="o" unicode="o" horiz-adv-x="1187" 
d="M569 1433l77 -0.000976562l76 -61h15l46 31l76 -77v-30l-15 -61l137 -168h15c0 30.667 10.333 46 31 46l15 -15l-15 -16v-15l15 -46h-46v-30h61v-31c-40.667 -4.66699 -61 -19.667 -61 -45l46 -77l-15 -15v-15l15 -15h15l-15 -15v-31h46c0 30.667 10 46 30 46l15 -15v-16
c-6 -30 -41.333 -45 -106 -45c0 -20.667 15 -31 45 -31l16 -15v-15h-77l61 -92l61 46h16v-15c0 -26.667 -35.667 -47 -107 -61l-15 15l-16 -15v-16l31 -30l-15 -15l-16 15h-30v-31l46 -15l-16 -15v-31h16l61 46l15 -15v-15c0 -18 -45.667 -43.667 -137 -77l-16 16
c-32.667 -51.333 -73 -77 -121 -77v-30l76 -31v-30l-16 15h-30v-30l-15 -16l15 -15h15c0 -26 -45.667 -46.333 -137 -61v-15h31v-31h-16c-27.333 0 -42.333 25.667 -45 77c-40.667 -15.333 -61 -30.666 -61 -45.999l15 -46l-15 -15h-16c0 18.667 -35.333 49 -106 91v-61h-31
l-15 16h-15l-16 -16v31h-15l-46 -31c-124 70 -195 126 -213 168l15 15c-60.667 93.333 -91 154.333 -91 183c-20.667 36.667 -36 133.334 -46 290.001c10 193.333 35.333 290 76 290l-15 15v15c0 89.333 50.667 165.666 152 228.999l-15 15v15c63.333 112 170 168 320 168z
M707 1296v-15h15l30 30v15h-15zM768 1326v-15h30v15h-30zM630 1311l16 -15v-46h-46v-30c30.667 0 46 -10.333 46 -31l-16 -15v-15l16 -16h15c0 30.667 10 46 30 46l31 -30v45c-40.667 0 -61 10.333 -61 31l15 15v15l-15 46h-31zM417 1235v-31h30l31 31l-31 30zM707 1235v-15
h30v15h-30zM478 929.999h-31.001v76l-15 -15h-15l-15 15h-16v-107l16 -61l-16 -45h16l-16 -15v-31h61v-30h-61v-16l16 -15v-15l-16 -15l-15 15h-30l30 -46l-46 -46v-15l46 31l15 -46l16 15h15l61 -61v-76l-15 -15v-16l183 -30c56.667 91.333 102.334 137 137.001 137l-15 15
v61h45v16c-40.667 0 -61 10 -61 30l31 46l-46 46v91l-15 91l15 46c-44 54 -94.667 84.667 -152 92c-38 0 -73.667 -35.667 -107 -107zM858.999 944.999v-30l61 -16l15 46h-76zM462.999 914.999v-46l-31 30l15 16h16zM309.999 761.999v-76h15l31 31v45h-46zM202.999 655.999
l-30 -61l30 -31h92v31l-31 30l-15 -15h-15l-15 46h-16zM416.999 441.999h30v31zM614.999 334.999v-30h15v30h-15zM675.999 334.999v-30l31 30h-31zM965.999 304.999h61l-16 -76h-30zM401.999 273.999l15 -45h15l31 30v15h-61zM568.999 273.999v-15h61v15h-61z
M660.999 228.999l91 15v30h-45zM248.999 212.999v-15h31v15h-31zM614.999 212.999v-45l31 30l-16 15h-15zM690.999 197.999v-30h16v30h-16zM736.999 151.999h31v31zM858.999 45.999h30v-16h-30v16z" />
    <glyph glyph-name="p" unicode="p" horiz-adv-x="1031" 
d="M960 1219c0 -86.667 15.333 -147.668 46 -183.001l-31 -46l31 -91l-31 -31l15 -15c-6.66699 -81.333 -16.667 -122 -30 -122l15 -76l-46 15l-15 -15h-15l-61 46h76l-15 15v15l15 16v15c-101.333 -15.333 -152 -40.666 -152 -75.999l30 -31l-30 -30
c-20.667 0 -31 15 -31 45h-76c0 -20 -20.333 -45.333 -61 -76l46 -76v-15h-15l-61 45h-15c-20.667 0 -31 -20 -31 -60l-107 30v-15c0 -27.333 -15 -58 -45 -92v-15c40.667 0 61 -10 61 -30l-16 -16l-15 16h-30l-31 -61l31 -61l-31 -122l15 15h16l15 -15v-31h-46l-30 31
l-76 -15h-46v-61c60.667 0 91 -10.333 91 -31l-15 -15h-46l-45 30h-16l-45 -30l-46 46v487l15 92l-15 15v15l15 594v153l31 30h365c93.333 0 159.333 -20.333 198 -61l46 15c30.667 -42.667 46 -83 46 -121h-15l-31 30l15 15v15c-47.333 0 -82.666 10.333 -105.999 31h-16
l16 -76l-61 -15v-31l76 -15l-15 -15v-31l15 15h30l16 -15h15c0 30.667 10 46 30 46h16l15 -15h15v15l-15 15v15l15 46h15c17.333 0 32.666 -30.333 45.999 -91l-15 -46h61v30l-16 77h31v-31h30zM137 1341l31 -31v-15l-61 -15v-31c30 0 45 -10 45 -30l-15 -46h31
c0 30.667 10 46 30 46l61 -61v15l-15 76l15 -15h31l30 31c-60.667 13.333 -91 28.333 -91 45l45 46l-15 15h-15l-46 -30l-30 30zM396 1325l-15 -15l15 -15v-15l-15 -15v-16c20 0 30 -15 30 -45l46 -16v107zM350 1173v-30h31zM427 1158v-31c30 0 45 -20.333 45 -61h-15
l-15 -60h-15c-20.667 0 -31 15 -31 45h-30l15 -15v-15l-46 -122v-15h15c30.667 0 46 15 46 45l15 16h31v-122h107l76 45l-16 46l16 92v15c-30.667 0 -46 20.333 -46 61zM899 1143l-31 -92v-15h46l15 76v31h-30zM823 1127v-30h15v30h-15zM350 1082h46v30h-15zM168 1021
c0 -30.667 -20.333 -61.333 -61 -92h45l16 16c30 0 45 -15.333 45 -46l16 -15h15c0 30 15.333 45 46 45v31h-61l15 15v46c-20.667 0 -31 -15.333 -31 -46l-15 -15h-30l30 46l-15 15h-15zM838 914c30.667 0 46 -20.333 46 -61h15l30 31l-15 106h-15zM152 914v-61h16l30 61
h-46zM396 884v-31h15v31h-15zM259 701v-31h-15l-76 16l45 -61l-76 -16c0 -20 25.333 -30 76 -30l16 -15v-31l-16 15h-15l-30 -30l30 -30l31 30l61 -15l-16 76h16l15 -15h15l15 15v30c-60.667 0 -91 10.333 -91 31l46 15v46h-31zM442 609v-45h30v45h-30zM701 625l30 -31
l-15 -15h-15v46zM762 564h15v-31h-15v31zM152 381l-15.001 -15l15 -16v-30c0 -20.667 -15 -31 -45 -31v-30h45v-46l-15 -15v-15h15l46 30c20.667 0 31 -15 31 -45l91 -31v76l-15 -15h-31l-45 46l61 15v30c-51.333 0 -77 10.333 -77 31c40.667 0 61 15.333 61 46h-45
c0 -30.667 -10.333 -46 -31 -46c-15.333 40.667 -30.666 61 -45.999 61z" />
    <glyph glyph-name="q" unicode="q" horiz-adv-x="1179" 
d="M549 1433h64.001c116 0 223 -42.667 321 -128h-16l-16 16h-16l-16 -16l16 -16v-97c32 0 48 -10.667 48 -32l96 32l16 -16v-16c0 -21.333 -16 -32 -48 -32l64 -176l-32 -97c30 0 51.333 -42.667 64 -128h48v-32c-64 -6.66699 -96 -22.667 -96 -48l32 -32v-49l-48 -80h64
v-32c-32 0 -48 -10.667 -48 -32l32 -32l-16 -64l32 -65l-16 -16h-32v49l-96 -65l-48 16l-16 -16v-16l32 -32l-16 -16v-16l-16 16h-33l-16 -80c21.333 0 43 -32 65 -96h16l128 80l32 -96c-21.333 0 -32 -16.333 -32 -49h-32v33l16 16v16l-128 -32l16 -17v-16l-16 -64h16
l48 16l-113 -96h-48c-42.667 21.333 -64 53.333 -64 96c42.667 16 64 32 64 48c-48 0 -101.333 27 -160 81l-64 -48l-16 64h-32c0 -26.667 -21.667 -42.667 -65 -48c0 28 -37.333 49.333 -112 64l-32 -32h-16c0 64 -21.333 96 -64 96c-64.667 0 -97 10.667 -97 32
s16 32 48 32v32c-106.667 0 -160 144.667 -160 434v32c0 138.667 21.333 208 64 208l-16 16v16c0 176 53.667 272.333 161 289c0 21.333 16 32 48 32l-32 49v16c85.333 96 181.666 144 288.999 144zM645.001 1305l16 -49h32l-16 49h-32zM725.001 1289v-16h32v16h-32z
M982.001 1289l32 -65l-16 -16h-16l-32 32v16zM420.001 1256l-16 -16v-16l32 -32h16l48 48l-16 16l-16 -16h-16l-16 16h-16zM613.001 1224v-16h32v16h-32zM468.001 1032l15.999 -16l16 16h16l33 -32l-49 -32l-48 32v-32h-32v64h-32c0 -36 -16 -73.667 -48 -113l32 -48
l-48 -160v-32l16 -16v-16h-32v-16h16l64 16l-16 16v48h16l48 -48c0 -21.333 -16 -32 -48 -32v-33c38.667 0 65.334 -74.667 80.001 -224l129 -64l176 160l-32 32c0 21.333 21.333 32 64 32v16h-48l16 81l-16 16h-16l16 64c-24.667 214 -62 321 -112 321l-48 -16l-16 80h-65
c-16 0 -32 -21.333 -48 -64zM597 1080v-16h32v16h-32zM228 984v-16h32v16h-32zM1126 1000l16 -16v-16l-16 -16h-16l-16 16v16l16 16h16zM452 919h16.001l-16 -80l16 -16l-64 -32l-16 16c25.333 74.667 46.666 112 63.999 112zM886.001 903l32 -32l16 16v16h-48zM1126 919
l32 -32v-128h-32v80l-32 48zM1158 679l16 -16v-32l-32 -33l-16 17v32zM115.001 550c32 0 48 -21.333 48 -64h49l-17 16v32h65v81h-81zM950.001 566v-32h16v32h-16zM372.001 518v-32h32v32h-32zM1094 518h32v-16h-32v16zM998.001 358v-16h32v16h-32zM356.001 213v-16h32v16
h-32zM693.001 181h32v32zM998.001 181l16 -16v-48l-32 -32h-80v32l16 -16h16c0 31.333 21.333 58 64 80zM661.001 149v-32h32zM741.001 5v-32h16v32h-16z" />
    <glyph glyph-name="r" unicode="r" horiz-adv-x="1054" 
d="M75 1433l412 -0.00195312c223.333 -25.333 335 -71 335 -137c40.667 0 61 -30.667 61 -92c51.333 0 77 -55.667 77 -167c-30.667 0 -46 -15.333 -46 -46v-15h15c0 30 10.333 45 31 45l30 -30v-15l-15 -16l15 -15v-15c0 -23.333 -25.333 -38.666 -76 -45.999v-15
c40.667 -5.33301 61 -20.666 61 -45.999l-15 -15h-16l-45 30l-16 -15v-30c40.667 0 61 -10.333 61 -31l-106 -198l15 -122c-40.667 -5.33301 -61 -20.666 -61 -45.999v-15l76 15h15l-45 -61v-15h15l15 15h15l16 -15v-15c-46.667 -20 -72.334 -40.333 -77.001 -61h16l76 15
l30 -107l-15 -15l46 -46v-30l-61 -15l15 -16v-30h-46v61l-76 -46l-45 15l-31 -30h-76l-15 15l-16 -15h-15c-24 0 -49.333 81.333 -76 244l107 46h30v-31h46l30 31c-50.667 0 -76 10 -76 30v15h-61c0 -40.667 -10 -61 -30 -61h-46c-17.333 0 -42.666 71.333 -75.999 214h-16
c-15.333 -40.667 -30.333 -61 -45 -61h-16c-20 0 -30 15.333 -30 46h-31l16 -16v-15l-16 -15v-15l31 -31v-15l-31 -31h-15l15 -61h92v-15c0 -20 -25.333 -30 -76 -30l76 -77v-30h-31c0 20 -15 30 -45 30l-46 46c0 -40.667 -15.333 -76.334 -46 -107.001l15 -61l-122 31
l-61 -61l-30 30v1373zM441 1067c0 -52 -15 -92.667 -45 -122l45 -107c64 0 115 35.667 153 107l61 15l-137 107h-77zM335 1021v-15h61v15h-61zM91 929.998c30 0 45 -15.333 45 -46h46l61 46l-15 46l-15 -16h-16l-30 31zM868 944.998l15 -15v-15l46 15v15h-61zM822 761.998
l31 -30l15 15v15h-46zM838 670.998v-15h30v15h-30zM746 350.998v-16h31v16h-31zM136 334.998c0 -30 -15.001 -45 -45.001 -45v-16l30 -91c78.667 58 119.334 98.667 122.001 122l-15 15h-15v-30h-46v30h30v15h-61zM364.999 350.998l15 -16v-15l-15 -15h-15l-15 15v15l15 16
h15zM608.999 243.998v-31h15l31 31h-46zM852.999 182.998c15.333 -40.667 30.667 -61 46 -61l15 15l-15 46h-46zM899 90.998v-15h30v15h-30zM960 45.998h15v-31h-15v31z" />
    <glyph glyph-name="s" unicode="s" horiz-adv-x="872" 
d="M524 1433c164 -34.667 246 -75.666 246 -122.999l-46 -31l-46 15l-46 -77l46 -31l46 31h16v-61l-124 -31l-15 15l-31 -31l-46 31l-77 -123l-31 62h-46l-31 -93c0 -20.667 25.667 -31 77 -31l15 -15v-31l-15 -15v-16c112 0 220 -56.333 324 -169v-62
c0 -20.667 -15.667 -31 -47 -31c35.333 -72 61 -108 77 -108l16 16h15v-16l-15 -61l31 -31c-14 -34 -55.333 -64.667 -124 -92l-15 15h-15l-16 -15h-15l15 -16v-31l-31 -46l31 -46l-15 -16h-16l-15 16l-15 -46c-20.667 0 -31 25.667 -31 77h-16l-77 -62l-61 15l15 -15v-31
h-31v-15l16 -16v-15l-108 -46l-31 46l-200 -77v15l15 47l-31 30v47l16 92c-20.667 46 -31 112.667 -31 200l15 16h16l169 -108h77c72 0 108 36 108 108v15l-154 108v31h-15l-78 -15c-112.667 109.333 -169 206.666 -169 291.999l31 31l-31 46v62
c59.333 277.333 198 416 416 416h108zM401 1294l-47 -61l16 -16h61v47zM154 1279v-15l15 -16v-15h-46l46 -47h47l15 47zM462 1264v-62l31 31zM385 1186l16 -46l15 16h15l16 -16h15v46l-77 16v-16zM647 1109v-15l-31 -31h-15v31zM693 1109h16v-30h-16v30zM755 1063l15 -15
v-62l-30 -31l-16 16v31l16 15v15l-16 16l16 15h15zM462 586.001v-31h31v31h-31zM724 462.001v-31h31v31h-31zM324 139.001v-31h30v31h-30zM416 123.001h154v-15l-31 -31l-15 15v16l-16 -16h-30l-16 16l-15 -16h-31v31zM693 123.001l16 -15v-16l-16 -15h-15l-15 15v16l15 15
h15zM92 92.001l31 -30v30h-31z" />
    <glyph glyph-name="t" unicode="t" horiz-adv-x="902" 
d="M76 1433l739.001 -0.000976562l31 -31l-46 -46l-15 15c0 -61.333 -20.667 -92 -62 -92c0 -15.333 20.667 -30.666 62 -45.999c0 -31.333 20.333 -47 61 -47h16v-46l-62 -61h-31v30h46v31c-40.667 0 -61 10.333 -61 31l15 15h-15l-46 -46v-15c30.667 0 46 -10.333 46 -31
l-46 -15l-16 15h-31v-15h31v-16l-31 -31c-6.66699 27.333 -32.334 53 -77.001 77h-15v-77h31v-30h-31v-47h15l47 16c-41.333 -48.667 -67.333 -100 -78 -154h16c30.667 10 46 40.667 46 92l16 -15h15l-15 -16v-15l15 -77c-30.667 0 -46 -15.333 -46 -46l-16 -16h-15
c0 -51.333 20.667 -77 62 -77v-61h-31v46h-31l-31 -170c0 -30.667 15.333 -46 46 -46v-31h-31v-108l16 16h15l16 -16v-15l-47 -15c5.33301 -95.333 21 -157 47 -185l-16 -16h-15l-31 31h-15c0 -51.333 -15.667 -77 -47 -77c-20 0 -30 25.667 -30 77h-93v-15l16 -16v-15
l-93 -31l-15 15v216l31 31l-31 123v462l15 93l-31 123l16 16h-31v15l-93 -31h-30c0 20.667 -15.667 31 -47 31l-15 15v108l46 47c4 -28 29.667 -48.667 77 -62l31 77l-15 15l-16 47h-15c-30.667 0 -46 -15.667 -46 -47l-16 -15h-15l-31 31v92zM322.001 1371v-30h16v30h-16z
M384.001 1371c0 -27.333 -25.667 -53 -77 -77l-15 16h-16l-15 -16v-30c51.333 0 77 -10.333 77 -31l-46 -47v-15h46v46h15c20.667 0 31 -20.333 31 -61h31v46l-31 46l15 16l16 -16h15l31 31l-62 15l16 77h-31zM553.001 1341l-15 -77.001l15 -16h16l-16 -15v-31h16
c3.33301 41.333 34 62 92 62c-10 36.667 -46 62.334 -108 77.001zM168.001 1171c0 -30.667 -20.333 -46 -61 -46v-16h46c0 20.667 15.333 31 46 31zM60.001 1063h47l-31 -31h-16v31zM338.001 1002v-31c40.667 0 61 -15.333 61 -46h47v15l-31 62h-77zM292.001 954.998l30 -30
l16 15v15h-46zM322.001 877.998h31v31zM384.001 908.998v-31h31zM600.001 739.998l31 -31l-16 -16h-15v47zM353.001 692.998v-46h31c0 -20.667 -25.667 -31 -77 -31v-30c41.333 0 62 -10.333 62 -31l-31 -31v-31h15l46 31l62 -31v46l-15 47h46v30
c-30.667 0 -46 20.667 -46 62l-62 -31c0 30.667 -10.333 46 -31 46zM569.001 523.998h46v-16l-31 -30l-15 15v31zM338.001 338.998l31 -31v31h-31zM399.001 338.998v-31h16v31h-16zM307.001 292.998v-31h46v31h-46zM399.001 292.998v-31h77v31h-77zM338.001 246.998l-31 -62
h31l31 31v31h-31zM399.001 230.998v-31h16v31h-16zM600.001 215.998h46v-16l-31 -31l-15 16v31zM615.001 45.998h31v-31h-31v31z" />
    <glyph glyph-name="u" unicode="u" horiz-adv-x="963" 
d="M762 1433c14.667 0 29.6709 -20.334 45.0039 -61.001h31l-16 -76l16 -46l-61 -15v-31c30 0 45 -10 45 -30v-46l-30 -46c0 -30 15.333 -45 46 -45v-31l-16 15h-30l15 -15v-30l-15 -16l30 -76l-15 -15v-15c0 -81.333 30.667 -122 92 -122l-16 15v15l16 15h15l15 -15v-61
h-61l-15 16h-15l-16 -16v-106c30.667 0 46 -10.333 46 -31l-61 -15v-31l61 -15c15.333 40.667 30.666 61 45.999 61h15v-46c0 -20 -20.333 -30 -61 -30l-61 -122h-15v-15h46l-61 -153l15 -46l-15 -15h-31v46h-15l-91 -61l30 -31l-15 -15l-15 15h-46l-15 -15h-16l-30 31
c0 -40.667 -10.333 -61 -31 -61c0 24.667 -50.667 55 -152 91l-15 15h-16c13.333 -46.667 33.666 -72 60.999 -76l16 15v-15l-31 -76l-15 15h-15l15 15v16c-30.667 26.667 -46 57 -46 91h-15l-15 -15h-16l-45 15l-16 -15v-15l31 -31h-15l-46 46l15 15
c-36.667 0 -77.334 51 -122.001 153l15 15v15l-30 214v335l30 46l-30 45v16l30 45l-30 31v198l30 31c20.667 0 31 -15.333 31 -46l15 -15h61l46 61h30v30c-30 0 -45 25.333 -45 76l-16 -15h-61v15l31 31h30l16 -15l15 15h30c51.333 -28 77 -73.667 77 -137l-31 -92l31 -30
v-61l-46 -16l46 -76l-31 -76c13.333 -50.667 28.666 -76 45.999 -76c0 40.667 10 61 30 61l31 -31v-15l-46 -46h-15l-46 31v-16c20.667 -23.333 31 -58.666 31 -105.999c50.667 0 76 -10.333 76 -31l-31 -30l-30 30h-15v-45l30 -31v31h31l15 -138h-15
c14 -42 39.333 -72.333 76 -91c60.667 0 91 30.333 91 91v77c51.333 0 77 10 77 30c-51.333 0 -77 15.333 -77 46v152l31 92l-15 45l15 61l-31 122v16l92 76l30 -31v16l-15 15v15l61 15v31l-61 15l15 15v61h-15c0 -30 -10 -45 -30 -45h-16l-45 76l15 15h168zM75.0039 1418
c30.667 -10 46 -40.667 46 -92l-15 -15h-31l-30 31v45zM365.004 1342h31v-16h-31v16zM609.004 1296l46 -0.000976562v-15c0 -23.333 -25.333 -38.666 -76 -45.999v30zM197.004 1204v-15h31v15h-31zM365.004 1204h31v-30zM380.004 1128h31v-15h-31v15zM838.004 1098h15v-31
h-15v31zM624.004 1037v-31l31 31h-31zM655.004 975.998v-16h30v16h-30zM914.004 990.998l15 -15v-16l-15 -15h-31v15zM365.004 975.998h31v-31h-31v31zM624.004 929.998v-46h31v15zM197.004 655.998l16 -16l-107 -15l76 -76c42 14 72.667 39.333 92 76
c-30.667 0 -46 10.333 -46 31l15 45zM701.004 700.998v-30h15v30h-15zM533.004 304.998v-31h46v31h-46zM640.004 289.998v-16h61v31h-16zM380.004 289.998l-15 -16v-15l15 -15h16l15 15v15l-15 16h-16zM853.004 304.998h30l-30 -31v31zM228.004 75.998h46v-30h-16z
M518.004 45.998h30v-31h-30v31z" />
    <glyph glyph-name="v" unicode="v" horiz-adv-x="986" 
d="M708 1448c164.667 -17.333 246.998 -43 246.998 -77v-31c0 -82 -25.667 -123 -77 -123v-46l30 -46l-15 -62h15l47 31l15 -16v-31l-92 -61v-62h46v-15l-16 -16v-15l16 -15h-31l-15 15h-16v-15l31 -93h-15l-62 -15v-16h46v-30l-46 -47l31 -92l-16 -15v-16l16 -46h-46v-31
l61 -15v-31h-31l16 -15v-31h-16l-46 31c-40.667 -46.667 -61 -82.667 -61 -108h30v-31l-77 -77v-16l77 16v-31l-15 -15v-16h15l16 16h15l16 -16v-15l-154 -62v-31h-47l-61 47c-43.333 -41.333 -94.666 -62 -153.999 -62l-16 62l-46 -31l-31 200l31 31h-31v46l16 15v16
c-62 0 -93 51.333 -93 154l-15 62l77 15c0 20.667 -25.667 31 -77 31c-41.333 88.667 -62 196.334 -62 323.001h46l62 16l62 -16h30c0 20.667 -20.333 31 -61 31l-16 62l-15 -16h-15l-47 31v-15l16 -47l-16 -15h-77l-46 247l16 61l-62 154l15 16h324l31 -31l-16 -16h-15
l46 -77v-15h-46l-16 15h-15l15 16v15l-30 31l-93 -31v-15l16 -16v-15l-62 -15v-16l62 -46l-16 -15v-47l46 31h16l15 -15h16v15l-16 16v15l16 15h77l31 -30v-16h-47v-61l16 -93l-16 -46l31 -31l-15 -46h15l46 -46l-46 -47v-30c72 -24.667 108 -45.334 108 -62.001l-15 -15
l30 -31l-15 -16v-15l46 -31h16v93c0 105.333 15.333 182.333 46 231l-16 15c10.667 154 31.334 231 62.001 231l-15 46c6.66699 144 27 216 61 216zM707.998 955v-31l31 -31h15l31 31v31h-77zM245.998 909v-16l31 -30v15zM183.998 878v-31l31 31h-31zM507.998 847v-15
l-31 -31l-31 31l16 15h46zM461.998 693v-31h31zM260.998 678v-31h31zM337.998 678v-46l31 30v16h-31zM738.998 647l46 -31h16v31l-31 31zM877.998 693h30v-31h-30v31zM337.998 570l62 -15l16 15v15l-16 16h-31zM553.998 601c0 -20.667 -25.667 -31 -77 -31v-46h62l46 61
l-15 16h-16zM322.998 555v-31h15v31h-15zM260.998 508v-15h31v46zM476.998 462v-31h31v31h-31zM784.998 246h31v-15h-31v15zM630.998 139v-16h46v16h-46z" />
    <glyph glyph-name="w" unicode="w" horiz-adv-x="1448" 
d="M122 1426c60.667 -3.33301 91 -13.667 91 -31l15 16h15l31 -31l-61 -76c-24.667 0 -50 -15 -76 -45h-15v-15l30 -76h106c5.33301 40.667 20.666 61 45.999 61l-46 121l16 15h30l61 -167l30 -30v-30h-46l16 -61l-31 -91c20.667 0 31 -15.333 31 -46l-46 -75
c20 0 30 -15.333 30 -46l91 15l46 -15v15l61 546v15l30 31h30l91 -15l46 15l15 -15l76 15h60l31 -31v-30l-76 -91l15 -45h-30v-16l60 -91l-15 -45h15l16 -15l-16 -46h16c50 0 75 -40.333 75 -121l-45 -46l15 -45h-45v-15l15 -15v-16c40 0 60 20.333 60 61h31l60 576l31 31
c131.333 0 197 -15.333 197 -46l-30 -30v-15h30l30 -46l-15 -76v-75h46v-16l-61 -106l30 -30v-15l-45 -61v-15h15l15 15h15l15 -15v-15l-15 -15h-15l-15 15h-15l-31 -76v-15c40.667 0 61 -10.333 61 -31c-30 -10 -45 -40.333 -45 -91v-45l75 15v-45l-30 -31l-30 31h-15v-61
c40 0 60 -10 60 -30v-16l-60 -15l-46 15v-15l-30 -30l15 -15v-15l-30 -46l45 -15l-15 -76l15 -15h15l15 15l16 -61l-46 -45l46 -15v-31l-46 -15l-15 15h-30c-20.667 0 -31 -25 -31 -75h-15l-45 30l-31 -76l-15 15h-15l-15 -15h-15l-76 15l-91 -15l-46 212l15 16v15
c-20 39.333 -35 135.333 -45 288l30 30v15c-20 0 -30 25.333 -30 76l-15 15h-15c0 -50 -15.333 -75 -46 -75l15 -16v-75c0 -20.667 -15 -31 -45 -31v-15l15 -15v-15h-61l76 -91v-31h-15c-15.333 0 -30.666 20.333 -45.999 61l-15 15h-15l-15 -15v-61l15 -15v-15h-30l30 -136
c-24 0 -39 -35.667 -45 -107l-107 -15h-30l-76 15l-30 -30l-15 15l15 15v31h-15l-46 -31h-30v76l-15 61l15 45c-30.667 0 -46 71 -46 213l16 60l-31 31l31 30l15 -45c48 0 83.333 25 106 75l-15 16l-15 45h-16l-45 -15l-15 15c0 -30 -10.333 -45 -31 -45
c-33.333 0 -53.333 80.667 -60 242l15 46l-30 30v15c0 20.667 15 31 45 31c-60.667 27.333 -91 179 -91 455zM820 1335l15 -15h15v45zM653 1289c0 -30 -15.333 -45 -46 -45l-15 -15v-16h61c0 20.667 15 31 45 31v30zM1275 1289v-15h30v15h-30zM895 1229l31 -31v-30h-31v61z
M653 1183v-15l60 -15v30h-60zM395 1062h15l30 -31l-15 -15h-15l-15 15v31zM410 985.999h30v-30zM1381 955.999h30l-30 -31v31zM668 909.999v-15h30v15h-30zM880 909.999v-45h15l31 30l-15 15h-31zM440 909.999v-15l-30 -30l-15 15v15l15 15h30zM668 864.999v-16l15 -15v-15
l-15 -45l45 15v45l-30 31h-15zM1366 848.999h15v-15l-31 -30h-15v15zM425 773.999l15 -15.999v-15l-45 -45v-15c50.667 11.333 76 51.666 76 120.999h-15zM683 667v-15h30v15h-30zM425 652v-30h15v30h-15zM365 607v-31l30 -45l-15 -61l30 -30h15c0 60.667 30.333 106 91 136
l-30 31l-30 -31h-16l-45 31h-30zM622 576v-45h46v15l-30 30h-16zM956 546v-30h30zM380 334l30 -31v31h-30zM1108 303v-15h45v15h-45zM1259 303h31v-30h-31v30zM380 273v-15l15 -46l-15 -15h30v76h-30zM1093 197v-30h45l-30 30h-15zM1214 76h30l31 -30l-16 -16l-45 16v30z
" />
    <glyph glyph-name="x" unicode="x" horiz-adv-x="925" 
d="M604 1456c92.667 -10 138.999 -25.334 138.999 -46.001l-30 -31v-16c40.667 0 61 -10.333 61 -31v-15c0 -20.667 -15.333 -31 -46 -31v-16l31 -31l15 16l16 -16v-15l-47 -16v-31c27.333 0 53.333 -31 78 -93l-78 -15v-47l16 -15v-16c-32 0 -63 -36 -93 -108v-16h47v-31
h-31c-20.667 0 -31 15.667 -31 47h-31v-16c0 -51.333 10.333 -77 31 -77l46 15v-15l-15 -62l31 -77h-31c0 30.667 -10.333 46 -31 46c-41.333 -15.333 -62 -30.666 -62 -45.999l124 -93l-16 -47h16l46 -15l15 15l62 -170l-15 15h-31v-15l31 -124l-47 -16v-15
c28 -41.333 54 -62 78 -62v-62l-62 -62h-31l-93 15l-62 -15l-124 263h-15c0 -60 -20.667 -101.333 -62 -124l-47 31c0 -20.667 -15.333 -31 -46 -31v-31l15 16h47l-31 -31h-78c0 -52 -67 -78 -201 -78l-16 -15h-15l-31 31l263 712l-170 465l62 62v16l-47 -31l-15 15l15 16
v31h-15l-47 -16l-46 124l15 16h124l47 -31l93 15v-62h15l93 62l16 -15v-62c-72.667 0 -109 -31 -109 -93l16 -16h15l93 31l47 -31c24.667 0 50.334 62 77.001 186zM789.999 1425h15v-31h-15v31zM572.999 1286v-47l78 16v31h-78zM851.999 1286h15v-31h-15v31zM309.999 1224
v-16h31v16h-31zM665.999 1208l31 -31v31h-31zM386.999 1177l16 -93h31c0 54 -15.667 85 -47 93zM727.999 1146v-62h31v62h-31zM557.999 959.999v-31h31v31h-31zM386.999 603.999v-31l31 31h-31zM712.999 448.999v-15l30 -31v46h-30zM371.999 402.999l-16 -16v-15l16 -16h15
l16 16v15l-16 16h-15zM386.999 324.999v-46h31l16 46h-47zM835.999 340.999l78 -140l-16 -15h-15l-47 31l16 15l-16 78v31zM324.999 293.999v-31l31 31h-31zM557.999 278.999v-31h31v31h-31zM371.999 247.999l-16.001 -16v-15l47 -47h15c-13.333 52 -28.666 78 -45.999 78z
M913.998 154.999h15v-31h-15v31zM371.998 61.999h31l-31 -31v31zM324.998 45.999h16l31 -31h-47v31z" />
    <glyph glyph-name="y" unicode="y" horiz-adv-x="1016" 
d="M263 1456l30.999 -45.9961l-15 -47h46c3.33301 41.333 24 62 62 62l16 -15v-16l-93 -93v-31c0 -86 36 -153 108 -201h16v31h31l15 -47l-170 -139h15l78 15v-31c-31.333 0 -47 -25.667 -47 -77c97.333 36.667 149 72.667 155 108c0 20.667 -20.667 31 -62 31v16l78 62
l108 403c126.667 -10.667 199 -26.334 217 -47.001l31 31h15l16 -15l15 15h16l31 -31c-41.333 0 -77.666 -15.333 -108.999 -46l-15 15h-16v-15l31 -93c0 -62 -31 -93 -93 -93v-16l47 -62l-16 -15h31c0 41.333 10.333 62 31 62l31 -31l-62 -124l-15 15h-16l-62 -62v-46
c31.333 0 47 -10.333 47 -31s-20.667 -31 -62 -31l-15 -62h30l16 15h15v-31c0 -30.667 -20.333 -46 -61 -46l-47 16v-16l31 -46c-34 -10.667 -54.667 -31.334 -62 -62.001l16 -16h15l16 16h15l16 -16v-62h-31v31l-16 -15h-15l-16 15h-15l15 -77
c0 -20.667 -15.333 -31 -46 -31c29.333 -52 60.333 -78 93 -78v-31h-16l-46 16v-31l15 -16v-15h-31v-31h31v31h31l31 -78v-124c0 -30.667 -51.667 -56.334 -155 -77.001l-77 31l-16 -16v-15l-15 15h-16l-77 -15l-16 15v47c0 66 57 117.667 171 155
c-34 44 -75.333 75 -124 93c0 -41.333 -10.333 -62 -31 -62l-16 15v171c0 92.667 -25.667 139 -77 139v47c-28 237.333 -69.333 381.666 -124 432.999c-20.667 98 -62 211.667 -124 341l31 31h186zM417.999 1255v-31l-77 -16v31zM758.999 1038v-31h46l-31 31h-15z
M355.999 1022v-31h16v31h-16zM402.999 743.004v-15h31v15h-31zM665.999 465.004h31v-31h-31v31zM619.999 217.004l-16 -109v-46l16 15l15 -15h31v46l-31 47l16 62h-31zM324.999 201.004h31v-46h-31v46z" />
    <glyph glyph-name="z" unicode="z" horiz-adv-x="895" 
d="M261 1433l31 -0.000976562v-15l184 15h370v-62l-15 -15l15 -15v-16c0 -20.667 -15.333 -31 -46 -31l15 -15v-15h-15l-46 15v-15l-16 15h-107l15 -77h15l77 15v-15c0 -20.667 -15.333 -31 -46 -31l-15 -15v-16l77 -77c-20.667 0 -31 -25.667 -31 -77h-46v31h-62l-31 -62
v-30l31 -31l62 46h15c-30.667 -62 -61.334 -93 -92.001 -93v-15l31 -46v-16h-108c0 -20 30.667 -35.333 92 -46v-31h-31l-15 16h-16v-31c31.333 0 47 -10.333 47 -31v-15c-33.333 -92.667 -64.333 -139 -93 -139c10.667 -61.333 26 -92 46 -92h232l30 -31v-46l-30 -31
l15 -108v-16c0 -20 -15.333 -30 -46 -30v-62h31v-31l-16 16h-31l-15 -16h-15l-16 46l-61 -92h-16l-15 15v16l46 15v16l-31 30l-77 -77v77h-31l-46 -30l-62 30c-7.33301 -51.333 -22.666 -77 -45.999 -77l-46 47c-79.333 -8 -136 -28.667 -170 -62h-61l-16 15h-15
c57.333 248.667 124 449 200 601c0 98.667 31 196.334 93 293.001l15 93l-61 61l30 31h16v-31h31c-40.667 82 -71.667 123 -93 123v-30l16 -47l-16 -15h-15l-47 31l-77 -16h-30v31l15 16v15c-41.333 0 -62 77 -62 231zM384 1341l-31 -77l16 -16h77l15 77zM153 1325v-45.999
h46v-15l-15 -16v-15h15l31 31c-4 27.333 -29.667 47.666 -77 60.999zM399 1217v-31l31 31h-31zM785 1186l15 -15v-15l-15 -16h-16l-15 16v15l15 15h16zM91 1109h16v-46l-31 -31l-16 16v31zM430 663v-31h62l-31 31h-31zM399 601v-31h31v31h-31zM461 555l-15 -16v-15l15 -16
h15l16 16v15l-16 16h-15zM307 108v-31h46l-31 31h-15z" />
    <glyph glyph-name="cent" unicode="&#xa2;" horiz-adv-x="500" 
d="M249 1366l73.001 -0.000976562c19.333 0 34 -38.667 44 -116c38.667 0 58 -9.66699 58 -29v-44l14 -174l-14 -15h-15l-87 15l-43 -15l14 -72v-29l-14 -15v-14l72 -29h15l72 14l15 -14v-160c-7.33301 -29.333 -41.333 -53.666 -102 -72.999l15 -73v-58
c0 -22.667 -34 -37 -102 -43l-58 232c-50.667 0 -94.334 68 -131.001 204v101c0 80 48.333 182 145 306c0 67.333 9.66699 101 29 101zM337.001 1119l-15 -14v-29h44v14z" />
    <glyph glyph-name="Aring" unicode="&#xc5;" 
d="M507 1803l20 0.00195312c10.667 -5.33301 16 -12 16 -20h12c0 8 3 12 9 12l8 -12l-4 -4l4 -4l4 4h8v-17l-4 -16c10.667 -24.667 21.334 -39.334 32.001 -44.001h8v12h4l8 -8c-1.33301 -11.333 -5.33301 -17 -12 -17v-20l-8 -12l4 -4h12v20h4l13 -12l-13 -12v-4
c11.333 0 19.666 -5.33301 24.999 -16l-16 -29l4 -4l-4 -20v-24h4c0 8 2.66699 12 8 12l4 -4v-4l-4 -4l-12 -4v-5l4 -4v-4l-4 -4v-4l4 -12l-13 -8l-8 8h-4v-8h-4l-12 4l-4 -16h-24v-8c13.333 -2 20 -6 20 -12v-5l-4 5h-4l-12 -13l3 -14h70l45 -30h75v-15l-15 -15v-15h30v-31
l-45 -15l15 -15v-45l-15 -15l15 -75h30l46 30l15 -46l-15 -15v-15l30 -151h-30v61l-61 -30l-45 15v-15l91 -76v-15l-16 -45h46v45l30 -30v-60l-45 30l-31 -45c0 -30.667 35.333 -46 106 -46l15 -75h-15c-30 0 -45 -10 -45 -30l15 -46l-15 -90v-30h15l15 15l15 -15h30l-30 60
l15 15v15l-30 76h15c30 0 50 -80.667 60 -242l-15 -15l30 -30l-15 -15v-15l15 -15l-30 -30v-15c0 -20.667 15.333 -31 46 -31l15 -15v-15l-31 -30h31v-30c-30.667 0 -46 -10 -46 -30l61 -15l-15 -61l15 -45h-151l-60 15l-121 -30c-30 26.667 -55.333 102 -76 226l-15 15h-15
l-15 -15h-15l-45 15l-91 -15v30h-15l-30 -30v-15l15 15h30c0 -60 -20 -90 -60 -90v-15l30 -46v-30c0 -20 -65.333 -35 -196 -45l-60 30l-121 -15l-15 15v30c50 332 90.333 498 121 498l-15 45l15 15v16l-15 15v15c64 392 104 588 120 588l-15 15v15
c0 110.667 55.333 166 166 166l15 -15l38 5c-0.666992 5.33301 -7.66699 10.666 -21 15.999l-8 16v5l4 4v4c-24 20 -36 53.667 -36 101v16c0 50 6.66699 77 20 81l-8 8c0 20.667 12.333 35.667 37 45l12 16l-8 8v9c24 24 52.333 36 85 36zM468 950.002l30 -135l-61 -151
l31 -76h105l-45 317v91h-15zM478 1694l-12 -13l-12 8h-4l8 -12l-8 -12l4 -4l-4 -4v-12l16 -4v4l-4 16h16v-20l-12 -12l-12 4v-4c1.33301 -14 5.33301 -21 12 -21v-16h-12c0 19.333 -6.66699 29 -20 29v-5l24 -52l4 4h4l4 -4v-8c4.66699 0 8.66699 -7 12 -21l-4 -12h25l16 -4
c6.66699 0 18.667 12.333 36 37l4 -4l-4 32l4 12l-8 8v25l-4 24l4 12l-16 20l-24 9l-20 -5zM287 1312v-75h45v15l-30 60h-15zM528 332.002l-30 -45v-15c40 14.667 60 29.667 60 45l-15 15h-15zM875 91.002l-15 -46h15l30 30v16h-30zM965 106.002v-31h31v31h-31zM558 1267
v-30h30v30h-30zM347 332.002v-15h60v15h-60zM860 422.002h15l30 31v15zM784 588.002h31v30zM405 1588l4 -4v-4l-4 -20h8v8c8.66699 0 13 2.66699 13 8v16h-13l-4 -4h-4zM769 1101v-15h30v15h-30zM920 166.002h15l30 30h-15zM317 121.002v-30l30 30h-30zM724 799.002l30 -30
v30h-30zM543 1771l-4 -17l4 -4v-4l-4 -12l4 -4h4c0 8 4 12 12 12v8l-12 4l4 4v13h-8zM515 1750v-8c8 0 12 -5.33301 12 -16h4l4 12l-4 4v4l4 12h-4zM470 1758l-4 -20l4 -4h4l12 8c-4 10.667 -8 16 -12 16h-4zM624 1487l8 -8l-20 -17v13zM580 1669v-4l12 -12c0 8 4 12 12 12
l-8 8zM628 1637c0 -4 5.66699 -8 17 -12v12h-17zM608 1746l8 -12h-4l-12 4l-4 -4v8zM600 1576v-8h8l8 8v4h-4zM645 1588h4l8 -8l-4 -4h-4l-4 4v8zM446 1560l4 -12h4v16l-4 -4h-4zM539 1495v-8h4l8 8h-12zM535 1483v-13l8 9l-4 4h-4zM523 1767v-5h8v5h-8zM616 1548v-9h8z
M507 1495l8 -8v8h-8zM551 1466v-8h4v8h-4zM422 1653v-8h4v8h-4zM466 1535h8v8zM535 1511v-8l8 8h-8z" />
    <glyph glyph-name="AE" unicode="&#xc6;" horiz-adv-x="1411" 
d="M377 1448l15 -15l106 15h151l45 -30h75v-15l-15 -15v-15h30v-31l-45 -15l15 -15v-45l-15 -15l15 -75h30l46 30l15 -46l-15 -15v-15l30 -151h-30v61l-61 -30l-45 15v-15l91 -76v-15l-16 -45h46v45l30 -30v-60l-45 30l-31 -45c0 -30.667 35.333 -46 106 -46l15 -75h-15
c-30 0 -45 -10 -45 -30l15 -46l-15 -90v-30h15l15 15l15 -15h30l-30 60l15 15v15l-30 76h15c30 0 50 -80.667 60 -242l-15 -15l30 -30l-15 -15v-15l15 -15l-30 -30v-15c0 -20.667 15.333 -31 46 -31l15 -15v-15l-31 -30h31v-30c-30.667 0 -46 -10 -46 -30l61 -15l-15 -61
l15 -45h-151l-60 15l-121 -30c-30 26.667 -55.333 102 -76 226l-15 15h-15l-15 -15h-15l-45 15l-91 -15v30h-15l-30 -30v-15l15 15h30c0 -60 -20 -90 -60 -90v-15l30 -46v-30c0 -20 -65.333 -35 -196 -45l-60 30l-121 -15l-15 15v30c50 332 90.333 498 121 498l-15 45l15 15
v16l-15 15v15c64 392 104 588 120 588l-15 15v15c0 110.667 55.333 166 166 166zM287 1312v-75h45v15l-30 60h-15zM558 1267v-30h30v30h-30zM769 1101v-15h30v15h-30zM468 950l30 -135l-61 -151l31 -76h105l-45 317v91h-15zM724 799l30 -30v30h-30zM784 588h31v30zM860 422
h15l30 31v15zM347 332v-15h60v15h-60zM528 332l-30 -45v-15c40 14.667 60 29.667 60 45l-15 15h-15zM920 166h15l30 30h-15zM317 121v-30l30 30h-30zM965 106v-31h31v31h-31zM875 91l-15 -46h15l30 30v16h-30zM713 1433l610.001 -0.000976562l46 -46v-30l-31 -46l15 -46
l-30 -30l30 -46l-76 -15l76 -92v-15h-30l-46 31h-15c0 -30.667 -10.333 -46 -31 -46l-45 46l-16 -16h-15l-45 16c-28.667 -51.333 -69.334 -77 -122.001 -77l30 -30l46 15v-76c0 -20.667 50.667 -36 152 -46v-15l107 30l15 -15v-107l-30 -121l-77 45l-15 -15v-15l15 -61
l-76 15l-30 -30h-15v45h-16l-61 -15l-45 15l-31 -45h15l16 15h15l15 -15v-16c-20 0 -35.333 -35.333 -46 -106c40.667 0 61 -15.333 61 -46l31 -92l91 31h31l45 -46c0 -20 -15 -30 -45 -30v-16l76 -30h15v15h-30v31h15l46 -16l-16 16v30l31 31l30 -31l-15 -15v-15l15 -61
c0 -20.667 -15 -31 -45 -31v-46h30v-45h-15l-15 15h-16c0 -20.667 -30.333 -36 -91 -46v-15c40.667 -5.33301 61 -20.666 61 -45.999l-15 -15l-16 15h-45l-16 -15h-15l-15 15v15l46 16l-31 30l-61 -46h-15l-61 46l-30 -30l-31 30l-15 -15l-15 15h-16l-45 -30l-46 15l-31 -31
h-15v31h-15v-31l15 -15h-61l-30 31v1357zM1292 1311v-30h16v30h-16zM1186 1250v-30h15v30h-15zM1003 1143l-15 -61v-15h15l30 61l-15 15h-15zM728.001 1052v-15l46 -46v30l-30 31h-16zM805.001 1006v-30h30l15 61h-15zM774.001 959.999l31 -30h15v30h-46zM972.001 944.999
v-30h16v30h-16zM1003 944.999v-30h15v30h-15zM759.001 898.999v-15l76 -30v45h-76zM728.001 868.999v-31l31 31h-31zM1308 609.999l30 -31v-30h-61v30zM1110 563.999h30v-15h-30v15zM957.001 380.999l61 -46v77h-30zM759.001 289.999l30 -31h61v31h-91zM972.001 289.999v-16
h31v16h-31zM1049 289.999v-16h30v16h-30z" />
    <glyph glyph-name="Oslash" unicode="&#xd8;" horiz-adv-x="1187" 
d="M706 1296v-15h15l31 30v15h-15zM993 1254l-41 -83h28l40 83h-27zM737 152h30v31zM691 198v-30h15v30h-15zM615 213v-45l30 30l-15 15h-15zM660 229l92 15v30h-46zM569 274v-15h61v15h-61zM676 335v-30l30 30h-30zM615 335v-30h15v30h-15zM417 442h30v31zM203 656l-30 -61
l30 -31h92v31l-31 30l-15 -15h-15l-16 46h-15zM310 762v-76h15l31 31v45h-46zM706 1235v-15h31v15h-31zM417 1235v-31h30l31 31l-31 30zM630 1311l15 -15v-46h-45v-30c30 0 45 -10.333 45 -31l-15 -15v-15l15 -16h15c0 30.667 10.333 46 31 46l30 -30v45
c-40.667 0 -61 10.333 -61 31l16 15v15l-16 46h-30zM767 1326v-15h31v15h-31zM462 915v-46l-30 30l15 16h15zM965 305h61l-15 -76h-30zM462 261c-0.666992 -1.33301 -1.66699 -3 -3 -5l3 3v2zM417 274h-7.00098c0.666992 -3.33301 1.33398 -7 2.00098 -11zM834.999 1350
c59.333 100.667 92 150.999 98 150.999h250l-12 -82l-197 -289l-6 -41l-2 -4l15 -18h15c0 30.667 10 46 30 46l16 -15l-16 -16v-15l16 -46h-46v-30h61v-31c-40.667 -4.66699 -61 -19.667 -61 -45l46 -77l-16 -15v-15l16 -15h15l-15 -15v-31h45c0 30.667 10.333 46 31 46
l15 -15v-16c-6 -30 -41.667 -45 -107 -45c0 -20.667 15.333 -31 46 -31l15 -15v-15h-76l61 -92l61 46h15v-15c0 -26.667 -35.333 -47 -106 -61l-16 15l-15 -15v-16l31 -30l-16 -15l-15 15h-30v-31l45 -15l-15 -15v-31h15l61 46l16 -15v-15c0 -18 -46 -43.667 -138 -77
l-15 16c-32.667 -51.333 -73.334 -77 -122.001 -77v-30l76 -31v-30l-15 15h-30v-30l-16 -16l16 -15h15c0 -26 -45.667 -46.333 -137 -61v-15h30v-31h-15c-27.333 0 -42.666 25.667 -45.999 77c-40.667 -15.333 -61 -30.666 -61 -45.999l15 -46l-15 -15h-15
c0 18.667 -35.667 49 -107 91v-61h-30l-15 16h-16l-15 -16v31h-15l-46 -31l-36 21l-18 -36l-34 -41h-69l6 41h-14l-68 -83h-83l6 42h-14l117 212c-2.66699 4 -4.66699 8 -6 12l15 15c-61.333 93.333 -92 154.333 -92 183c-20 36.667 -35 133.334 -45 290.001
c10 193.333 35.333 290 76 290l-15 15v15c0 89.333 50.667 165.666 152 228.999l-15 15v15c63.333 112 170 168 320 168h76l76 -61h16l45 31zM876.999 944.999l-18 -22v-8l61 -16l15 46h-58zM736.999 723.999l-6 -7l6 42v41h-8l-74 -124c24 0 -4.66699 -96.333 -86 -289
c-4.66699 0 -10 -2 -16 -6l92 -15c57.333 91.333 103 137 137 137l-15 15v61h46v16c-40.667 0 -61 10 -61 30l30 46l-45 46v7zM644.999 1020c-19.333 8.66699 -39.668 14.333 -61.001 17c-37.333 0 -72.666 -35.667 -105.999 -107h-31v76l-15 -15h-15l-16 15h-15v-107
l15 -61l-15 -45h15l-15 -15v-31h61v-30h-61v-16l15 -15v-15l-15 -15l-15 15h-31l31 -46l-46 -46v-15l46 31l13 -40zM465.997 394.998l11 31l-15 -14v-16zM477.997 427.998l68 83c-27.333 0 -14.333 55 39 165l-133 -147l26 -26v-75zM858.997 45.998h30v-16h-30v16z" />
    <glyph glyph-name="aring" unicode="&#xe5;" 
d="M507 1803l20 0.00195312c10.667 -5.33301 16 -12 16 -20h12c0 8 3 12 9 12l8 -12l-4 -4l4 -4l4 4h8v-17l-4 -16c10.667 -24.667 21.334 -39.334 32.001 -44.001h8v12h4l8 -8c-1.33301 -11.333 -5.33301 -17 -12 -17v-20l-8 -12l4 -4h12v20h4l13 -12l-13 -12v-4
c11.333 0 19.666 -5.33301 24.999 -16l-16 -29l4 -4l-4 -20v-24h4c0 8 2.66699 12 8 12l4 -4v-4l-4 -4l-12 -4v-5l4 -4v-4l-4 -4v-4l4 -12l-13 -8l-8 8h-4v-8h-4l-12 4l-4 -16h-24v-8c13.333 -2 20 -6 20 -12v-5l-4 5h-4l-12 -13l3 -14h70l45 -30h75v-15l-15 -15v-15h30v-31
l-45 -15l15 -15v-45l-15 -15l15 -75h30l46 30l15 -46l-15 -15v-15l30 -151h-30v61l-61 -30l-45 15v-15l91 -76v-15l-16 -45h46v45l30 -30v-60l-45 30l-31 -45c0 -30.667 35.333 -46 106 -46l15 -75h-15c-30 0 -45 -10 -45 -30l15 -46l-15 -90v-30h15l15 15l15 -15h30l-30 60
l15 15v15l-30 76h15c30 0 50 -80.667 60 -242l-15 -15l30 -30l-15 -15v-15l15 -15l-30 -30v-15c0 -20.667 15.333 -31 46 -31l15 -15v-15l-31 -30h31v-30c-30.667 0 -46 -10 -46 -30l61 -15l-15 -61l15 -45h-151l-60 15l-121 -30c-30 26.667 -55.333 102 -76 226l-15 15h-15
l-15 -15h-15l-45 15l-91 -15v30h-15l-30 -30v-15l15 15h30c0 -60 -20 -90 -60 -90v-15l30 -46v-30c0 -20 -65.333 -35 -196 -45l-60 30l-121 -15l-15 15v30c50 332 90.333 498 121 498l-15 45l15 15v16l-15 15v15c64 392 104 588 120 588l-15 15v15
c0 110.667 55.333 166 166 166l15 -15l38 5c-0.666992 5.33301 -7.66699 10.666 -21 15.999l-8 16v5l4 4v4c-24 20 -36 53.667 -36 101v16c0 50 6.66699 77 20 81l-8 8c0 20.667 12.333 35.667 37 45l12 16l-8 8v9c24 24 52.333 36 85 36zM468 950.002l30 -135l-61 -151
l31 -76h105l-45 317v91h-15zM478 1694l-12 -13l-12 8h-4l8 -12l-8 -12l4 -4l-4 -4v-12l16 -4v4l-4 16h16v-20l-12 -12l-12 4v-4c1.33301 -14 5.33301 -21 12 -21v-16h-12c0 19.333 -6.66699 29 -20 29v-5l24 -52l4 4h4l4 -4v-8c4.66699 0 8.66699 -7 12 -21l-4 -12h25l16 -4
c6.66699 0 18.667 12.333 36 37l4 -4l-4 32l4 12l-8 8v25l-4 24l4 12l-16 20l-24 9l-20 -5zM287 1312v-75h45v15l-30 60h-15zM528 332.002l-30 -45v-15c40 14.667 60 29.667 60 45l-15 15h-15zM875 91.002l-15 -46h15l30 30v16h-30zM965 106.002v-31h31v31h-31zM558 1267
v-30h30v30h-30zM347 332.002v-15h60v15h-60zM860 422.002h15l30 31v15zM784 588.002h31v30zM405 1588l4 -4v-4l-4 -20h8v8c8.66699 0 13 2.66699 13 8v16h-13l-4 -4h-4zM769 1101v-15h30v15h-30zM920 166.002h15l30 30h-15zM317 121.002v-30l30 30h-30zM724 799.002l30 -30
v30h-30zM543 1771l-4 -17l4 -4v-4l-4 -12l4 -4h4c0 8 4 12 12 12v8l-12 4l4 4v13h-8zM515 1750v-8c8 0 12 -5.33301 12 -16h4l4 12l-4 4v4l4 12h-4zM470 1758l-4 -20l4 -4h4l12 8c-4 10.667 -8 16 -12 16h-4zM624 1487l8 -8l-20 -17v13zM580 1669v-4l12 -12c0 8 4 12 12 12
l-8 8zM628 1637c0 -4 5.66699 -8 17 -12v12h-17zM608 1746l8 -12h-4l-12 4l-4 -4v8zM600 1576v-8h8l8 8v4h-4zM645 1588h4l8 -8l-4 -4h-4l-4 4v8zM446 1560l4 -12h4v16l-4 -4h-4zM539 1495v-8h4l8 8h-12zM535 1483v-13l8 9l-4 4h-4zM523 1767v-5h8v5h-8zM616 1548v-9h8z
M507 1495l8 -8v8h-8zM551 1466v-8h4v8h-4zM422 1653v-8h4v8h-4zM466 1535h8v8zM535 1511v-8l8 8h-8z" />
    <glyph glyph-name="ae" unicode="&#xe6;" horiz-adv-x="1411" 
d="M377 1448l15 -15l106 15h151l45 -30h75v-15l-15 -15v-15h30v-31l-45 -15l15 -15v-45l-15 -15l15 -75h30l46 30l15 -46l-15 -15v-15l30 -151h-30v61l-61 -30l-45 15v-15l91 -76v-15l-16 -45h46v45l30 -30v-60l-45 30l-31 -45c0 -30.667 35.333 -46 106 -46l15 -75h-15
c-30 0 -45 -10 -45 -30l15 -46l-15 -90v-30h15l15 15l15 -15h30l-30 60l15 15v15l-30 76h15c30 0 50 -80.667 60 -242l-15 -15l30 -30l-15 -15v-15l15 -15l-30 -30v-15c0 -20.667 15.333 -31 46 -31l15 -15v-15l-31 -30h31v-30c-30.667 0 -46 -10 -46 -30l61 -15l-15 -61
l15 -45h-151l-60 15l-121 -30c-30 26.667 -55.333 102 -76 226l-15 15h-15l-15 -15h-15l-45 15l-91 -15v30h-15l-30 -30v-15l15 15h30c0 -60 -20 -90 -60 -90v-15l30 -46v-30c0 -20 -65.333 -35 -196 -45l-60 30l-121 -15l-15 15v30c50 332 90.333 498 121 498l-15 45l15 15
v16l-15 15v15c64 392 104 588 120 588l-15 15v15c0 110.667 55.333 166 166 166zM287 1312v-75h45v15l-30 60h-15zM558 1267v-30h30v30h-30zM769 1101v-15h30v15h-30zM468 950l30 -135l-61 -151l31 -76h105l-45 317v91h-15zM724 799l30 -30v30h-30zM784 588h31v30zM860 422
h15l30 31v15zM347 332v-15h60v15h-60zM528 332l-30 -45v-15c40 14.667 60 29.667 60 45l-15 15h-15zM920 166h15l30 30h-15zM317 121v-30l30 30h-30zM965 106v-31h31v31h-31zM875 91l-15 -46h15l30 30v16h-30zM713 1433l610.001 -0.000976562l46 -46v-30l-31 -46l15 -46
l-30 -30l30 -46l-76 -15l76 -92v-15h-30l-46 31h-15c0 -30.667 -10.333 -46 -31 -46l-45 46l-16 -16h-15l-45 16c-28.667 -51.333 -69.334 -77 -122.001 -77l30 -30l46 15v-76c0 -20.667 50.667 -36 152 -46v-15l107 30l15 -15v-107l-30 -121l-77 45l-15 -15v-15l15 -61
l-76 15l-30 -30h-15v45h-16l-61 -15l-45 15l-31 -45h15l16 15h15l15 -15v-16c-20 0 -35.333 -35.333 -46 -106c40.667 0 61 -15.333 61 -46l31 -92l91 31h31l45 -46c0 -20 -15 -30 -45 -30v-16l76 -30h15v15h-30v31h15l46 -16l-16 16v30l31 31l30 -31l-15 -15v-15l15 -61
c0 -20.667 -15 -31 -45 -31v-46h30v-45h-15l-15 15h-16c0 -20.667 -30.333 -36 -91 -46v-15c40.667 -5.33301 61 -20.666 61 -45.999l-15 -15l-16 15h-45l-16 -15h-15l-15 15v15l46 16l-31 30l-61 -46h-15l-61 46l-30 -30l-31 30l-15 -15l-15 15h-16l-45 -30l-46 15l-31 -31
h-15v31h-15v-31l15 -15h-61l-30 31v1357zM1292 1311v-30h16v30h-16zM1186 1250v-30h15v30h-15zM1003 1143l-15 -61v-15h15l30 61l-15 15h-15zM728.001 1052v-15l46 -46v30l-30 31h-16zM805.001 1006v-30h30l15 61h-15zM774.001 959.999l31 -30h15v30h-46zM972.001 944.999
v-30h16v30h-16zM1003 944.999v-30h15v30h-15zM759.001 898.999v-15l76 -30v45h-76zM728.001 868.999v-31l31 31h-31zM1308 609.999l30 -31v-30h-61v30zM1110 563.999h30v-15h-30v15zM957.001 380.999l61 -46v77h-30zM759.001 289.999l30 -31h61v31h-91zM972.001 289.999v-16
h31v16h-31zM1049 289.999v-16h30v16h-30z" />
    <glyph glyph-name="oslash" unicode="&#xf8;" horiz-adv-x="1187" 
d="M706 1296v-15h15l31 30v15h-15zM993 1254l-41 -83h28l40 83h-27zM737 152h30v31zM691 198v-30h15v30h-15zM615 213v-45l30 30l-15 15h-15zM660 229l92 15v30h-46zM569 274v-15h61v15h-61zM676 335v-30l30 30h-30zM615 335v-30h15v30h-15zM417 442h30v31zM203 656l-30 -61
l30 -31h92v31l-31 30l-15 -15h-15l-16 46h-15zM310 762v-76h15l31 31v45h-46zM706 1235v-15h31v15h-31zM417 1235v-31h30l31 31l-31 30zM630 1311l15 -15v-46h-45v-30c30 0 45 -10.333 45 -31l-15 -15v-15l15 -16h15c0 30.667 10.333 46 31 46l30 -30v45
c-40.667 0 -61 10.333 -61 31l16 15v15l-16 46h-30zM767 1326v-15h31v15h-31zM462 915v-46l-30 30l15 16h15zM965 305h61l-15 -76h-30zM462 261c-0.666992 -1.33301 -1.66699 -3 -3 -5l3 3v2zM417 274h-7.00098c0.666992 -3.33301 1.33398 -7 2.00098 -11zM834.999 1350
c59.333 100.667 92 150.999 98 150.999h250l-12 -82l-197 -289l-6 -41l-2 -4l15 -18h15c0 30.667 10 46 30 46l16 -15l-16 -16v-15l16 -46h-46v-30h61v-31c-40.667 -4.66699 -61 -19.667 -61 -45l46 -77l-16 -15v-15l16 -15h15l-15 -15v-31h45c0 30.667 10.333 46 31 46
l15 -15v-16c-6 -30 -41.667 -45 -107 -45c0 -20.667 15.333 -31 46 -31l15 -15v-15h-76l61 -92l61 46h15v-15c0 -26.667 -35.333 -47 -106 -61l-16 15l-15 -15v-16l31 -30l-16 -15l-15 15h-30v-31l45 -15l-15 -15v-31h15l61 46l16 -15v-15c0 -18 -46 -43.667 -138 -77
l-15 16c-32.667 -51.333 -73.334 -77 -122.001 -77v-30l76 -31v-30l-15 15h-30v-30l-16 -16l16 -15h15c0 -26 -45.667 -46.333 -137 -61v-15h30v-31h-15c-27.333 0 -42.666 25.667 -45.999 77c-40.667 -15.333 -61 -30.666 -61 -45.999l15 -46l-15 -15h-15
c0 18.667 -35.667 49 -107 91v-61h-30l-15 16h-16l-15 -16v31h-15l-46 -31l-36 21l-18 -36l-34 -41h-69l6 41h-14l-68 -83h-83l6 42h-14l117 212c-2.66699 4 -4.66699 8 -6 12l15 15c-61.333 93.333 -92 154.333 -92 183c-20 36.667 -35 133.334 -45 290.001
c10 193.333 35.333 290 76 290l-15 15v15c0 89.333 50.667 165.666 152 228.999l-15 15v15c63.333 112 170 168 320 168h76l76 -61h16l45 31zM876.999 944.999l-18 -22v-8l61 -16l15 46h-58zM736.999 723.999l-6 -7l6 42v41h-8l-74 -124c24 0 -4.66699 -96.333 -86 -289
c-4.66699 0 -10 -2 -16 -6l92 -15c57.333 91.333 103 137 137 137l-15 15v61h46v16c-40.667 0 -61 10 -61 30l30 46l-45 46v7zM644.999 1020c-19.333 8.66699 -39.668 14.333 -61.001 17c-37.333 0 -72.666 -35.667 -105.999 -107h-31v76l-15 -15h-15l-16 15h-15v-107
l15 -61l-15 -45h15l-15 -15v-31h61v-30h-61v-16l15 -15v-15l-15 -15l-15 15h-31l31 -46l-46 -46v-15l46 31l13 -40zM465.997 394.998l11 31l-15 -14v-16zM477.997 427.998l68 83c-27.333 0 -14.333 55 39 165l-133 -147l26 -26v-75zM858.997 45.998h30v-16h-30v16z" />
    <glyph glyph-name="ring" unicode="&#x2da;" horiz-adv-x="1161" 
d="M595 1827l19.998 0.00195312c10.667 -5.33301 16 -12 16 -20h13c0 8 2.66699 12 8 12l8 -12l-4 -4l4 -4l4 4h8v-17l-4 -16c10.667 -24.667 21.334 -39.334 32.001 -44.001h8v12h4l9 -8c-1.33301 -11.333 -5.66602 -17 -12.999 -17v-20l-8 -12l4 -4h13v20h4l12 -12
l-12 -12v-4c10.667 0 18.667 -5.33301 24 -16l-16 -29l4 -4l-4 -20v-24h4c0 8 2.66699 12 8 12l4 -4v-4l-4 -4l-12 -4v-5l4 -4v-4l-4 -4v-4l4 -12l-12 -8l-9 8h-4v-8h-4l-12 4l-4 -16h-24v-8c13.333 -2 20 -6 20 -12v-5l-4 5h-4l-12 -13l4 -16l-4 -4h-4l-16 4l-5 -12l-16 12
l-8 -8v-28h-4l-8 8c0 6 -5.33301 14 -16 24h-8v-4l8 -12v-12h-16v8h8l-8 8l-13 -4l4 4v8h-4l-16 -12c-5.33301 0 -8 4 -8 12h-4l-4 -4h-4l-4 4c0 5.33301 -6.66699 10.666 -20 15.999l-9 16v5l4 4v4c-24 20 -36 53.667 -36 101v16c0 50 6.66699 77 20 81l-8 8
c0 20.667 12.333 35.667 37 45l12 16l-8 8v9c24 24 52.333 36 85 36zM630.998 1795l-4 -17l4 -4v-4l-4 -12l4 -4h4c0 8 4.33301 12 13 12v8l-13 4l4 4v13h-8zM610.998 1791v-5h8v5h-8zM557.998 1782l-4 -20l4 -4h4l13 8c-4 10.667 -8.33301 16 -13 16h-4zM602.998 1774v-8
c8 0 12 -5.33301 12 -16h4l4 12l-4 4v4l4 12h-4zM695.998 1770l8 -12h-4l-12 4l-4 -4v8zM565.998 1718l-12 -13l-12 8h-4l8 -12l-8 -12l4 -4l-4 -4v-12l16 -4v4l-4 16h16v-20l-12 -12l-12 4v-4c1.33301 -14 5.33301 -21 12 -21v-16h-12c0 19.333 -6.66699 29 -20 29v-5
l24 -52l4 4h4l4 -4v-8c4.66699 0 9 -7 13 -21l-5 -12h25l16 -4c6.66699 0 19 12.333 37 37l4 -4l-4 32l4 12l-9 8v25l-4 24l4 12l-16 20l-24 9l-20 -5zM667.998 1693v-4l12 -12c0 8 4 12 12 12l-8 8zM509.998 1677v-8h4v8h-4zM716.998 1661c0 -4 5.33301 -8 16 -12v12h-16z
M492.998 1612l5 -4v-4l-5 -20h9v8c8 0 12 2.66699 12 8v16h-12l-4 -4h-5zM732.998 1612h4l8 -8l-4 -4h-4l-4 4v8zM687.998 1600v-8h8l8 8v4h-4zM533.998 1584l4 -12h4v16l-4 -4h-4zM703.998 1572v-9h8zM553.998 1559h8v8zM622.998 1535v-8l8 8h-8zM594.998 1519l8 -8v8h-8z
M626.998 1519v-8h4l8 8h-12zM622.998 1507v-13l8 9l-4 4h-4zM711.998 1511l9 -8l-21 -17v13zM638.998 1490v-8h5v8h-5zM638.998 1454h9v-12h-9v12z" />
    <glyph glyph-name="uni0401" unicode="&#x401;" horiz-adv-x="781" 
d="M83 1433l610.001 -0.000976562l46 -46v-30l-30 -46l15 -46l-31 -30l31 -46l-76 -15l76 -92v-15h-31l-45 31h-16c0 -30.667 -10 -46 -30 -46l-46 46l-15 -16h-15l-46 16c-28.667 -51.333 -69.334 -77 -122.001 -77l30 -30l46 15v-76c0 -20.667 51 -36 153 -46v-15l106 30
l16 -15v-107l-31 -121l-76 45l-15 -15v-15l15 -61l-76 15l-31 -30h-15v45h-15l-61 -15l-46 15l-31 -45h16l15 15h15l15 -15v-16c-20 0 -35 -35.333 -45 -106c40.667 0 61 -15.333 61 -46l30 -92l92 31h30l46 -46c0 -20 -15.333 -30 -46 -30v-16l76 -30h16v15h-31v31h15
l46 -16l-15 16v30l30 31l31 -31l-15 -15v-15l15 -61c0 -20.667 -15.333 -31 -46 -31v-46h31v-45h-16l-15 15h-15c0 -20.667 -30.667 -36 -92 -46v-15c40.667 -5.33301 61 -20.666 61 -45.999l-15 -15l-15 15h-46l-15 -15h-15l-16 15v15l46 16l-30 30l-61 -46h-16l-61 46
l-30 -30l-31 30l-15 -15l-15 15h-15l-46 -30l-46 15l-30 -31h-16v31h-15v-31l15 -15h-61l-30 31v1357zM663.001 1311v-30h15v30h-15zM556.001 1250v-30h15v30h-15zM373.001 1143l-15 -61v-15h15l31 61l-16 15h-15zM99.001 1052v-15l45 -46v30l-30 31h-15zM175.001 1006v-30
h30l16 61h-16zM144.001 959.999l31 -30h15v30h-46zM343.001 944.999v-30h15v30h-15zM373.001 944.999v-30h15v30h-15zM129.001 898.999v-15l76 -30v45h-76zM99.001 868.999v-31l30 31h-30zM678.001 609.999l31 -31v-30h-61v30zM480.001 563.999h30v-15h-30v15z
M327.001 380.999l61 -46v77h-30zM129.001 289.999l31 -31h61v31h-92zM343.001 289.999v-16h30v16h-30zM419.001 289.999v-16h30v16h-30zM172.001 1910h111c39.333 0 81.333 -74.333 126 -223l-28 -27l14 -14v-14c-9.33301 -37.333 -28 -56 -56 -56l-42 14v-14l14 -42
l-14 -13h-41l14 13v42h-28c-18.667 0 -28 -23 -28 -69h-14c-86 0 -141.667 64.667 -167 194c0 82 46.333 151.667 139 209zM158.001 1785v-14h42v14h-42zM595.001 1912h111c39.333 0 81.333 -74.333 126 -223l-28 -27l14 -14v-14c-9.33301 -37.333 -28 -56 -56 -56l-42 14
v-14l14 -42l-14 -13h-41l14 13v42h-28c-18.667 0 -28 -23 -28 -69h-14c-86 0 -141.667 64.667 -167 194c0 82 46.333 151.667 139 209zM581.001 1787v-14h42v14h-42z" />
    <glyph glyph-name="uni0404" unicode="&#x404;" horiz-adv-x="864" 
d="M455 1425l147.001 0.00195312c118 -28 177 -57.333 177 -88l-15 -132l15 -44h-30l-14 14h-15l-15 -59h-15l-14 15h-15c0 -19.333 -14.667 -29 -44 -29l15 -15v-15l-15 -14h-15l-14 44h-59c0 -49.333 -14.667 -74 -44 -74l-59 15c0 -19.333 14.667 -29 44 -29v-15l-29 -29
c-24.667 0 -39.334 19.333 -44.001 58h-44c0 -29.333 -10 -44 -30 -44l-14 15l-30 -44h15l88 15l29 -30c0 -16 -0.666992 -30.667 -2 -44l9 -2l70 13h181l41 -41c0 -18.667 -13.667 -28 -41 -28l28 -42v-42l-14 -13v-14l27 -28l-41 -14l28 -42v-42l-14 -13v-14l-98 14h-41
c0 36.667 -14 55 -42 55h-14v-55l-28 27l14 14h-42c-18.667 0 -28 -13.667 -28 -41h-22c6 -86.667 69.667 -150.334 191 -191.001c55.333 0 119 39 191 117h15l14 -59l-29 -88l15 -14v-15l-30 -44l30 -44c-10 -49.333 -29.667 -74 -59 -74v-14c0 -20 14.667 -30 44 -30v-44
h-88v30l-74 -30l15 -73l-15 -15h-14l-15 15l15 14v30l-74 14h-15v-44h-14c-59.333 49.333 -103.333 74 -132 74c0 -22.667 -24.667 -37.334 -74 -44.001c-103.333 100.667 -167 179 -191 235v15l15 14v15c-68.667 0 -103 117.333 -103 352c0 306.667 93 532 279 676
c67.333 39.333 126 59 176 59zM749.001 1116l30 -29v-103h-15c-68.667 34 -103 58.667 -103 74v29l74 -15h14v44zM544.001 44.002l14 -15v-14l-14 -15h-15l-15 15v14l15 15h15zM335.001 907.002h32v19h-58v-30l9 -5zM544.001 1175v-44h29v44h-29zM585.001 629.002v-14h28
l14 42h-14zM617.001 1175v-29l29 29h-29zM309.001 705.002v-29h10l8 11z" />
    <glyph glyph-name="uni0410" unicode="&#x410;" 
d="M377 1448l15 -15l106 15h151l45 -30h75v-15l-15 -15v-15h30v-31l-45 -15l15 -15v-45l-15 -15l15 -75h30l46 30l15 -46l-15 -15v-15l30 -151h-30v61l-61 -30l-45 15v-15l91 -76v-15l-16 -45h46v45l30 -30v-60l-45 30l-31 -45c0 -30.667 35.333 -46 106 -46l15 -75h-15
c-30 0 -45 -10 -45 -30l15 -46l-15 -90v-30h15l15 15l15 -15h30l-30 60l15 15v15l-30 76h15c30 0 50 -80.667 60 -242l-15 -15l30 -30l-15 -15v-15l15 -15l-30 -30v-15c0 -20.667 15.333 -31 46 -31l15 -15v-15l-31 -30h31v-30c-30.667 0 -46 -10 -46 -30l61 -15l-15 -61
l15 -45h-151l-60 15l-121 -30c-30 26.667 -55.333 102 -76 226l-15 15h-15l-15 -15h-15l-45 15l-91 -15v30h-15l-30 -30v-15l15 15h30c0 -60 -20 -90 -60 -90v-15l30 -46v-30c0 -20 -65.333 -35 -196 -45l-60 30l-121 -15l-15 15v30c50 332 90.333 498 121 498l-15 45l15 15
v16l-15 15v15c64 392 104 588 120 588l-15 15v15c0 110.667 55.333 166 166 166zM287 1312v-75h45v15l-30 60h-15zM558 1267v-30h30v30h-30zM769 1101v-15h30v15h-30zM468 950l30 -135l-61 -151l31 -76h105l-45 317v91h-15zM724 799l30 -30v30h-30zM784 588h31v30zM860 422
h15l30 31v15zM347 332v-15h60v15h-60zM528 332l-30 -45v-15c40 14.667 60 29.667 60 45l-15 15h-15zM920 166h15l30 30h-15zM317 121v-30l30 30h-30zM965 106v-31h31v31h-31zM875 91l-15 -46h15l30 30v16h-30z" />
    <glyph glyph-name="uni0411" unicode="&#x411;" horiz-adv-x="1036" 
d="M929 198l-30 -0.000976562v-31h-31l16 77v30h-61l15 -46c-13.333 -60.667 -28.666 -91 -45.999 -91h-15l-15 46v15l15 15v15h-15l-15 -15h-16c-20 0 -30 15.333 -30 46h-15l-16 -15h-30l-15 15v-31l15 -15l-76 -15v-31l61 -15l-16 -76h16
c23.333 20.667 58.666 31 105.999 31v15l-15 15l31 30h15c0 -38 -15.333 -78.333 -46 -121l-46 15c-38.667 -40.667 -104.667 -61 -198 -61h-365l-31 30v9l-7 7v106l7 7v24l-2 55l-5 6v15l5 5l-2 66l-3 5v131l-8 311v15l8 8v50l-8 49v487l33 33l5 14
c2 -1.33301 4 -2.33301 6 -3l2 2l12 -8c14 -7.33301 27.333 -14.666 40 -21.999h9l45 30h46l15 -15c0 -20.667 -30 -31 -90 -31c25.333 -18 48 -38 68 -60h30v16c20.667 17.333 31 42.666 31 75.999h30v-31h16l15 16l46 -31h76v-30c40.667 0 71 20.333 91 61
c30.667 0 46 10 46 30c81.333 -19.333 122 -70 122 -152v-16l-15 -15l30 -198h-15l-15 -15h-61l-15 15l-16 -15h-30l-61 15c-91.333 -12 -137 -27.333 -137 -46l-54 15c12.667 -14.667 22.667 -29 30 -43l8 -2h16l15 15l15 -15l-11 -54l79 22c0 -40 10.333 -60 31 -60h15
l61 45h15v-15l-46 -76c40.667 -30.667 61 -56 61 -76h76c0 30 10.333 45 31 45l30 -30l-30 -31c0 -35.333 50.667 -60.666 152 -75.999v15l-15 16v15l15 15h-76l61 46h15l15 -15l46 15l-15 -76c13.333 0 23.333 -40.667 30 -122l-15 -15l31 -31l-31 -91l31 -46
c-30.667 -35.333 -46 -96.333 -46 -183zM579 349.999c0 40.667 15.333 61 46 61v15l-16 92l16 46l-76 45h-107v-122h-31l-15 16c0 30 -15.333 45 -46 45h-1c-4 -8 -8 -15 -12 -21l42 -110l10 10l9 -23c4 12.667 11.667 19.667 23 21c-0.666992 5.33301 -1 11 -1 17h-16
l-15 -15v46h15l46 -46v-31h-1l8 -30h15c0 -40.667 -15 -61 -45 -61v-31zM899 441.999h15l15 106l-30 31h-15c0 -40.667 -15.333 -61 -46 -61zM110 150.999l57.999 -14v-15h23l15 61c-27.333 0 -42.666 25.333 -45.999 76h-15l-6 -6l13 -40c0 -20 -15 -30 -45 -30v-26
c0.666992 -2 1.66699 -4 3 -6zM928.999 288.999v31l-15 76h-46v-15l31 -92h30zM456.999 136.999v107l-17 -6l10 -9l-59 -118l5 -4zM205.999 837.999l-8 15c-40.667 -2 -61 -12 -61 -30l69 -15v30zM403.999 1281v30l-23 4v-5l-15 -15h-16l-15 15l7 -29h62zM471.999 822.999
v45h-30v-45h30zM647.999 1082l16 16l-31 30v-46h15zM700.999 852.999h15l15 -15l-30 -31v46zM632.999 1204l31 31h-16l-30 -31h15zM410.999 547.999v31h-15v-31h15zM617.999 1342v15l-31 -31v-15zM761.999 898.999h15v-31h-15v31zM571.999 1220v30h-15v-30h15z
M837.999 304.999v30h-15v-30h15zM392.999 184.999c-4 -1.33301 -7.99902 -2 -11.999 -2v-16l8 -9c1.33301 10 2.66602 19 3.99902 27zM381 288.999h-2.99902c-0.666992 -2 -1.33398 -3.66699 -2.00098 -5z" />
    <glyph glyph-name="uni0412" unicode="&#x412;" horiz-adv-x="1039" 
d="M159 1433h60l15 -15l15 15h226c103.333 0 224 -35.333 362 -106l-15 -15v-30h30v-15l-15 -15l31 -60l45 15v-15l15 -61l-15 -45h15l30 -30v-76l-15 -75h-30l-15 15h-15v-45c30 0 45 -10 45 -30c-34 0 -64.333 -25.333 -91 -76v-15c90.667 -94.667 136 -180 136 -256
l-15 -15l30 -30v-16l-30 -45v-15c30 0 45 -10 45 -30c-20 0 -30 -20 -30 -60l-15 -15h-15l-30 30c0 -30.667 -20.333 -46 -61 -46v-30l61 -15c-10 -70 -25 -105 -45 -105l-46 45c-30 0 -45 -15 -45 -45h-30l-15 15h-15v-30c-30.667 0 -46 -20.333 -46 -61l-105 -15l-30 30
v15l60 15l45 -15v15l15 46l-166 -76l-15 15h-45c0 -25.333 -25 -40.333 -75 -45l-15 15h-15l-91 -15l-15 15l-30 -30h-106l-30 30v106l15 60l-15 60l15 16l-15 75v136l15 196l-15 45l15 241v257c0 20 40.333 35 121 45v-30h-30l30 -30l75 30v30c-30 0 -45 20 -45 60l-91 -60
h-30l-30 30v91c10 30 40.333 45 91 45zM626 1267l30 -30l15 15v15h-45zM506 1131c0 -30 -20.332 -44.999 -60.999 -44.999l-15 -45l15 -15v-15l-30 -31l-30 31l-30 -31c43.333 0 78.333 -30 105 -90c55.333 0 105.666 25 150.999 75
c-18.667 71.333 -53.667 126.666 -105 165.999zM355.001 1071v-30h30zM852.001 996.001v-31h16v31h-16zM883.001 996.001v-31h30v31h-30zM430.001 664.001l15 -76v-15l-30 -120l15 -76h60c70.667 0 106 35.333 106 106v60l-121 91v45zM204.001 649.001v-15l45 -46h60v15
c-30 0 -45 15.333 -45 46h-60zM128.001 603.001v-15c40.667 0 61 -15 61 -45h45v15l-45 45h-61zM913.001 573.001v-30h15v30h-15zM355.001 422.001v-30h45v30h-45zM913.001 422.001v-45l30 30v15h-30zM309.001 392.001l31 -30v30h-31zM898.001 332.001v-15h15l30 30v15h-15z
M822.001 272.001h29.999l16 60c-15.333 0 -30.666 -20 -45.999 -60zM943 256.001h15v-30h-45zM219 75.001l60 -0.000976562v46c-40 -15.333 -60 -30.666 -60 -45.999z" />
    <glyph glyph-name="uni0413" unicode="&#x413;" horiz-adv-x="811" 
d="M618 1342v15l-31 -31v-15zM404 1281v30l-76 15v-45h76zM572 1220v30h-15v-30h15zM633 1204l31 31h-16l-30 -31h15zM648 1082l16 16l-31 30v-46h15zM374 899v31h-15l-46 46h-15l-16 -16v-15l16 -15c30 0 45 -10.333 45 -31h31zM389 808v46l-30 -31v-15h30zM191 808h15v30
l-30 61c-20.667 0 -31 -15 -31 -45h-30v-31zM435 701v-30h-31zM450 396c-20 0 -30 15.333 -30 46h-16l-15 -15v46h15l46 -46v-31v0zM359 320h-31v-30zM206 274v31h-15v-31h15zM69 46l-0.000976562 106l15 16c20.667 0 31 -15.333 31 -46h76l15 61
c-27.333 0 -42.666 25.333 -45.999 76h-15l-46 -46l-30 31v15l30 31l-30 45v153l15 15l-15 15v641l15 15l-15 15v153l30 91c62.667 -27.333 113.667 -63 153 -107h30v16c20.667 17.333 31 42.666 31 75.999h30v-31h16l15 16l46 -31h76v-30c40.667 0 71 20.333 91 61
c30.667 0 46 10 46 30c81.333 -19.333 122 -70 122 -152v-16l-15 -15l30 -198h-15l-15 -15h-61l-15 15l-16 -15h-30l-61 15c-91.333 -12 -137 -27.333 -137 -46l-107 31v-31l91 -30h16l15 15l15 -15l-30 -153c12.667 0 22.667 -30.333 30 -91h-15l-15 -16h-16v46h-30v-30
l15 -16l-61 -15v-30h76v-15l-15 -16h31l15 -15l-15 -15v-31h-31v16l15 15v15h-30c-18 -81.333 -43.333 -122 -76 -122c30 -33.333 45 -63.666 45 -90.999h31l15 15l46 -107l-15 -15l-16 15h-15c-24 -71.333 -44.333 -107 -61 -107l61 -76c0 48 10.333 83.667 31 107h15
l15 -15l-61 -122v-16h31v-30c-30.667 0 -46 -10.333 -46 -31c0 -13.333 -86.333 -23.333 -259 -30z" />
    <glyph glyph-name="uni0414" unicode="&#x414;" horiz-adv-x="1632" 
d="M1093 -38h-30.998l-15 15l-76 15c0 -12.667 -30.333 -22.667 -91 -30v15l-8 8l-8 -8l-15 15v31l-16 -15h-14l30 -31h-30v31h-1v-31h-30l30 31h-14l-16 15v-31l-15 -15l-7 8l-9 -8v-15c-60.667 7.33301 -91 17.333 -91 30l-76 -15l-15 -15h-31c0 2 0.333008 4 1 6l-32 -6
l-15 15l15 15v5l-45 -20l-1 2c-11.333 -19.333 -21.333 -60.666 -30 -123.999l15 -61v-30l-15 -16l15 -15v-61l-15 -15v-15l-198 30l-15 -15h-16c-82 0 -132.667 40.667 -152 122c20 0 30 15.333 30 46c40.667 20 61 50.333 61 91h-30v76l-31 46l16 15v16h-31v30
c33.333 0 58.666 10.333 75.999 31h11c-1.33301 11.333 -2.33301 23.666 -3 36.999c-40 38 -73 86.667 -99 146l91 30h153l16 -15l14 15h17l184 534l63 49l45 -46l45 1l32 48v45h-15l-117 -34l27 168l46 94l39 153l15 46l42 32l308 8l5 -8h227l31 -31v-138h-31l15 15v15h-77
v-30l16 -16v-15l-31 -31v-46l123 -31v-46h-61v-16l30 -46v-31c-40.667 0 -61 -30.667 -61 -92l61 46l16 -15v-16l-31 -31l-15 16v-47h15l15 16h16v-16c0 -20 -25.667 -30 -77 -30v-31l46 -16l46 16v-46c-40.667 0 -61 -10.333 -61 -31v-16h30v-15l-15 -15v-16l15 -15v-16
l-15 -46l31 -31v-15h-77l92 -108l-31 -62l16 -15l-10 -3l7 -8l16 15h153l91 -30c-26 -59.333 -59 -108 -99 -146c-0.666992 -13.333 -1.66699 -25.666 -3 -36.999h11c17.333 -20.667 42.666 -31 75.999 -31v-30h-31v-16l16 -15l-31 -46v-76h-30c0 -40.667 20.333 -71 61 -91
c0 -30.667 10 -46 30 -46c-19.333 -81.333 -70 -122 -152 -122h-16l-15 15l-198 -30v15l-15 15v61l15 15l-15 16v30l15 61c-8.66699 63.333 -18.667 104.666 -30 123.999l-1 -2l-45 19v-4l15 -15l-15 -15l-32 6c0.666992 -2 1 -4 1 -6zM954.002 878l45.998 47l62 -47h46
l15 47l-15 46h-15l-108 -31l-27 147l-34 -1l-6 -16l14 -45l-10 -31c-40.667 -0.666992 -71.667 -31.667 -93 -93l77 47l11 -14l-6 -16l-42 -32l-9 15l-16 -47l15 1l20 16l16 1l-5 -16c-7.33301 -20 -36.666 -30.667 -87.999 -32l-11 -31l41 -15l51 17l-15 -46
c-40.667 -1.33301 -64.667 -12.333 -72 -33l-6 -16l30 1l-5 -15l-20 -15l-6 -16l10 -15l-5 -16l-31 -46l20 -30l-5 -15l-77 -2l55 -106l-53 -63l11 -14c-5.33301 -1.33301 -10.666 -3 -15.999 -5h256v535zM969 1202l-10 98h-8l-10 -30l10 -15l-5 -15l-42 -32l-16 -46l71 -18
zM1262 1402l-31 -46h31l31 31l-15 15h-16zM681 53h-15l-31 -30h46v30zM879 8l15 15h16v15h-30l-16 -15v-15h15zM757 38h-30v-15h16l15 -15h15v15zM407 -221h-46l30 -31l16 16v15zM1230 -236l16 -16l30 31h-46v-15zM178 8h30.001c-3.33301 20 -13.333 30 -30 30
c-2.66699 0 -5.33398 4.33301 -8.00098 13zM1429 8h30.001l8 43c-2.66699 -8.66699 -5.33398 -13 -8.00098 -13c-16.667 0 -26.667 -10 -30 -30zM285.002 -206l-31 -30v-16l31 31v15zM1352 -221l31 -31v16l-31 30v-15zM178.002 -175h-15l-31 -31h15zM1490 -206h15l-31 31
h-15zM269.002 -145h-30v-15h30v15zM1368 -160h30v15h-30v-15zM590.002 69h-2l-5 -15l7 -11v26zM465.002 67h-3l1 -6zM1170 62h-1v-9l1 1v8zM956.002 43l1 10h-1v-10z" />
    <glyph glyph-name="uni0415" unicode="&#x415;" horiz-adv-x="781" 
d="M83 1433l610.001 -0.000976562l46 -46v-30l-30 -46l15 -46l-31 -30l31 -46l-76 -15l76 -92v-15h-31l-45 31h-16c0 -30.667 -10 -46 -30 -46l-46 46l-15 -16h-15l-46 16c-28.667 -51.333 -69.334 -77 -122.001 -77l30 -30l46 15v-76c0 -20.667 51 -36 153 -46v-15l106 30
l16 -15v-107l-31 -121l-76 45l-15 -15v-15l15 -61l-76 15l-31 -30h-15v45h-15l-61 -15l-46 15l-31 -45h16l15 15h15l15 -15v-16c-20 0 -35 -35.333 -45 -106c40.667 0 61 -15.333 61 -46l30 -92l92 31h30l46 -46c0 -20 -15.333 -30 -46 -30v-16l76 -30h16v15h-31v31h15
l46 -16l-15 16v30l30 31l31 -31l-15 -15v-15l15 -61c0 -20.667 -15.333 -31 -46 -31v-46h31v-45h-16l-15 15h-15c0 -20.667 -30.667 -36 -92 -46v-15c40.667 -5.33301 61 -20.666 61 -45.999l-15 -15l-15 15h-46l-15 -15h-15l-16 15v15l46 16l-30 30l-61 -46h-16l-61 46
l-30 -30l-31 30l-15 -15l-15 15h-15l-46 -30l-46 15l-30 -31h-16v31h-15v-31l15 -15h-61l-30 31v1357zM663.001 1311v-30h15v30h-15zM556.001 1250v-30h15v30h-15zM373.001 1143l-15 -61v-15h15l31 61l-16 15h-15zM99.001 1052v-15l45 -46v30l-30 31h-15zM175.001 1006v-30
h30l16 61h-16zM144.001 959.999l31 -30h15v30h-46zM343.001 944.999v-30h15v30h-15zM373.001 944.999v-30h15v30h-15zM129.001 898.999v-15l76 -30v45h-76zM99.001 868.999v-31l30 31h-30zM678.001 609.999l31 -31v-30h-61v30zM480.001 563.999h30v-15h-30v15z
M327.001 380.999l61 -46v77h-30zM129.001 289.999l31 -31h61v31h-92zM343.001 289.999v-16h30v16h-30zM419.001 289.999v-16h30v16h-30z" />
    <glyph glyph-name="uni0416" unicode="&#x416;" horiz-adv-x="1623" 
d="M397 1441c36 0 100.998 -165 194.998 -495h45l-15 75l30 30h8v37l-8 8v15l8 2v88h-8v30h30v-8l8 8l45 -30h14l23 30v15c0 20 -15 30 -45 30h-7v-15h-60v135l30 30h262l30 -30v-135h-60v15h-7c-30 0 -45 -10 -45 -30v-15l22 -30h15l45 30l8 -8v8h30v-30h-8v-88l8 -2v-15
l-8 -8v-37h8l30 -30l-15 -75h45c94 330 159 495 195 495h45l166 -30l15 15h15l15 -15c0 -50 -30 -75 -90 -75l15 -75l-60 -15c0 -20 15 -30 45 -30v-15l-30 -45c0 -20 15 -30 45 -30l-15 -45l30 -75l-15 -15h-15l-15 15l15 15v30l-61 -60v-30l31 -45
c-15.333 -40 -30.666 -60 -45.999 -60l-15 15h-15l-45 -15v-15c70.667 0 106 -15 106 -45l-46 -45h-15v30h30v30l-60 -30v-30c36 0 91.333 -115.333 166 -346c0 -20 -20 -30 -60 -30l15 -75l15 15h60l45 -45l-135 -30v-45l75 15h15l15 -75l-15 -15
c81.333 -6.66699 126.333 -26.667 135 -60l-45 -30c-10 36 -45 61 -105 75c-10 -60 -35 -90 -75 -90v-15c-160.667 0 -241 75 -241 225l-15 45l15 15c-32.667 0 -67.667 115 -105 345h-15l-38 -26v-34h23v-15l-15 -75h-8v-45h23v-30h-23v-89
c5.33301 -19.333 8 -44.666 8 -75.999v-10l5 -25l10 -10v-135l-30 -30h-7c-4.66699 -10 -10 -15 -16 -15h-15c-12 0 -20.333 5 -25 15h-27l-60 -15l-4 2l-4 -2l-60 15h-28c-4.66699 -10 -12.667 -15 -24 -15h-15c-6 0 -11.667 5 -17 15h-6l-30 30v135l10 10l5 25v10
c0 31.333 2.66699 56.666 8 75.999v89h-23v30h23v45h-8l-15 75v15h23v34l-38 26h-15c-37.333 -230 -72.333 -345 -105 -345l15 -15l-15 -45c0 -150 -80.333 -225 -241 -225v15c-40 0 -65 30 -75 90c-60 -14 -95 -39 -105 -75l-45 30c8.66699 33.333 53.667 53.333 135 60
l-15 15l15 75h15l75 -15v45l-135 30l45 45h60l15 -15l15 75c-40 0 -60 10 -60 30c74.667 230.667 130 346 166 346v30l-60 30v-30h30v-30h-15l-46 45c0 30 35.333 45 106 45v15l-45 15h-15l-15 -15c-15.333 0 -30.666 20 -45.999 60l31 45v30l-61 60v-30l15 -15l-15 -15h-15
l-15 15l30 75l-15 45c30 0 45 10 45 30l-30 45v15c30 0 45 10 45 30l-60 15l15 75c-60 0 -90 25 -90 75l15 15h15l15 -15l166 30h45zM1486 1246h30v-75h-30v75zM411.998 1261l-30 -30v-30h30l30 30zM155.998 1171h-30v75h30v-75zM1200 1231l30 -30h30v30l-30 30z
M291.998 300l-31 -30h46v30h-15zM1335 300v-30h46l-31 30h-15zM1396 435v-45h15v45h-15zM230.998 435v-45h15v45h-15zM110.998 1396h-30l30 30v-30zM1531 1426l30 -30h-30v30zM989.998 856h-8v-24zM659.998 832v24h-8z" />
    <glyph glyph-name="uni0417" unicode="&#x417;" horiz-adv-x="891" 
d="M786 1000v-1l31 31v-16l-25 -24l25 -36l-15 -15l30 -31c0 -19.333 -30.333 -39.333 -91 -60v-15l15 -15v-15h15l-15 -15v-15l-15 15h-10l-81 -46l81 -46h10l15 15v-15l15 -15h-15v-15l-15 -15v-15c60.667 -20.667 91 -40.667 91 -60l-30 -31l15 -15l-25 -37l25 -23v-16
h15l30 -30l-30 -30v-1l-15 -15h-1l-21 -21l37 -9c0 -66 -20.333 -122 -61 -168v-13h-12c-19.333 -19.333 -42.666 -37 -69.999 -53c-13.333 -25.333 -26.333 -38 -39 -38h-15l11 17c-10 -4.66699 -20.333 -9 -31 -13l5 -4v-15l-106 -16v6l-30 -6h-76
c-46.667 7.33301 -87 15.333 -121 24v-24h-61c-52.667 0 -83 15.333 -91 46l25 25c-16.667 11.333 -25 23 -25 35v17c-10 15.333 -15 35 -15 59l15 15v16l-15 196l15 16h15l1 -1c85.333 -20.667 137.666 -52.667 156.999 -96c26.667 -5.33301 55.667 -8.33301 87 -9l34 17
l14 37l-5 6l-76 -15h-15v30l116 34l14 38l-15 21c-40.667 8 -81.667 37.667 -123 89h-37l15 -15v-15l-15 -15h-15l-16 15v15l16 15h-61c-16.667 0 -29.667 30.333 -39 91c-2.66699 4.66699 -4.66699 9.66699 -6 15c0.666992 5.33301 1 10.333 1 15s-0.333008 9.66699 -1 15
c1.33301 5.33301 3.33301 10.333 6 15c9.33301 60.667 22.333 91 39 91h61l-16 15v15l16 15h15l15 -15v-15l-15 -15h37c41.333 51.333 82.333 81 123 89c4.66699 6.66699 9.66699 13.334 15 20.001l-14 38l-116 35v30h15l76 -15l5 5l-14 38l-34 17
c-31.333 -0.666992 -60.333 -4 -87 -10c-19.333 -42.667 -71.666 -74.334 -156.999 -95.001l-1 -1h-15l-15 16l15 196v16l-15 15c0 23.333 5 42.666 15 57.999v18c0 12 8.33301 23.667 25 35l-25 25c8 30.667 38.333 46 91 46h61v-25c34 8.66699 74.333 17 121 25h76l30 -6
v6l106 -16v-15l-5 -5l31 -12l-11 17h15c12.667 0 25.667 -13 39 -39c27.333 -15.333 50.666 -32.666 69.999 -51.999h12v-13c40.667 -46 61 -102 61 -168l-37 -9l21 -21h1l15 -15v-1l30 -30l-30 -30h-15v37l-42 -23c-6 -12.667 -12.333 -27.667 -19 -45v-15h14zM756 1197v45
l-76 15l-13 -13l44 -33v-15l-15 -15v-15l2 -2c6 17.333 25.333 28.333 58 33zM696 303l15 -15v-15l-44 -33l13 -13l76 15v45c-32.667 4 -52 15 -58 33l-2 -2v-15zM756 485c6.66699 -18 13 -33 19 -45l42 -23v37l-31 30l-16 16h-14v-15zM484 288l-16 -61l16 -15h30v15l-15 46
l15 15h-30zM514 1196l-15 15l15 46v15h-30l-16 -15l16 -61h30zM741 954h-30l45 -46h30v31zM786 576h-30l-45 -46h30l45 15v31zM241 1212h15v30h-30l-10 -5zM226 242h30v30h-15l-25 -25zM259 1407c-48.667 -2.66699 -78.667 -14 -90 -34c20 12 50 23.333 90 34zM259 76
c-39.333 11.333 -69.333 22.666 -90 33.999c11.333 -19.333 41.333 -30.666 90 -33.999zM711 893l-31 31v-31h31zM680 591v-31l31 31h-31zM408 227h30v31zM438 1226v31h-30zM756 1106v14h-30l14 -14h16zM726 364h30v14h-16zM726 1151v-15l15 15h-15zM726 333h15l-15 15v-15z
M726 848l-0.000976562 15h-8c2.66699 -4.66699 5.33398 -9.66699 8.00098 -15zM725.999 621l0.000976562 14c-2.66699 -5.33301 -5.33398 -10 -8.00098 -14h8z" />
    <glyph glyph-name="uni0418" unicode="&#x418;" horiz-adv-x="1101" 
d="M166 0h-30v30h30v-30zM715 61l-30 -31h-16l46 46v-15zM868 198v-30h15v30h-15zM166 290h-15l-30 30h15zM380 305l-16 -15l31 -31v46h-15zM486 381l-30 -30l46 -16l15 16zM730 366h-30v30h30v-30zM730 549l-30 -61h-31v30l16 16l-16 15v15l31 31h30v-46zM441 595h-31v30
h31v-30zM380 671c0 -40.667 -20.333 -61 -61 -61v-15l61 -31l-16 -46v-15h31v31h30l16 -46h15l15 15l-15 46c0 30.667 25.333 46 76 46v15c-36.667 0 -62 30.333 -76 91zM715 762l-30 -30c0 -20.667 30.333 -36 91 -46v76h-61zM441 793l-16 -61h16l30 30zM776 808v-30h15v30
h-15zM715 854h-15v-61h15l31 30zM227 945v-30l31 30h-31zM517 899h-15l-31 31l31 30zM197 991v-46h15l15 15zM791 1082h-15v-30h46zM105 1098l-15 -16l-30 31h45v-15zM929 1250h-16v31h16v-31zM121 1342h-16v30h16v-30zM1020 1387v-45.002l-30 -31h-16v76h-15l-46 -30
l-30 30h-15l-16 -15l16 -76l-61 -15l45 -122h16c20 0 30 15 30 45h15l46 -45c20.667 0 31 25.333 31 76l30 -31v-198l-30 -30h-31l15 76h-45v-31h-31v31h-46l31 -76v-16h-31l-91 77l-61 -31l30 -30l-30 -77v-15l15 -15l76 30v16h-30v15l30 30h16v-45h15l15 15h31v-15
c0 -20.667 -15.333 -31 -46 -31v-30h61c0 30 10 45 30 45c20.667 0 31 -15 31 -45l46 15l-31 30v16l15 15l46 -46v-213l-15 -61l15 -61v-198l-46 -46h-15l15 61v15l-15 15l-46 -45c-20 0 -30 15 -30 45l-46 -15v-15l31 -46c0 -30.667 -20.333 -46 -61 -46l137 -106l46 30
l-31 46v15h15l46 -46v-152l-30 -31h-46l-15 16v15l15 15l-31 31l-45 -46l-122 122l30 30l-30 92v15l45 46l-45 107l15 106h30l16 -15l15 15h15l15 -15l-30 -46v-30h15c20.667 0 31 20.333 31 61h30c0 -30.667 10.333 -46 31 -46h15v31l-31 45v16h77v15l-31 30h-15l-15 -15
l-16 15l31 46v31h-15c-20.667 0 -31 -15.333 -31 -46h-30c0 30.667 -10.333 46 -31 46h-15v-61l15 -16l-61 -30c-26.667 22.667 -77.334 38 -152.001 46l-16 -138c-58.667 -203.333 -104.334 -305 -137.001 -305l31 -45v-46l-92 -76l-46 30l-15 -76l-46 15l-45 -15
c-20.667 0 -31 20.333 -31 61h-30l-15 -15c-20 46 -40.333 71.333 -61 76l30 30l-30 46v31l15 15c50.667 0 76 10 76 30v16c-17.333 42.667 -53 88.334 -107 137.001c0 20 15.333 30 46 30v31h-76v30c34 0 54.333 30.667 61 92l-15 15l30 31l-46 91v15l77 16v30l-61 -15h-16
l-15 15c0 20 25.333 30 76 30v16c-17.333 40.667 -37.666 61 -60.999 61v15l31 30l-31 31l46 76l-30 31l45 76l-15 46l15 15l46 -31h46l15 46l-15 61h-61c-5.33301 -40.667 -20.666 -61 -45.999 -61h-46v46c30.667 0 51 25.333 61 76c30.667 0 46 20.333 46 61h183l15 -15
l-15 -61l15 -61c0 -20.667 -20.333 -31 -61 -31v-30c50.667 0 76 -45.667 76 -137v-16l-15 -15v-15l15 -15l-45 -77v-15l30 -30l-15 -16c6 -60.667 41.667 -91 107 -91v15l15 15v16h-46v30l15 -15l77 30v31l-16 107h-30l-15 -16l-16 16c40 60.667 75.667 91 107 91v46h-46
l31 168c50.667 -7.33301 76 -22.666 76 -45.999c0 -20.667 -15.333 -31 -46 -31v-15c30.667 0 46 -15.333 46 -46l92 46l-16 92l-45 -31l-46 31l15 61h15l46 -31c0 40.667 10.333 61 31 61h228z" />
    <glyph glyph-name="uni0419" unicode="&#x419;" horiz-adv-x="1101" 
d="M166 0h-30v30h30v-30zM715 61l-30 -31h-16l46 46v-15zM868 198v-30h15v30h-15zM166 290h-15l-30 30h15zM380 305l-16 -15l31 -31v46h-15zM486 381l-30 -30l46 -16l15 16zM730 366h-30v30h30v-30zM730 549l-30 -61h-31v30l16 16l-16 15v15l31 31h30v-46zM441 595h-31v30
h31v-30zM380 671c0 -40.667 -20.333 -61 -61 -61v-15l61 -31l-16 -46v-15h31v31h30l16 -46h15l15 15l-15 46c0 30.667 25.333 46 76 46v15c-36.667 0 -62 30.333 -76 91zM715 762l-30 -30c0 -20.667 30.333 -36 91 -46v76h-61zM441 793l-16 -61h16l30 30zM776 808v-30h15v30
h-15zM715 854h-15v-61h15l31 30zM227 945v-30l31 30h-31zM517 899h-15l-31 31l31 30zM197 991v-46h15l15 15zM791 1082h-15v-30h46zM105 1098l-15 -16l-30 31h45v-15zM929 1250h-16v31h16v-31zM121 1342h-16v30h16v-30zM1020 1387v-45.002l-30 -31h-16v76h-15l-46 -30
l-30 30h-15l-16 -15l16 -76l-61 -15l45 -122h16c20 0 30 15 30 45h15l46 -45c20.667 0 31 25.333 31 76l30 -31v-198l-30 -30h-31l15 76h-45v-31h-31v31h-46l31 -76v-16h-31l-91 77l-61 -31l30 -30l-30 -77v-15l15 -15l76 30v16h-30v15l30 30h16v-45h15l15 15h31v-15
c0 -20.667 -15.333 -31 -46 -31v-30h61c0 30 10 45 30 45c20.667 0 31 -15 31 -45l46 15l-31 30v16l15 15l46 -46v-213l-15 -61l15 -61v-198l-46 -46h-15l15 61v15l-15 15l-46 -45c-20 0 -30 15 -30 45l-46 -15v-15l31 -46c0 -30.667 -20.333 -46 -61 -46l137 -106l46 30
l-31 46v15h15l46 -46v-152l-30 -31h-46l-15 16v15l15 15l-31 31l-45 -46l-122 122l30 30l-30 92v15l45 46l-45 107l15 106h30l16 -15l15 15h15l15 -15l-30 -46v-30h15c20.667 0 31 20.333 31 61h30c0 -30.667 10.333 -46 31 -46h15v31l-31 45v16h77v15l-31 30h-15l-15 -15
l-16 15l31 46v31h-15c-20.667 0 -31 -15.333 -31 -46h-30c0 30.667 -10.333 46 -31 46h-15v-61l15 -16l-61 -30c-26.667 22.667 -77.334 38 -152.001 46l-16 -138c-58.667 -203.333 -104.334 -305 -137.001 -305l31 -45v-46l-92 -76l-46 30l-15 -76l-46 15l-45 -15
c-20.667 0 -31 20.333 -31 61h-30l-15 -15c-20 46 -40.333 71.333 -61 76l30 30l-30 46v31l15 15c50.667 0 76 10 76 30v16c-17.333 42.667 -53 88.334 -107 137.001c0 20 15.333 30 46 30v31h-76v30c34 0 54.333 30.667 61 92l-15 15l30 31l-46 91v15l77 16v30l-61 -15h-16
l-15 15c0 20 25.333 30 76 30v16c-17.333 40.667 -37.666 61 -60.999 61v15l31 30l-31 31l46 76l-30 31l45 76l-15 46l15 15l46 -31h46l15 46l-15 61h-61c-5.33301 -40.667 -20.666 -61 -45.999 -61h-46v46c30.667 0 51 25.333 61 76c30.667 0 46 20.333 46 61h183l15 -15
l-15 -61l15 -61c0 -20.667 -20.333 -31 -61 -31v-30c50.667 0 76 -45.667 76 -137v-16l-15 -15v-15l15 -15l-45 -77v-15l30 -30l-15 -16c6 -60.667 41.667 -91 107 -91v15l15 15v16h-46v30l15 -15l77 30v31l-16 107h-30l-15 -16l-16 16c40 60.667 75.667 91 107 91v46h-46
l31 168c50.667 -7.33301 76 -22.666 76 -45.999c0 -20.667 -15.333 -31 -46 -31v-15c30.667 0 46 -15.333 46 -46l92 46l-16 92l-45 -31l-46 31l15 61h15l46 -31c0 40.667 10.333 61 31 61h228zM392 1842h42l41 -13l70 13h181l41 -41c0 -18.667 -13.667 -28 -41 -28l28 -42
v-42l-14 -13v-14l27 -28l-41 -14l28 -42v-42l-14 -13v-14l-98 14h-41c0 36.667 -14 55 -42 55h-14v-55l-28 27l14 14h-42c-18.667 0 -28 -13.667 -28 -41h-97v69l28 42l-28 28v153zM642 1564v-14h28l14 42h-14z" />
    <glyph glyph-name="uni041A" unicode="&#x41a;" horiz-adv-x="1031" 
d="M653 1441h44.999l166 -30l15 15h15l15 -15c0 -50 -30 -75 -90 -75l15 -75l-60 -15c0 -20 15 -30 45 -30v-15l-30 -45c0 -20 15 -30 45 -30l-15 -45l30 -75l-15 -15h-15l-15 15l15 15v30l-61 -60v-30l31 -45c-15.333 -40 -30.666 -60 -45.999 -60l-15 15h-15l-45 -15v-15
c70.667 0 106 -15 106 -45l-46 -45h-15v30h30v30l-60 -30v-30c36 0 91.333 -115.333 166 -346c0 -20 -20 -30 -60 -30l15 -75l15 15h60l45 -45l-135 -30v-45l75 15h15l15 -75l-15 -15c81.333 -6.66699 126.333 -26.667 135 -60l-45 -30c-10 36 -45 61 -105 75
c-10 -60 -35 -90 -75 -90v-15c-160.667 0 -241 75 -241 225l-15 45l15 15c-32.667 0 -67.667 115 -105 345h-15l-45 -30h-15v30h-45v-30c0 -20 30 -30 90 -30v-15l-15 -75h-15c0 40 -10 60 -30 60h-30v-30l15 -60c-10 -52 -30 -92 -60 -120l15 -60l-15 -45
c18.667 0 43.667 -30 75 -90l-15 -15v-15h15l45 45l-30 30l30 30l15 -15v-135l-30 -30h-30l15 15v45h-30v-60h-45l-60 -15l-90 45c0 -30 -10 -45 -30 -45h-15c-20 0 -35 55 -45 165h15l-15 15l15 75v931l30 30l45 -30h30l15 45l-15 45h-45v-30h-60v135l30 30h180l45 -45
l-15 -15v-15l30 -75h-15c-30 0 -45 -10 -45 -30v-15l45 -60l-30 -45v-15h15l15 15h15l60 -15v-15l-30 -30l-30 30h-15l15 -15v-15c-4.66699 -40 -19.667 -60 -45 -60v-30h30v-60h-30v-30c30 0 45 -10 45 -30l-15 -15l45 -30h15l15 45h-45l15 75l-15 15l15 15h15l-15 75v15
h30l30 -30l-15 -75h45c94 330 159 495 195 495zM938.999 1426l30 -30h-30v30zM607.999 1231l30 -30h30v30l-30 30zM893.999 1246h30v-75h-30v75zM367.999 1231h30v-30h-30v30zM322.999 1006h15v-30h-15v30zM172.999 585v-15h30v15h-30zM803.999 435v-45h15v45h-15z
M382.999 435h30v-30h-30v30zM352.999 360c30 -6 45 -46 45 -120v-15h-30l-45 75c20 0 30 20 30 60zM742.999 300v-30h46l-31 30h-15z" />
    <glyph glyph-name="uni041B" unicode="&#x41b;" horiz-adv-x="1220" 
d="M1096 0c-172.667 6.66699 -259.001 16.666 -259.001 29.999c0 20.667 -15.333 31 -46 31v30h31v16l-61 122l15 15h15c20.667 -23.333 31 -59 31 -107l61 76c-16.667 0 -37 35.667 -61 107h-15l-16 -15l-15 15l46 107l-15 15h-16c0 -30.667 -10 -46 -30 -46v31l46 46h15
v-46l15 -15h31c0 27.333 15 57.666 45 90.999c-32.667 0 -58 40.667 -76 122h-30v-15l15 -15v-16h-31v31l-15 15l15 15h31l-15 16v15h76v30l-61 15l15 16v30h-30v-46h-16l-15 16h-15c7.33301 60.667 17.333 91 30 91l-30 153l15 15l15 -15h16l91 30v31l-107 -31
c0 18.667 -45.667 34 -137 46l-61 -15h-14v-1l31 -45c0 -40 -25.667 -80.667 -77 -122v-15l46 -61v-31h-15l-46 15l31 -91v-15l-31 -46c40.667 -10 61 -40.667 61 -92c-20 0 -35.333 -30.333 -46 -91h31l15 15h15l16 -15c0 -30.667 -20.333 -46 -61 -46l15 -76h-46
c0 -20 15.333 -30 46 -30l15 -16v-30h-30l15 -46l-15 -76h-31v46h-30v-46h30c-15.333 -40.667 -30.333 -61 -45 -61h-31l15 107l-45 -31h-31l-15 15h-15l-16 -15v-15c51.333 -13.333 77 -28.666 77 -45.999h-77l-15 15h-15l-31 -91h-76l-30 30l15 16
c-112 46 -168 76.333 -168 91v15l15 77c-20 0 -30 15 -30 45l15 16l-15 76v76h30c54.667 -40.667 100.667 -61 138 -61c40.667 10 61 40.667 61 92v274l15 320l-15 15l15 76v260l30 30h122c51.333 -2.66699 77 -12.667 77 -30l15 15h106l31 -31l-1 -1
c20 -39.333 50.333 -59 91 -59v30h76l46 31l15 -16h16v31h30c0 -33.333 10.333 -58.666 31 -75.999v-16h30c39.333 44 90.333 79.667 153 107l30 -91v-153l-15 -15l15 -15v-641l-15 -15l15 -15v-153l-30 -45l30 -31v-15l-30 -31l-46 46h-15
c-3.33301 -50.667 -18.666 -76 -45.999 -76l15 -61h76c0 30.667 10.333 46 31 46l15 -16v-106zM1096 822.999v31h-30c0 30 -10.333 45 -31 45l-30 -61v-30h15zM867.999 898.999c0 20.667 15 31 45 31l16 15v15l-16 16h-15l-46 -46h-15v-31h31zM304.999 974.999l30 -30h31v76
h-15zM882.999 1281v45l-76 -15v-30h76zM502.999 974.999l15 -15h46v46h-31zM851.999 807.999v15l-30 31v-46h30zM365.999 228.999l30 -31v31h-30zM1020 273.999v31h-15v-31h15zM882.999 289.999v30h-31zM806.999 670.999h-31v30zM502.999 258.999v-15h30v15h-30z
M623.999 1311v15l-30 30v-15zM653.999 1220v30h-15v-30h15zM563.999 1219l9 6l-10 10h-16l16 -16h1z" />
    <glyph glyph-name="uni041C" unicode="&#x41c;" horiz-adv-x="1361" 
d="M80 1451l122.998 -0.00195312l217 -15l46 15c72 -10 108 -25.333 108 -46v-15c-30.667 0 -46 -10.333 -46 -31c44.667 0 75.334 -67 92.001 -201h-46v31h-31c0 -62 20.667 -93 62 -93v-15l-62 -62l15 -15l-15 -78v-46h15l16 15h15l-15 16v46l15 16v15
c19.333 0 45.333 -31 78 -93v-15l-47 -62h16l15 16h16l15 -47h15c34 268 65 422.667 93 464l-15 15v15c12.667 103.333 33 155 61 155h108c237.333 0 356 -15.333 356 -46c-41.333 0 -62 -31 -62 -93c-41.333 -5.33301 -62 -20.666 -62 -45.999l46 -47v-15l-46 31l-15 -16
v-15c92 -50.667 138.333 -86.667 139 -108l-16 -16h-31l-46 31l-16 -92c37.333 -52 68.333 -78 93 -78v-15l-15 -16v-15c20.667 0 36 -31 46 -93l-15 -15h-16l-46 123h-31v-15l15 -77c-37.333 -51.333 -68 -77 -92 -77v-31l77 -16v62h15l31 -31v-31l-46 -46l46 -77l-15 -47
h31v31h31v-15l-31 -62l15 -46h-15l-16 15h-15l-47 -15v-16c0 -82 20.667 -123 62 -123l-15 -77l15 -16c-44.667 0 -75.334 -25.667 -92.001 -77h-47l16 -15v-31l-31 -31l-46 31c0 -41.333 -10.333 -62 -31 -62h-47l-46 31l15 463v201c-20 0 -30 -41.333 -30 -124
c-17.333 0 -33 -41 -47 -123l-77 -31v-16c0 -20 20.667 -30 62 -30v-31c0 -79.333 -20.667 -125.666 -62 -138.999l16 -16v-15l-31 -46l31 -47l-16 -15v-16l16 -15l-16 -16h-15l-78 47l-30 -31c-20.667 0 -31 15.333 -31 46l-31 -31l15 -15l-15 -16h-47
c-27.333 0 -47.666 72.333 -60.999 217l46 46c-51.333 0 -77 92.667 -77 278c-13.333 0 -23.666 30.667 -30.999 92c-41.333 0 -62 15.667 -62 47l16 46c-20.667 0 -31 15.333 -31 46h-16c0 -40.667 -10.333 -61 -31 -61l109 -155c0 -20.667 -15.667 -31 -47 -31v-15
c31.333 -38 47 -74 47 -108h-16l16 -16v-15l-62 -62l-47 16l-30 -47l30 -46l-15 -77l77 -62v-15h-15l-47 15l-77 -93l-46 31h-31l-62 -46h-15l-31 31v509l15 62l-15 62v463c0 16.667 46.333 52.667 139 108l-15 77l15 16l-15 15l-16 -15h-31l-77 92zM1083 1359v-16h31v16
h-31zM1099 1281h31v31zM357.998 1251v-31h15l31 31h-46zM1006 1204v-15h31v15h-31zM326.998 1096v-31h31v31h-31zM310.998 1019l-46 -139l77 -31h16l31 62v31h-31v31h31v15l-31 31h-47zM1037 987.998v-31h-15l15 -46l16 15h92v31c-48 0 -84 10.333 -108 31zM1269 987.998h31
v-15h-31v15zM805.998 956.998v-31h30l31 31h-61zM882.998 817.998l61 -15v15l-30 31zM341.998 833.998v-31h16v31h-16zM372.998 833.998v-31h16v31h-16zM280.998 802.998v-31h15v31h-15zM882.998 740.998l31 -31h30v31h-61zM403.998 725.998l31 -31v31h-31zM295.998 663.998
v-16h31v16h-31zM1053 663.998v-16h30v16h-30zM1269 647.998h31v-30h-31v30zM326.998 570.998l15 -15h16v46zM156.998 570.998v-31h31v31h-31zM1053 570.998v-31h15v31h-15zM1161 508.998v-30h77l-31 77zM341.998 478.998l-15 -108h46l16 46l-16 62h-31zM1068 339.998v-16
l15 -15v-16l-15 -15l-15 15h-31l15 -108l46 31l47 -15v15l46 46h15v-30h16v30l-108 31v16c30.667 0 46 25.667 46 77zM1284 370.998h16v-31l-31 -31l-31 31zM774.998 339.998l-16 -62l47 -31v15l-16 62l16 16h-31zM341.998 292.998h31v-31h-31v31zM542.998 215.998v-31h31z
M1269 138.998h15v-31h-15v31zM357.998 61.998h15v-47h-46v16zM1222 45.998l31 -31l-15 -15h-31l-31 31l15 15h31z" />
    <glyph glyph-name="uni041D" unicode="&#x41d;" 
d="M157 1432c184.667 -6.66699 277.002 -37.665 277.002 -92.998l-46 -15v-31l77 -77l-61 -16v-15c0 -20.667 15.333 -31 46 -31l15 -15v-31h-61l30 -47l-15 -46l15 16h16l15 -16v-15l-61 -62l15 -16h15l16 16c15.333 -41.333 30.666 -62 45.999 -62l31 31h108
c5.33301 41.333 20.666 62 45.999 62l-46 77v62l46 77l-30 31l108 61v16l-16 15h-15l-31 -31c-41.333 17.333 -62 53.666 -62 108.999l31 30h201l46 -46l-16 -62l16 -15v-16l-16 -46l93 -15v-31h-46l-16 15h-15v-31c10 -40.667 35.667 -61 77 -61l16 15l15 -15v-16l-77 -15
v-16h31v-30l-16 15h-62c31.333 -62 62.333 -93 93 -93v-15c-62 0 -93 -25.667 -93 -77h16l46 -31l47 15l-16 -15v-16l16 -15v-15l-31 -31l15 -77l-15 -47l-78 16v-16l16 -15v-16l-16 -46l78 -93l-31 -30c41.333 0 62 -26 62 -78l-16 -15h-15l-47 15l-31 -46v-31
c38.667 -3.33301 69.667 -24 93 -62v-30l-15 -16l31 -77h-16l-77 15v-15c0 -20.667 20.667 -31 62 -31l15 -15v-31l-31 -31l-46 62h-16c0 -31.333 -10 -47 -30 -47h-16l-139 16l-61 -16l-16 16v62l16 92l-16 46l16 16v15l-16 47l31 31c-20.667 16 -31 72.333 -31 169l-15 16
h-170l-16 -108l31 -31l-46 -46l15 -47h-30l-47 31l16 -77l-16 -62h16l46 16l15 -16v-62c-51.333 0 -77 -20.333 -77 -61l16 -16h31c0 31.333 10 47 30 47l31 -47l-31 -31h-15c-34.667 0 -70.667 15.667 -108 47h-31l16 -16v-15l-16 -16h-15l-62 16l-93 -31l-15 15v1390
c0 25.333 20.667 40.666 62 45.999zM959.002 1386h31l-31 -31v31zM249.002 1293l31 -31l16 15v16h-47zM944.002 1293h31v-31h-31v31zM743.002 1231v-31h31zM203.002 1000l-15.999 -78l16 -61l77 61c-6.66699 41.333 -32.334 67.333 -77.001 78zM882.003 845.002v-46l31 31
l-16 15h-15zM928.003 799.002l31 -31v31h-31zM897.003 737.002v-31h31zM944.003 676.002h31v30zM434.003 614.002v-47h31l47 31h30l47 -31h31v31l-93 31h-15zM388.003 382.002h31v31zM218.003 305.002c0 -20.667 -20.333 -31.001 -61 -31.001v-31
c30.667 0 46 -20.333 46 -61c72 34.667 108 60.334 108 77.001c-30.667 0 -46 15.333 -46 46h-47zM666.003 259.001v-31h31v31h-31zM913.003 197.001v-46h46v46h-46z" />
    <glyph glyph-name="uni041E" unicode="&#x41e;" horiz-adv-x="1187" 
d="M569 1433l77 -0.000976562l76 -61h15l46 31l76 -77v-30l-15 -61l137 -168h15c0 30.667 10.333 46 31 46l15 -15l-15 -16v-15l15 -46h-46v-30h61v-31c-40.667 -4.66699 -61 -19.667 -61 -45l46 -77l-15 -15v-15l15 -15h15l-15 -15v-31h46c0 30.667 10 46 30 46l15 -15v-16
c-6 -30 -41.333 -45 -106 -45c0 -20.667 15 -31 45 -31l16 -15v-15h-77l61 -92l61 46h16v-15c0 -26.667 -35.667 -47 -107 -61l-15 15l-16 -15v-16l31 -30l-15 -15l-16 15h-30v-31l46 -15l-16 -15v-31h16l61 46l15 -15v-15c0 -18 -45.667 -43.667 -137 -77l-16 16
c-32.667 -51.333 -73 -77 -121 -77v-30l76 -31v-30l-16 15h-30v-30l-15 -16l15 -15h15c0 -26 -45.667 -46.333 -137 -61v-15h31v-31h-16c-27.333 0 -42.333 25.667 -45 77c-40.667 -15.333 -61 -30.666 -61 -45.999l15 -46l-15 -15h-16c0 18.667 -35.333 49 -106 91v-61h-31
l-15 16h-15l-16 -16v31h-15l-46 -31c-124 70 -195 126 -213 168l15 15c-60.667 93.333 -91 154.333 -91 183c-20.667 36.667 -36 133.334 -46 290.001c10 193.333 35.333 290 76 290l-15 15v15c0 89.333 50.667 165.666 152 228.999l-15 15v15c63.333 112 170 168 320 168z
M707 1296v-15h15l30 30v15h-15zM768 1326v-15h30v15h-30zM630 1311l16 -15v-46h-46v-30c30.667 0 46 -10.333 46 -31l-16 -15v-15l16 -16h15c0 30.667 10 46 30 46l31 -30v45c-40.667 0 -61 10.333 -61 31l15 15v15l-15 46h-31zM417 1235v-31h30l31 31l-31 30zM707 1235v-15
h30v15h-30zM478 929.999h-31.001v76l-15 -15h-15l-15 15h-16v-107l16 -61l-16 -45h16l-16 -15v-31h61v-30h-61v-16l16 -15v-15l-16 -15l-15 15h-30l30 -46l-46 -46v-15l46 31l15 -46l16 15h15l61 -61v-76l-15 -15v-16l183 -30c56.667 91.333 102.334 137 137.001 137l-15 15
v61h45v16c-40.667 0 -61 10 -61 30l31 46l-46 46v91l-15 91l15 46c-44 54 -94.667 84.667 -152 92c-38 0 -73.667 -35.667 -107 -107zM858.999 944.999v-30l61 -16l15 46h-76zM462.999 914.999v-46l-31 30l15 16h16zM309.999 761.999v-76h15l31 31v45h-46zM202.999 655.999
l-30 -61l30 -31h92v31l-31 30l-15 -15h-15l-15 46h-16zM416.999 441.999h30v31zM614.999 334.999v-30h15v30h-15zM675.999 334.999v-30l31 30h-31zM965.999 304.999h61l-16 -76h-30zM401.999 273.999l15 -45h15l31 30v15h-61zM568.999 273.999v-15h61v15h-61z
M660.999 228.999l91 15v30h-45zM248.999 212.999v-15h31v15h-31zM614.999 212.999v-45l31 30l-16 15h-15zM690.999 197.999v-30h16v30h-16zM736.999 151.999h31v31zM858.999 45.999h30v-16h-30v16z" />
    <glyph glyph-name="uni041F" unicode="&#x41f;" horiz-adv-x="1063" 
d="M656 1433h307.999l31 -31v-138h-31l15 15v15h-77v-30l16 -16v-15l-31 -31v-46l123 -31v-46h-61v-16l30 -46v-31c-40.667 0 -61 -30.667 -61 -92l61 46l16 -15v-16l-31 -31l-15 16v-47h15l15 16h16v-16c0 -20 -25.667 -30 -77 -30v-31l46 -16l46 16v-46
c-40.667 0 -61 -10.333 -61 -31v-16h30v-15l-15 -15v-16l15 -15v-16l-15 -46l31 -31v-15h-77l92 -108l-31 -62l16 -15c-41.333 -10 -62 -35.667 -62 -77h62v-31l-16 -15l16 -16v-15c0 -20.667 -15.333 -31 -46 -31v-15l30 -47v-15l-15 -15v-16l31 -31v-15h-16l-107 46v-46
h-31l-139 15l-62 -15l-15 15v16l15 92l-15 16v15c0 62 15.333 93 46 93v30c-30.667 0 -46 10.333 -46 31v570l46 47l62 -47h46l15 47l-15 46h-15l-108 -31l-18 97h-20l-61 15c-91.333 -12 -137 -27.333 -137 -46l-107 31v-31l91 -30h16l15 15l15 -15l-30 -153
c12.667 0 22.667 -30.333 30 -91h-15l-15 -16h-16v46h-30v-30l15 -16l-61 -15v-30h76v-15l-15 -16h31l15 -15l-15 -15v-31h-31v16l15 15v15h-30c-18 -81.333 -43.333 -122 -76 -122c30 -33.333 45 -63.666 45 -90.999h31l15 15l46 -107l-15 -15l-16 15h-15
c-24 -71.333 -44.333 -107 -61 -107l61 -76c0 48 10.333 83.667 31 107h15l15 -15l-61 -122v-16h31v-30c-30.667 0 -46 -10.333 -46 -31c0 -13.333 -86.333 -23.333 -259 -30l-46 46v106l15 16c20.667 0 31 -15.333 31 -46h76l15 61c-27.333 0 -42.666 25.333 -45.999 76
h-15l-46 -46l-30 31v15l30 31l-30 45v153l15 15l-15 15v641l15 15l-15 15v153l30 91c62.667 -27.333 113.667 -63 153 -107h30v16c20.667 17.333 31 42.666 31 75.999h30v-31h16l15 16l46 -31h76v-30c40.667 0 71 20.333 91 61c30.667 0 46 10 46 30c6 -1.33301 12 -3 18 -5
zM190.999 808h15v30l-30 61c-20.667 0 -31 -15 -31 -45h-30v-31zM732.999 324v-47h31l-31 -30l-16 15v-62l77 62v15c-20 0 -30 15.667 -30 47h-31zM373.999 899v31h-15l-46 46h-15l-16 -16v-15l16 -15c30 0 45 -10.333 45 -31h31zM403.999 1281v30l-76 15v-45h76z
M449.999 396c-20 0 -30 15.333 -30 46h-16l-15 -15v46h15l46 -46v-31zM932.999 247l-15 -16v-15l15 -16h16l15 16v15l-15 16h-16zM932.999 1402l-31 -46h31l31 31l-15 15h-16zM388.999 808v46l-30 -31v-15h30zM824.999 62v-31h16v31h-16zM434.999 701v-30h-31zM358.999 320
h-31v-30zM617.999 1342v15l-31 -31v-15zM205.999 274v31h-15v-31h15zM571.999 1220v30h-15v-30h15zM632.999 1204l6 6l-1 14l-20 -20h15z" />
    <glyph glyph-name="uni0420" unicode="&#x420;" horiz-adv-x="1031" 
d="M960 1219c0 -86.667 15.333 -147.668 46 -183.001l-31 -46l31 -91l-31 -31l15 -15c-6.66699 -81.333 -16.667 -122 -30 -122l15 -76l-46 15l-15 -15h-15l-61 46h76l-15 15v15l15 16v15c-101.333 -15.333 -152 -40.666 -152 -75.999l30 -31l-30 -30
c-20.667 0 -31 15 -31 45h-76c0 -20 -20.333 -45.333 -61 -76l46 -76v-15h-15l-61 45h-15c-20.667 0 -31 -20 -31 -60l-107 30v-15c0 -27.333 -15 -58 -45 -92v-15c40.667 0 61 -10 61 -30l-16 -16l-15 16h-30l-31 -61l31 -61l-31 -122l15 15h16l15 -15v-31h-46l-30 31
l-76 -15h-46v-61c60.667 0 91 -10.333 91 -31l-15 -15h-46l-45 30h-16l-45 -30l-46 46v487l15 92l-15 15v15l15 594v153l31 30h365c93.333 0 159.333 -20.333 198 -61l46 15c30.667 -42.667 46 -83 46 -121h-15l-31 30l15 15v15c-47.333 0 -82.666 10.333 -105.999 31h-16
l16 -76l-61 -15v-31l76 -15l-15 -15v-31l15 15h30l16 -15h15c0 30.667 10 46 30 46h16l15 -15h15v15l-15 15v15l15 46h15c17.333 0 32.666 -30.333 45.999 -91l-15 -46h61v30l-16 77h31v-31h30zM137 1341l31 -31v-15l-61 -15v-31c30 0 45 -10 45 -30l-15 -46h31
c0 30.667 10 46 30 46l61 -61v15l-15 76l15 -15h31l30 31c-60.667 13.333 -91 28.333 -91 45l45 46l-15 15h-15l-46 -30l-30 30zM396 1325l-15 -15l15 -15v-15l-15 -15v-16c20 0 30 -15 30 -45l46 -16v107zM350 1173v-30h31zM427 1158v-31c30 0 45 -20.333 45 -61h-15
l-15 -60h-15c-20.667 0 -31 15 -31 45h-30l15 -15v-15l-46 -122v-15h15c30.667 0 46 15 46 45l15 16h31v-122h107l76 45l-16 46l16 92v15c-30.667 0 -46 20.333 -46 61zM899 1143l-31 -92v-15h46l15 76v31h-30zM823 1127v-30h15v30h-15zM350 1082h46v30h-15zM168 1021
c0 -30.667 -20.333 -61.333 -61 -92h45l16 16c30 0 45 -15.333 45 -46l16 -15h15c0 30 15.333 45 46 45v31h-61l15 15v46c-20.667 0 -31 -15.333 -31 -46l-15 -15h-30l30 46l-15 15h-15zM838 914c30.667 0 46 -20.333 46 -61h15l30 31l-15 106h-15zM152 914v-61h16l30 61
h-46zM396 884v-31h15v31h-15zM259 701v-31h-15l-76 16l45 -61l-76 -16c0 -20 25.333 -30 76 -30l16 -15v-31l-16 15h-15l-30 -30l30 -30l31 30l61 -15l-16 76h16l15 -15h15l15 15v30c-60.667 0 -91 10.333 -91 31l46 15v46h-31zM442 609v-45h30v45h-30zM701 625l30 -31
l-15 -15h-15v46zM762 564h15v-31h-15v31zM152 381l-15.001 -15l15 -16v-30c0 -20.667 -15 -31 -45 -31v-30h45v-46l-15 -15v-15h15l46 30c20.667 0 31 -15 31 -45l91 -31v76l-15 -15h-31l-45 46l61 15v30c-51.333 0 -77 10.333 -77 31c40.667 0 61 15.333 61 46h-45
c0 -30.667 -10.333 -46 -31 -46c-15.333 40.667 -30.666 61 -45.999 61z" />
    <glyph glyph-name="uni0421" unicode="&#x421;" horiz-adv-x="864" 
d="M455 1425h147.001c118 -28 177 -57.333 177 -88l-15 -132l15 -44h-30l-14 14h-15l-15 -59h-15l-14 15h-15c0 -19.333 -14.667 -29 -44 -29l15 -15v-15l-15 -14h-15l-14 44h-59c0 -49.333 -14.667 -74 -44 -74l-59 15c0 -19.333 14.667 -29 44 -29v-15l-29 -29
c-24.667 0 -39.334 19.333 -44.001 58h-44c0 -29.333 -10 -44 -30 -44l-14 15l-30 -44h15l88 15l29 -30c0 -107.333 -24.333 -161 -73 -161v-15c29.333 -36 44 -70.333 44 -103v-15l-44 -58h15l14 14h15c0 -93.333 63.667 -161.666 191 -204.999c55.333 0 119 39 191 117h15
l14 -59l-29 -88l15 -14v-15l-30 -44l30 -44c-10 -49.333 -29.667 -74 -59 -74v-14c0 -20 14.667 -30 44 -30v-44h-88v30l-74 -30l15 -73l-15 -15h-14l-15 15l15 14v30l-74 14h-15v-44h-14c-59.333 49.333 -103.333 74 -132 74c0 -22.667 -24.667 -37.334 -74 -44.001
c-103.333 100.667 -167 179 -191 235v15l15 14v15c-68.667 0 -103 117.333 -103 352c0 306.667 93 532 279 676c67.333 39.333 126 59 176 59zM544.001 1175v-44h29v44h-29zM617.001 1175v-29l29 29h-29zM749.001 1116l30 -29v-103h-15c-68.667 34 -103 58.667 -103 74v29
l74 -15h14v44zM309.001 926v-30l58 -29v59h-58zM309.001 705v-29h29zM544.001 44l14 -15v-14l-14 -15h-15l-15 15v14l15 15h15z" />
    <glyph glyph-name="uni0422" unicode="&#x422;" horiz-adv-x="902" 
d="M76 1433l739.001 -0.000976562l31 -31l-46 -46l-15 15c0 -61.333 -20.667 -92 -62 -92c0 -15.333 20.667 -30.666 62 -45.999c0 -31.333 20.333 -47 61 -47h16v-46l-62 -61h-31v30h46v31c-40.667 0 -61 10.333 -61 31l15 15h-15l-46 -46v-15c30.667 0 46 -10.333 46 -31
l-46 -15l-16 15h-31v-15h31v-16l-31 -31c-6.66699 27.333 -32.334 53 -77.001 77h-15v-77h31v-30h-31v-47h15l47 16c-41.333 -48.667 -67.333 -100 -78 -154h16c30.667 10 46 40.667 46 92l16 -15h15l-15 -16v-15l15 -77c-30.667 0 -46 -15.333 -46 -46l-16 -16h-15
c0 -51.333 20.667 -77 62 -77v-61h-31v46h-31l-31 -170c0 -30.667 15.333 -46 46 -46v-31h-31v-108l16 16h15l16 -16v-15l-47 -15c5.33301 -95.333 21 -157 47 -185l-16 -16h-15l-31 31h-15c0 -51.333 -15.667 -77 -47 -77c-20 0 -30 25.667 -30 77h-93v-15l16 -16v-15
l-93 -31l-15 15v216l31 31l-31 123v462l15 93l-31 123l16 16h-31v15l-93 -31h-30c0 20.667 -15.667 31 -47 31l-15 15v108l46 47c4 -28 29.667 -48.667 77 -62l31 77l-15 15l-16 47h-15c-30.667 0 -46 -15.667 -46 -47l-16 -15h-15l-31 31v92zM322.001 1371v-30h16v30h-16z
M384.001 1371c0 -27.333 -25.667 -53 -77 -77l-15 16h-16l-15 -16v-30c51.333 0 77 -10.333 77 -31l-46 -47v-15h46v46h15c20.667 0 31 -20.333 31 -61h31v46l-31 46l15 16l16 -16h15l31 31l-62 15l16 77h-31zM553.001 1341l-15 -77.001l15 -16h16l-16 -15v-31h16
c3.33301 41.333 34 62 92 62c-10 36.667 -46 62.334 -108 77.001zM168.001 1171c0 -30.667 -20.333 -46 -61 -46v-16h46c0 20.667 15.333 31 46 31zM60.001 1063h47l-31 -31h-16v31zM338.001 1002v-31c40.667 0 61 -15.333 61 -46h47v15l-31 62h-77zM292.001 954.998l30 -30
l16 15v15h-46zM322.001 877.998h31v31zM384.001 908.998v-31h31zM600.001 739.998l31 -31l-16 -16h-15v47zM353.001 692.998v-46h31c0 -20.667 -25.667 -31 -77 -31v-30c41.333 0 62 -10.333 62 -31l-31 -31v-31h15l46 31l62 -31v46l-15 47h46v30
c-30.667 0 -46 20.667 -46 62l-62 -31c0 30.667 -10.333 46 -31 46zM569.001 523.998h46v-16l-31 -30l-15 15v31zM338.001 338.998l31 -31v31h-31zM399.001 338.998v-31h16v31h-16zM307.001 292.998v-31h46v31h-46zM399.001 292.998v-31h77v31h-77zM338.001 246.998l-31 -62
h31l31 31v31h-31zM399.001 230.998v-31h16v31h-16zM600.001 215.998h46v-16l-31 -31l-15 16v31zM615.001 45.998h31v-31h-31v31z" />
    <glyph glyph-name="uni0423" unicode="&#x423;" horiz-adv-x="907" 
d="M477 631l2 -0.00195312v4c-4 -2.66699 -9 -4 -15 -4c0 14.667 -44.333 32.667 -133 54l-14 9h-14c12 -27.333 30 -42.333 54 -45l13 8v-8l-27 -46l-12 9h-14l14 9v10c-27.333 15.333 -41 33.333 -41 54h-14l-12 -9h-15l-39 9l-14 -9v-9l27 -18h-13l-40 27l13 9
c-32 0 -67.667 30.667 -107 92l13 9v9l-26 128v202l26 28l-26 26v10l26 26l-26 19v119l26 19c18 0 27 -9.33301 27 -28l14 -9h53l40 37h26v18c-26 0 -39 15 -39 45l-14 -8h-53v8l27 19h26l14 -9l13 9h26c45.333 -16.667 68 -44 68 -82l-27 -56l27 -18v-36l-41 -9l41 -46
l-27 -46c11.333 -30.667 25 -46 41 -46c0 25.333 8.66699 38 26 38l27 -20v-8l-41 -28h-12l-41 18v-9c18 -14 27 -35.333 27 -64c44.667 0 67 -6 67 -18l-27 8l-26 -8h-14v-2l26 -18v18h27l14 -83h-14c12.667 -24.667 35 -42.667 67 -54c19.333 0 35 2.33301 47 7l10 175
l-15 15l15 76v260l30 30h13l-5 6l12 9h148c12.667 0 25.667 -12 39 -36h1l6 6h106l31 -31l-31 -45v-31l16 -15v-15c-51.333 -13.333 -77 -28.666 -77 -45.999v-31h31l46 31l15 -15v-46l-15 -61l15 -46l-46 -15v-1l9 -6v-36h-1l23 -33c0 -21.333 -7.33301 -43 -22 -65v-13
c0 -7.33301 -7.66699 -12.333 -23 -15c-9.33301 -10 -20 -19.667 -32 -29v-15l46 -61v-31h-15l-35 11l-8 -5v8l-3 1l3 -9l28 -82v-15l-31 -46c40.667 -10 61 -40.667 61 -92c-20 0 -35.333 -30.333 -46 -91h31l15 15h15l16 -15c0 -30.667 -20.333 -46 -61 -46l15 -76h-46
c0 -20 15.333 -30 46 -30l15 -16v-30h-30l15 -46l-15 -76h-31v46h-30v-46h30c-15.333 -40.667 -30.333 -61 -45 -61h-31l15 107l-45 -31h-31l-15 15h-15l-16 -15v-15c51.333 -13.333 77 -28.666 77 -45.999h-77l-15 15h-15l-31 -91h-76l-30 30l15 16
c-112 46 -168 76.333 -168 91v15l15 77c-20 0 -30 15 -30 45l15 16l-15 76v76h30c54.667 -40.667 100.667 -61 138 -61c40.667 10 61 40.667 61 92v139h-2v19zM196 995.998l14 -9l-94 -9l67 -45c37.333 8 64.333 23 81 45c-27.333 0 -41 6 -41 18l14 28zM89 1454
c27.333 -6 41 -24.333 41 -55l-14 -9h-27l-26 19v26zM753 974.998l15 -15h46v46h-31zM357 802.998l-14 -9v-10l14 -34h13l14 34v10l-14 9h-13zM343 1189h27v-19h-27v19zM223 648.998h41v-18h-15zM616 228.998l30 -31v31h-30zM753 258.998v-15h30v15h-30zM753 1311h30v30z
M555 1001l11 -11.001c12.667 2.66699 19 7.33398 19 14.001c-10 0 -18.667 0.333008 -26 1zM343 1409h27v-10h-27v10zM196 1326v-10h27v10h-27zM357 1280h27v-9h-27v9zM343 1326h27v-18z" />
    <glyph glyph-name="uni0424" unicode="&#x424;" horiz-adv-x="1582" 
d="M97 552c0 86.667 -15.333 147.667 -46 183l31 46l-31 91l31 31l-15 15c6.66699 81.333 16.667 122 30 122l-15 76l46 -15l15 15h15l61 -46h-76l15 -15v-15l-15 -16v-15c101.333 15.333 152 40.666 152 75.999l-30 31l30 30c20.667 0 31 -15 31 -45h76
c0 20 20.333 45.333 61 76l-46 76v15h15l61 -45h15c20.667 0 31 20 31 60l106 -30l1 1v14c0 27.333 15 8 45 -58v15c-40.667 0 -61 10 -61 30l16 16l15 -16h30l31 61l-5 12l-10 -10h-16l-15 15v31h22l-7 13l9 -13h22l30 -31l15 3v-4c17.333 0 31.666 -1 42.999 -3l7 17l11 2
h46v61c-60.667 0 -91 10.333 -91 31l15 15h46l45 -30h16l45 30l46 -46v-143h27c93.333 0 159.333 -20.333 198 -61l46 15c30.667 -42.667 46 -83 46 -121h-15l-31 30l15 15v15c-47.333 0 -82.666 10.333 -105.999 31h-16l16 -76l-61 -15v-31l76 -15l-15 -15v-31l15 15h30
l16 -15h15c0 30.667 10 46 30 46h16l15 -15h15v15l-15 15v15l15 46h15c17.333 0 32.666 -30.333 45.999 -91l-15 -46h61v30l-16 77h31v-31h30l31 -15c0 -86.667 15.333 -147.667 46 -183l-31 -46l31 -91l-31 -31l15 -15c-6.66699 -81.333 -16.667 -122 -30 -122l15 -76
l-46 15l-15 -15h-15l-61 46h76l-15 15v15l15 16v15c-101.333 -15.333 -152 -40.666 -152 -75.999l30 -31l-30 -30c-20.667 0 -31 15 -31 45h-76c0 -20 -20.333 -45.333 -61 -76l46 -76v-15h-15l-61 45h-15c-20.667 0 -31 -20 -31 -60l-106 29l-1 -1v-13
c0 -27.333 -15 -58 -45 -92v-15c40.667 0 61 -10 61 -30l-16 -16l-15 16h-30l-31 -61l5 -12l10 10h16l15 -15v-31h-22l7 -13l-9 13h-22l-30 31l-15 -3v4c-17.333 0 -31.666 1 -42.999 3l-7 -17l-11 -2h-46v-61c60.667 0 91 -10.333 91 -31l-15 -15h-46l-45 30h-16l-45 -30
l-46 46v293h-27c-93.333 0 -159.333 20.333 -198 61l-46 -15c-30.667 42.667 -46 83 -46 121h15l31 -30l-15 -15v-15c47.333 0 82.666 -10.333 105.999 -31h16l-16 76l61 15v31l-76 15l15 15v31l-15 -15h-30l-16 15h-15c0 -30.667 -10 -46 -30 -46h-16l-15 15h-15v-15
l15 -15v-15l-15 -46h-15c-17.333 0 -32.666 30.333 -45.999 91l15 46h-61v-30l16 -77h-31v31h-30zM1023 900h-15l-15 -60h-4l-2 -61h6v-122h107l76 45l-16 46l16 92v15c-30.667 0 -46 20.333 -46 61l-138 68v-25c20.667 -6 31 -25.667 31 -59zM585 705h15l15 60h3l2 61h-5
v122h-107l-76 -45l16 -46l-16 -92v-15c30.667 0 46 -20.333 46 -61l137 -69v26c-20 5.33301 -30 25 -30 59zM1389 748c30.667 0 46 -20.333 46 -61h15l30 31l-15 106h-15zM219 857c-30.667 0 -46 20.333 -46 61h-15l-30 -31l15 -106h15zM158 628l31 92v15h-46l-15 -76v-31
h30zM1450 977l-31 -92v-15h46l15 76v31h-30zM780 168l22 -8c4.66699 2.66699 8.66699 5.66699 12 9l-4 -11l61 -21v76l-15 -15h-31v2h-45c0 -6 -0.333008 -11.333 -1 -16c0.666992 -4.66699 1 -10 1 -16zM806 1295c-4.66699 -2.66699 -8.66699 -5.66699 -12 -9l4 11l-61 21
v-76l15 15h31v-2h45c0 6 0.333008 11.333 1 16c-0.666992 4.66699 -1 10 -1 16zM825 1190l-15 15h-15l-13 -9l1 -4h-8l-26 -17l-22 22l-5 -5v-30c30 0 52.667 -2.66699 68 -8zM886 413v30c-30.667 0 -53.667 2.33301 -69 7l-34 -35l15 -15h15l13 8l-1 5h8l26 17l22 -22z
M795 504l-50 10l-8 -8c36 -8 61.333 -16.667 76 -26l28 9v46h-31l3 -13l-3 3v-21h-15zM871 1099c-36.667 8 -62.333 16.333 -77 25l-27 -8v-46h30l-2 13l3 -3v21h15l50 -11zM658.001 123v-30h45v54c-3.33301 -16 -18.333 -24 -45 -24zM950.001 1362h-45v-53
c4 15.333 19 23 45 23v30zM767.001 1362v-26l50 10l11 31zM841.001 93v26l-50 -10l-11 -31zM1008 1022v107l-20 9l8 -7v-15l-3 -89zM612.001 489l2 89l-14 5v-107l19 -10l-7 8v15zM615.001 1162v45h-30v-45h30zM993.001 443v-45h30v45h-30zM767.001 834v-22.999h28v37
c-6.66699 -4 -15 -6 -25 -6c-0.666992 -2.66699 -1.66699 -5.33398 -3 -8.00098zM837.001 763.001c1.33301 2.66699 2.66699 5.66699 4 9v22h-28v-38c6 4 14 6.33301 24 7zM920.002 1255l-1 1l1 1v15h-15l-24 -15c8 -11.333 16 -17 24 -17zM703.002 215.001l-15 -15l1 -1
l-1 -1v-15h15l24 15c-8 11.333 -16 17 -24 17zM356.002 1146l-30 31l15 15h15v-46zM1252 459.001l30 -31l-15 -15h-15v46zM295.002 1207h-15v31h15v-31zM1313 398.001h15v-31h-15v31zM234.002 644.001v30h-15v-30h15zM1374 961.001v-30h15v30h-15zM950.002 842.001
l-23 -0.000976562l-12 -32c9.33301 10.667 21 21.334 35 32.001zM658.002 763l23 0.000976562l12 32c-9.33301 -10.667 -21 -21.334 -35 -32.001zM841.002 1266h35l-17 17zM749.002 322.001l17 17h-34zM905.002 1271v-29l14 14zM703.002 184.001v29l-14 -14zM794.002 1286
c-6.66699 -7.33301 -10.333 -17 -11 -29zM814.003 169.001c6.66699 7.33301 10.333 17 11 29zM841.002 337.001l-1 2h-7zM767.002 1266h8l-8 2v-2zM707.002 689.001h-4v-2h2zM901.002 916.001h4v2h-2z" />
    <glyph glyph-name="uni0425" unicode="&#x425;" horiz-adv-x="925" 
d="M604 1456c92.667 -10 138.999 -25.334 138.999 -46.001l-30 -31v-16c40.667 0 61 -10.333 61 -31v-15c0 -20.667 -15.333 -31 -46 -31v-16l31 -31l15 16l16 -16v-15l-47 -16v-31c27.333 0 53.333 -31 78 -93l-78 -15v-47l16 -15v-16c-32 0 -63 -36 -93 -108v-16h47v-31
h-31c-20.667 0 -31 15.667 -31 47h-31v-16c0 -51.333 10.333 -77 31 -77l46 15v-15l-15 -62l31 -77h-31c0 30.667 -10.333 46 -31 46c-41.333 -15.333 -62 -30.666 -62 -45.999l124 -93l-16 -47h16l46 -15l15 15l62 -170l-15 15h-31v-15l31 -124l-47 -16v-15
c28 -41.333 54 -62 78 -62v-62l-62 -62h-31l-93 15l-62 -15l-124 263h-15c0 -60 -20.667 -101.333 -62 -124l-47 31c0 -20.667 -15.333 -31 -46 -31v-31l15 16h47l-31 -31h-78c0 -52 -67 -78 -201 -78l-16 -15h-15l-31 31l263 712l-170 465l62 62v16l-47 -31l-15 15l15 16
v31h-15l-47 -16l-46 124l15 16h124l47 -31l93 15v-62h15l93 62l16 -15v-62c-72.667 0 -109 -31 -109 -93l16 -16h15l93 31l47 -31c24.667 0 50.334 62 77.001 186zM789.999 1425h15v-31h-15v31zM572.999 1286v-47l78 16v31h-78zM851.999 1286h15v-31h-15v31zM309.999 1224
v-16h31v16h-31zM665.999 1208l31 -31v31h-31zM386.999 1177l16 -93h31c0 54 -15.667 85 -47 93zM727.999 1146v-62h31v62h-31zM557.999 959.999v-31h31v31h-31zM386.999 603.999v-31l31 31h-31zM712.999 448.999v-15l30 -31v46h-30zM371.999 402.999l-16 -16v-15l16 -16h15
l16 16v15l-16 16h-15zM386.999 324.999v-46h31l16 46h-47zM835.999 340.999l78 -140l-16 -15h-15l-47 31l16 15l-16 78v31zM324.999 293.999v-31l31 31h-31zM557.999 278.999v-31h31v31h-31zM371.999 247.999l-16.001 -16v-15l47 -47h15c-13.333 52 -28.666 78 -45.999 78z
M913.998 154.999h15v-31h-15v31zM371.998 61.999h31l-31 -31v31zM324.998 45.999h16l31 -31h-47v31z" />
    <glyph glyph-name="uni0426" unicode="&#x426;" horiz-adv-x="1297" 
d="M651 5c-6 -2 -11.998 -3.66699 -17.998 -5c0 20 -15.333 30 -46 30c-20 40.667 -50.333 61 -91 61v-30h-76l-46 -31l-15 16h-16v-31h-30c0 33.333 -10.333 58.666 -31 75.999v16h-30c-39.333 -44 -90.333 -79.667 -153 -107l-30 91v153l15 15l-15 15v641l15 15l-15 15
v153l30 45l-30 31v15l30 31l46 -46h15c3.33301 50.667 18.666 76 45.999 76l-15 61h-76c0 -30.667 -10.333 -46 -31 -46l-15 16v106l46 46c172.667 -6.66699 259 -16.667 259 -30c0 -20.667 15.333 -31 46 -31v-30h-31v-16l61 -122l-15 -15h-15
c-20.667 23.333 -31 59 -31 107l-61 -76c16.667 0 37 -35.667 61 -107h15l16 15l15 -15l-46 -107l15 -15h16c0 30.667 10 46 30 46v-31l-46 -46h-15v46l-15 15h-31c0 -27.333 -15 -57.666 -45 -90.999c32.667 0 58 -40.667 76 -122h30v15l-15 15v16h31v-31l15 -15l-15 -15
h-31l15 -16v-15h-76v-30l61 -15l-15 -16v-30h30v46h16l15 -16h15c-7.33301 -60.667 -17.333 -91 -30 -91l30 -153l-15 -15l-15 15h-16l-91 -30v-31l107 31c0 -18.667 45.667 -34 137 -46l61 15h20l18 97l108 -31h15l15 46l-15 47h-46l-62 -47l-46 47v570
c0 20.667 15.333 31 46 31v30c-30.667 0 -46 31 -46 93v15l15 16l-15 92v16l15 15l62 -15l139 15h31v-46l107 46h16v-15l-31 -31v-16l15 -15v-15l-30 -47v-15c30.667 0 46 -10.333 46 -31v-15l-16 -16l16 -15v-31h-62c0 -41.333 20.667 -67 62 -77l-16 -15l31 -62l-92 -108
h77v-15l-31 -31l15 -46v-16l-15 -15v-16l15 -15v-15h-30v-16c0 -20.667 20.333 -31 61 -31v-46l-46 16l-46 -16v-31c51.333 0 77 -10 77 -30v-16h-16l-15 16h-15v-47l15 16l31 -31v-16l-16 -15l-61 46c0 -61.333 20.333 -92 61 -92v-31l-30 -46v-16h61v-11h137l91 -30
c-26 -59.333 -59 -108 -99 -146c-0.666992 -13.333 -1.66699 -25.666 -3 -36.999h11c17.333 -20.667 42.666 -31 75.999 -31v-30h-31v-16l16 -15l-31 -46v-76h-30c0 -40.667 20.333 -71 61 -91c0 -30.667 10 -46 30 -46c-19.333 -81.333 -70 -122 -152 -122h-16l-15 15
l-198 -30v15l-15 15v61l15 15l-15 16v30l15 61c-8.66699 63.333 -18.667 104.666 -30 123.999l-1 -2l-31 13l6 10h-145zM115.002 610v-31h30c0 -30 10.333 -45 31 -45l30 61v30h-15zM764.002 1109c0 31.333 10 47 30 47v15l-77 62v-62l16 15l31 -30h-31v-47h31zM343.002 534
c0 -20.667 -15 -31 -45 -31l-16 -15v-15l16 -16h15l46 46h15v31h-31zM887.002 231l24 -24l46 88l-70 -18v-46zM328.002 152v-45l76 15v30h-76zM949.002 1186l15 16v15l-15 16h-16l-15 -16v-15l15 -16h16zM359.002 625v-15l30 -31v46h-30zM887.002 -236l16 -16l30 31h-46v-15
zM1086 8h30.001l8 43c-2.66699 -8.66699 -5.33398 -13 -8.00098 -13c-16.667 0 -26.667 -10 -30 -30zM841.003 1371v31h-16v-31h16zM1009 -221l31 -31v16l-31 30v-15zM587.003 122v-15l31 -31v15zM328.003 1143v-30h31zM404.003 762h31v-30zM191.003 1159v-31h15v31h-15z
M1147 -206h15l-31 31h-15zM557.003 213v-30h15v30h-15zM1025 -160h30v15h-30v-15zM618.003 229l20 -20l1 14l-6 6h-15zM781.003 -8l10 -10l4 8l-14 6v-4zM796.003 -23l-15 -15l10 20zM981.003 339l-10 -3l5 -6zM827.003 62h-1v-9l1 1v8z" />
    <glyph glyph-name="uni0427" unicode="&#x427;" 
d="M157 1432c184.667 -6.66699 277.002 -37.665 277.002 -92.998l-46 -15v-31l77 -77l-61 -16v-15c0 -20.667 15.333 -31 46 -31l15 -15v-31h-61l30 -47l-15 -46l15 16h16l15 -16v-15l-61 -62l15 -16h15l16 16c15.333 -41.333 30.666 -62 45.999 -62l31 31h108
c5.33301 41.333 20.666 62 45.999 62l-46 77v62l46 77l-30 31l108 61v16l-16 15h-15l-31 -31c-41.333 17.333 -62 53.666 -62 108.999l31 30h201l46 -46l-16 -62l16 -15v-16l-16 -46l93 -15v-31h-46l-16 15h-15v-31c10 -40.667 35.667 -61 77 -61l16 15l15 -15v-16l-77 -15
v-16h31v-30l-16 15h-62c31.333 -62 62.333 -93 93 -93v-15c-62 0 -93 -25.667 -93 -77h16l46 -31l47 15l-16 -15v-16l16 -15v-15l-31 -31l15 -77l-15 -47l-78 16v-16l16 -15v-16l-16 -46l78 -93l-31 -30c41.333 0 62 -26 62 -78l-16 -15h-15l-47 15l-31 -46v-31
c38.667 -3.33301 69.667 -24 93 -62v-30l-15 -16l31 -77h-16l-77 15v-15c0 -20.667 20.667 -31 62 -31l15 -15v-31l-31 -31l-46 62h-16c0 -31.333 -10 -47 -30 -47h-16l-139 16l-61 -16l-16 16v62l16 92l-16 46l16 16v15l-16 47l31 31c-20.667 16 -31 72.333 -31 169l-15 16
l-529 -1l4 881c0 25.333 20.667 40.666 62 45.999zM959.002 1386h31l-31 -31v31zM249.002 1293l31 -31l16 15v16h-47zM944.002 1293h31v-31h-31v31zM743.002 1231v-31h31zM203.002 1000l-15.999 -78l16 -61l77 61c-6.66699 41.333 -32.334 67.333 -77.001 78z
M882.003 845.002v-46l31 31l-16 15h-15zM928.003 799.002l31 -31v31h-31zM897.003 737.002v-31h31zM944.003 676.002h31v30zM434.003 614.002v-47h31l47 31h30l47 -31h31v31l-93 31h-15zM666.003 259.002v-31h31v31h-31zM913.003 197.002v-46h46v46h-46z" />
    <glyph glyph-name="uni0428" unicode="&#x428;" horiz-adv-x="1635" 
d="M450 1006l-45.998 -46h-15v46l-15 15h-31c0 -27.333 -15 -57.666 -45 -90.999c32.667 0 58 -40.667 76 -122h30v15l-15 15v16h31v-31l15 -15l-15 -15h-31l15 -16v-15h31v-30l-31 30h-76v-30l61 -15l-15 -16v-30h30v46h16l15 -16h15c-7.33301 -60.667 -17.333 -91 -30 -91
l30 -153l-15 -15l-15 15h-16l-91 -30v-31l107 31c0 -18.667 45.667 -34 137 -46l61 15h19v146l-12 13v570c0 16.667 10 26.667 30 30l-18 19v15l8 8c-13.333 14 -20 41.333 -20 82v15l12 13v21l-12 74v16l15 15l34 -9l9 9c40.667 -2 76.667 -4 108 -6l50 6h31v-12
c26.667 -3.33301 45.667 -6.66602 57 -9.99902l50 22h16v-15l-31 -31v-13c6.66699 -1.33301 14.667 -2 24 -2v-30h-9v-1l-17 -26l23 -45c6 -4.66699 9.33301 -11.334 10 -20.001l23 -46l-15 -15h-8v-18h-60c6.66699 -16 14 -35.333 22 -58h15l16 15l15 -15l-9 -19h1l-1 -1
l-10 -24l18 -37c4 3.33301 9.33301 5 16 5v-31l-46 -46h-11l-43 -51h77v-15l-31 -31l3 -9h21v-31l15 -15l-15 -15h-17l-7 -7v-1l8 -8v-15h31v-30l-31 30l7 -7v-15h-30v-16v-5l8 -2l-5 -6c3.33301 -6 10 -10.667 20 -14v20h16l15 -16h15
c-2.66699 -20 -5.33398 -36.667 -8.00098 -50v-4h-1c-6 -24.667 -13 -37 -21 -37l2 -11c3.33301 -4 5 -8.33301 5 -13v-13l23 -116l-15 -15l-15 15h-16l-17 -6c6.66699 -2.66699 14.667 -4 24 -4v-23l9 3c0 -18.667 45.667 -34 137 -46l61 15h20l18 97l108 -31h15l15 46
l-15 47h-46l-62 -47l-46 47v570c0 20.667 15.333 31 46 31v30c-30.667 0 -46 31 -46 93v15l15 16l-15 92v16l15 15l62 -15l139 15h31v-46l107 46h16v-15l-31 -31v-16l15 -15v-15l-30 -47v-15c30.667 0 46 -10.333 46 -31v-15l-16 -16l16 -15v-31h-62
c0 -41.333 20.667 -67 62 -77l-16 -15l31 -62l-92 -108h77v-15l-31 -31l15 -46v-16l-15 -15v-16l15 -15v-15h-30v-16c0 -20.667 20.333 -31 61 -31v-46l-46 16l-46 -16v-31c51.333 0 77 -10 77 -30v-16h-16l-15 16h-15v-47l15 16l31 -31v-16l-16 -15l-61 46
c0 -61.333 20.333 -92 61 -92v-31l-30 -46v-16h61v-46l-123 -31v-46l31 -31v-15l-16 -16v-30h77v15l-15 15h31v-138l-31 -31h-308l-5 5c-6 -2 -12 -3.66699 -18 -5c0 20 -15.333 30 -46 30c-20 40.667 -50.333 61 -91 61v-30h-69v-30l-31 -31h-308l-5 5
c-6 -2 -12 -3.66699 -18 -5c0 20 -15.333 30 -46 30c-20 40.667 -50.333 61 -91 61v-30h-76l-46 -31l-15 16h-16v-31h-30c0 33.333 -10.333 58.666 -31 75.999v16h-30c-39.333 -44 -90.333 -79.667 -153 -107l-30 91v153l15 15l-15 15v641l15 15l-15 15v153l30 45l-30 31v15
l30 31l46 -46h15c3.33301 50.667 18.666 76 45.999 76l-15 61h-76c0 -30.667 -10.333 -46 -31 -46l-15 16v106l46 46c172.667 -6.66699 259 -16.667 259 -30c0 -20.667 15.333 -31 46 -31v-30h-31v-16l61 -122l-15 -15h-15c-20.667 23.333 -31 59 -31 107l-61 -76
c16.667 0 37 -35.667 61 -107h15l16 15l15 -15l-46 -107l15 -15h16c0 30.667 10 46 30 46v-31zM115.002 610v-31h30c0 -30 10.333 -45 31 -45l30 61v30h-15zM1332 1109c0 31.333 10 47 30 47v15l-77 62v-62l16 15l31 -30h-31v-47h31zM343.002 534c0 -20.667 -15 -31 -45 -31
l-16 -15v-15l16 -16h15l46 46h15v31h-31zM328.002 152v-45l76 15v30h-76zM1517 1186l15 16v15l-15 16h-16l-15 -16v-15l15 -16h16zM949.002 1186l15 16v15l-15 16h-16l-15 -16v-15v-1l15 -15h16zM1517 31l15 15l-31 31h-31l31 -46h16zM359.002 625v-15l30 -31v46h-30z
M972.002 152h-70v-13h70v13zM717.002 1174h3.00098l8 8c1.33301 14 3.66602 26 6.99902 36l-18 15v-59zM922.003 498l5 5h15v18l-18 13h-6c0 -14 1.33301 -26 4 -36zM1409 1371v31h-16v-31h16zM720.003 545c5.33301 -7.33301 13.333 -11 24 -11l10 21h-21zM1155 122v-15
l31 -31v15zM328.003 1143v-30h31zM587.003 122v-15l31 -31v15zM191.003 1159v-31h15v31h-15zM1125 213v-30h15v30h-15zM557.003 213v-30h15v30h-15zM774.003 1147v12h-13l3 -3h-5v-28h6c2 8 5 14.333 9 19zM927.003 625v-9c11.333 -0.666992 21.333 -1.66699 30 -3v12h-30z
M1186 229l20 -20l1 14l-6 6h-15zM618.003 229l19 -19v15l-4 4h-15zM957.003 1279v17l-8 -10v-7h8zM933.003 31h8l-14 15h-4zM949.003 31l11 11l-17 -11h6zM957.003 579v7h-7z" />
    </font>
</defs>
</svg>
